<svg xmlns="http://www.w3.org/2000/svg" viewBox="0 0 198 152.95"><defs><style>.cls-1,.cls-2{fill:#fff;}.cls-2{fill-rule:evenodd;}.cls-3{fill:#004098;}.cls-4{fill:#fdd000;}.cls-5{fill:#00afec;}.cls-6{fill:#e60012;}</style></defs><title>logo-底部</title><g id="图层_2" data-name="图层 2"><g id="图层_1-2" data-name="图层 1"><path class="cls-1" d="M41.14,146.13c-1.7,0-2.36,1.6-2.36,2.83s.67,2.84,2.3,2.84c1.45,0,2.35-1.31,2.35-3S42.55,146.13,41.14,146.13Zm.17,5.27c-1.06,0-1.7-1.17-1.7-2.66,0-1.79.74-2.23,1.36-2.23.91,0,1.63,1,1.63,2.59C42.6,151.16,41.7,151.4,41.31,151.4Zm25-5.27c-1.7,0-2.35,1.6-2.35,2.83s.66,2.84,2.29,2.84c1.45,0,2.36-1.31,2.36-3S67.78,146.13,66.36,146.13Zm.17,5.27c-1.06,0-1.69-1.17-1.69-2.66,0-1.79.73-2.23,1.36-2.23.9,0,1.62,1,1.62,2.59C67.82,151.16,66.93,151.4,66.53,151.4Zm-28.4-5.23s-.06,0-.09,0l-.23,0h-1.6l-.8,0c-.09,0-.14,0-.14.07a.09.09,0,0,0,.1.08.68.68,0,0,1,.22,0c.18.06.23.15.25.39v2.81c0,.7,0,1.23,0,1.54s0,.35-.17.38a.53.53,0,0,1-.2,0,.07.07,0,0,0-.08.07c0,.06,0,.08.11.08l.72,0c.15,0,.54,0,.9,0,.08,0,.12,0,.12-.08s0-.07-.1-.07a1.31,1.31,0,0,1-.27,0c-.17,0-.21-.17-.22-.38s0-.82,0-1.52V149c0-.05,0-.06,0-.06s.76,0,.9,0a.31.31,0,0,1,.27.26.69.69,0,0,1,0,.22c0,.05,0,.1,0,.1s.06-.1.06-.16,0-.38,0-.53.05-.42.05-.46,0-.07,0-.07-.05,0-.08.07-.13.12-.24.13h-1s0,0,0-.07v-1.75c0-.09,0-.1,0-.1l.94,0a.35.35,0,0,1,.35.22.78.78,0,0,1,0,.28c0,.08,0,.11.07.11s.05-.08.05-.14,0-.51,0-.59,0-.27,0-.32S38.14,146.17,38.13,146.17Zm151.45,5.38a1.27,1.27,0,0,1-.28,0c-.17,0-.21-.14-.23-.34s0-.88,0-1.58v-1.28c0-1.09,0-1.3,0-1.53s.06-.36.21-.39a.52.52,0,0,1,.17,0,.08.08,0,0,0,.09-.09s-.05-.06-.12-.06l-.72,0-.75,0c-.09,0-.14,0-.14.06a.08.08,0,0,0,.09.09.51.51,0,0,1,.21,0c.12.05.18.14.19.38v2.81c0,.7,0,1.28,0,1.57s-.05.32-.17.35a.5.5,0,0,1-.19,0c-.07,0-.09,0-.09.07s0,.08.11.08l.73,0c.15,0,.53,0,.91,0,.06,0,.1,0,.1-.08S189.65,151.55,189.58,151.55Zm-3.4-3.16-.23-.17c-.51-.37-.6-.63-.6-.95a.75.75,0,0,1,.77-.78.7.7,0,0,1,.62.34.92.92,0,0,1,.15.48c0,.09,0,.13.06.13s.07-.08.07-.23c0-.57,0-.78,0-.87s0-.07-.08-.09a2.57,2.57,0,0,0-.8-.12,1.39,1.39,0,0,0-1.41,1.45,1.88,1.88,0,0,0,.88,1.64l.32.26a1.16,1.16,0,0,1,.56,1,.83.83,0,0,1-.78.92.87.87,0,0,1-.89-.71,1.37,1.37,0,0,1-.05-.38c0-.05,0-.12-.06-.12s-.07.08-.07.19,0,.57,0,1a.41.41,0,0,0,0,.19.27.27,0,0,1-.12,0c-.09,0-.29-.06-.6-.47s-.74-1.11-1.23-1.93a2.28,2.28,0,0,0,.77-1.6,1.39,1.39,0,0,0-.39-1,1.55,1.55,0,0,0-1.07-.31l-.87,0-.77,0c-.08,0-.12,0-.12.07s0,.08.09.08a.68.68,0,0,1,.22,0c.18.07.23.15.25.39v2.81c0,.66,0,1.23,0,1.54s-.05.35-.17.38a.53.53,0,0,1-.2,0c-.07,0-.09,0-.09.07s0,.08.11.08l.69,0c.08,0,.55,0,.88,0,.07,0,.11,0,.11-.08a.07.07,0,0,0-.07-.07,1.31,1.31,0,0,1-.27,0c-.18,0-.2-.17-.22-.38s0-.87,0-1.54v-.1s0-.06,0-.06l.51,0a.1.1,0,0,1,.1,0c.07.11.3.59.53,1a3.07,3.07,0,0,0,.76,1.07,1,1,0,0,0,.62.14h.53c.07,0,.11,0,.11-.08h0a1.94,1.94,0,0,0,.92.19,1.36,1.36,0,0,0,.94-.3,1.77,1.77,0,0,0,.56-1.36A2,2,0,0,0,186.18,148.39Zm-4.16.69a1.21,1.21,0,0,1-.43-.07s-.05,0-.05-.13v-2.15c0-.06,0-.08.05-.1a1.31,1.31,0,0,1,.33,0c.33,0,.85.27.85,1.29a1.41,1.41,0,0,1-.36,1.07C182.32,149.06,182.24,149.08,182,149.08ZM63.44,151.55a1.43,1.43,0,0,1-.29,0c-.16,0-.2-.14-.22-.34s0-.88,0-1.58v-1.28c0-1.09,0-1.3,0-1.53s0-.36.21-.39a.44.44,0,0,1,.16,0c.06,0,.09,0,.09-.09s0-.06-.11-.06l-.72,0-.76,0c-.09,0-.13,0-.13.06s0,.09.09.09a.44.44,0,0,1,.2,0c.12.05.18.14.19.38s0,.44,0,1.53v1.28c0,.7,0,1.28,0,1.57s0,.32-.16.35a.56.56,0,0,1-.2,0c-.07,0-.09,0-.09.07s0,.08.11.08l.73,0c.16,0,.54,0,.91,0,.06,0,.11,0,.11-.08A.08.08,0,0,0,63.44,151.55Zm116.25-1s-.05,0-.07.11c0,.3-.1.45-.24.54a1.24,1.24,0,0,1-.53.09c-.57,0-.75-.11-.76-.6,0-.22,0-.83,0-1.08v-.57c0-.05,0-.08,0-.08l.88,0a.33.33,0,0,1,.32.28c0,.1,0,.19,0,.27s0,.06,0,.06.05-.1.05-.16,0-.34,0-.49c0-.36,0-.48,0-.53s0-.07,0-.07,0,0-.09.09-.13.09-.27.11-.85,0-1,0,0,0,0-.08v-1.78c0-.05,0-.07,0-.07s.79,0,.88,0c.28,0,.33.14.37.26a1,1,0,0,1,0,.27c0,.06,0,.09,0,.09s.06-.08.07-.12,0-.4,0-.47a4.32,4.32,0,0,1,0-.47s0-.07,0-.07-.06,0-.09,0l-.24,0h-1.53l-.81,0c-.06,0-.1,0-.11,0a.13.13,0,0,0-.1,0l-.53,0-.6,0c-.11,0-.16,0-.16.07a.08.08,0,0,0,.09.08.58.58,0,0,1,.23,0c.05,0,.07.05.07.13a1,1,0,0,1,0,.26c-.13.48-.85,2.81-1.09,3.56h0l-.95-3.24a3.1,3.1,0,0,1-.12-.55.18.18,0,0,1,.05-.14.3.3,0,0,1,.22-.05.08.08,0,0,0,.09-.08c0-.05-.06-.07-.13-.07l-.72,0-.82,0c-.08,0-.14,0-.14.07a.07.07,0,0,0,.07.08.9.9,0,0,1,.21,0c.21.07.29.14.42.54l1.42,4.42c.1.34.15.44.22.44s.13-.12.27-.53.39-1.16.75-2.21c.31-.89.45-1.28.67-2a1.51,1.51,0,0,1,.3-.64.37.37,0,0,1,.27-.08.1.1,0,0,0,.08,0,.09.09,0,0,0,.08,0,.72.72,0,0,1,.22,0c.18.07.23.15.24.39s0,.44,0,1.53v1.28c0,.66,0,1.23,0,1.54s-.05.35-.16.38a.56.56,0,0,1-.2,0c-.07,0-.09,0-.09.07s0,.08.11.08l.39,0h.32l.65,0c.27,0,.61,0,1,0,.21,0,.26,0,.3-.19a6.77,6.77,0,0,0,.08-.8C179.74,150.66,179.73,150.56,179.69,150.56ZM58,151.55l-.21,0c-.1,0-.26-.12-.48-.77l-1.42-4.46c-.06-.16-.09-.23-.17-.23s-.1.08-.17.29L54,150.9c-.11.37-.2.59-.46.64h0a.75.75,0,0,1-.24-.06c-.17-.07-.22-.26-.27-.71l-.51-4.47c0-.16-.08-.23-.13-.23s-.1.06-.15.18l-1.5,4.08-1.51-4c-.07-.2-.11-.23-.17-.23s-.1.07-.11.19L48.39,151c0,.24-.08.53-.23.55h0c-.09,0-.29-.06-.6-.47s-.73-1.11-1.23-1.93a2.29,2.29,0,0,0,.78-1.6,1.39,1.39,0,0,0-.4-1,1.54,1.54,0,0,0-1.06-.31l-.88,0-.76,0c-.09,0-.13,0-.13.07a.08.08,0,0,0,.09.08.75.75,0,0,1,.23,0c.18.07.23.15.24.39s0,.44,0,1.53v1.28c0,.66,0,1.23,0,1.54s0,.35-.16.38a.6.6,0,0,1-.2,0c-.07,0-.09,0-.09.07s0,.08.11.08l.69,0c.08,0,.54,0,.87,0,.07,0,.11,0,.11-.08a.07.07,0,0,0-.06-.07,1.41,1.41,0,0,1-.28,0c-.17,0-.2-.17-.22-.38s0-.87,0-1.54v-.1s0-.06,0-.06l.5,0a.09.09,0,0,1,.1,0c.07.11.31.59.53,1a3.07,3.07,0,0,0,.77,1.07,1,1,0,0,0,.61.14h.6l.26,0c.1,0,.36,0,.6,0,.08,0,.13,0,.13-.08a.08.08,0,0,0-.09-.07l-.2,0a.19.19,0,0,1-.17-.21c0-.12,0-.21,0-.34l.27-2.82h0l.56,1.54c.06.21.51,1.31.64,1.65s.16.36.22.36.1-.07.23-.41L52,148.05h0l.32,3.13c0,.21,0,.29,0,.31s-.06,0-.06.08,0,.07.16.08l1,0h.13l.53,0,.63,0c.06,0,.09,0,.09-.08s0-.07-.08-.07h-.09c-.17,0-.22-.08-.22-.21a1.57,1.57,0,0,1,.08-.44l.3-1s0-.05,0-.05h1.32s0,0,.06.05l.44,1.46a.13.13,0,0,1-.06.16s-.07,0-.07.07.07,0,.17.06c.47,0,.88,0,1.08,0s.24,0,.24-.08S58,151.55,58,151.55Zm-12.35-2.47a1.21,1.21,0,0,1-.43-.07s0,0,0-.13v-2.15a.1.1,0,0,1,0-.1,1.35,1.35,0,0,1,.34,0c.33,0,.85.27.85,1.29A1.41,1.41,0,0,1,46,149C45.91,149.06,45.83,149.08,45.61,149.08Zm10.45.4H55s0,0,0,0l.54-1.83s0-.07,0-.07,0,0,0,.07l.53,1.84S56.09,149.48,56.06,149.48Zm5.08-3.3-.16,0a1.55,1.55,0,0,1-.38,0H58.32a3.36,3.36,0,0,1-.56,0,1.54,1.54,0,0,1-.24-.08s-.05,0-.07.14-.12.75-.12.87,0,.12.05.12,0,0,.07-.09a.76.76,0,0,1,.09-.25c.09-.16.22-.21.55-.22l.83,0v2.93c0,.66,0,1.23,0,1.54s-.06.35-.17.38a.53.53,0,0,1-.2,0c-.07,0-.09,0-.09.07s0,.08.11.08l.73,0c.16,0,.54,0,.91,0,.07,0,.11,0,.11-.08a.08.08,0,0,0-.09-.07,1.43,1.43,0,0,1-.29,0c-.16,0-.19-.17-.21-.37s0-.89,0-1.55v-2.93l.71,0c.51,0,.65.23.67.42v.07c0,.11,0,.15.07.15s0,0,.05-.12,0-.73,0-.88S61.17,146.18,61.14,146.18Zm-46.56,5.37a1.43,1.43,0,0,1-.29,0c-.16,0-.2-.14-.22-.34s0-.88,0-1.58v-1.28c0-1.09,0-1.3,0-1.53s0-.36.21-.39a.47.47,0,0,1,.16,0c.06,0,.09,0,.09-.09s0-.06-.11-.06l-.72,0-.76,0c-.09,0-.13,0-.13.06s0,.09.09.09a.44.44,0,0,1,.2,0c.13.05.18.14.19.38s0,.44,0,1.53v1.28c0,.7,0,1.28,0,1.57s0,.32-.17.35a.56.56,0,0,1-.2,0c-.07,0-.09,0-.09.07s0,.08.11.08l.73,0c.16,0,.54,0,.91,0,.06,0,.11,0,.11-.08A.08.08,0,0,0,14.58,151.55Zm-2.48-5.32-.72,0-.84,0c-.09,0-.13,0-.13.07s0,.08.09.08a.75.75,0,0,1,.23,0c.17.07.23.15.24.39s0,.44,0,1.53V150c0,1.42,0,2.14-.43,2.58a1.07,1.07,0,0,1-.26.22c-.1,0-.12.06-.12.09s0,.07,0,.08h.11a2.1,2.1,0,0,0,.28-.12,2,2,0,0,0,1-1.12,4.26,4.26,0,0,0,.14-1.24c0-.37,0-.61,0-.92v-1.22c0-1.09,0-1.3,0-1.53s.06-.36.21-.39a.44.44,0,0,1,.16,0c.07,0,.1,0,.1-.08S12.18,146.23,12.1,146.23Zm-4.79,4.33s-.06,0-.07.11c0,.3-.1.45-.24.54a1.24,1.24,0,0,1-.53.09c-.57,0-.75-.11-.76-.6,0-.22,0-.83,0-1.08v-.57c0-.05,0-.08,0-.08l.88,0a.34.34,0,0,1,.32.28,2.62,2.62,0,0,1,0,.27.06.06,0,0,0,0,.06c.06,0,.06-.1.06-.16s0-.34,0-.49c0-.36,0-.48,0-.53s0-.07,0-.07,0,0-.09.09-.13.09-.27.11-.85,0-1,0,0,0,0-.08v-1.78c0-.05,0-.07,0-.07s.78,0,.88,0c.28,0,.32.14.37.26a1,1,0,0,1,0,.27c0,.06,0,.09,0,.09s.06-.08.07-.12,0-.4,0-.47a4.32,4.32,0,0,1,0-.47s0-.07,0-.07-.06,0-.1,0l-.23,0H5.33l-.81,0c-.09,0-.13,0-.13.07s0,.08.1.08a.72.72,0,0,1,.22,0c.18.07.23.15.24.39s0,.44,0,1.53v1.28c0,.66,0,1.23,0,1.54s0,.35-.17.38a.5.5,0,0,1-.19,0c-.07,0-.09,0-.09.07s0,.08.11.08l.39,0H5.3l.65,0c.27,0,.61,0,1,0,.21,0,.26,0,.3-.19a6.77,6.77,0,0,0,.08-.8C7.36,150.66,7.35,150.56,7.31,150.56Zm2.42,1a1.43,1.43,0,0,1-.29,0c-.16,0-.2-.14-.22-.34s0-.88,0-1.58v-1.28c0-1.09,0-1.3,0-1.53s0-.36.21-.39a.47.47,0,0,1,.16,0c.06,0,.09,0,.09-.09s0-.06-.11-.06l-.72,0-.76,0c-.09,0-.13,0-.13.06s0,.09.09.09a.51.51,0,0,1,.21,0c.11.05.17.14.19.38v2.81c0,.7,0,1.28,0,1.57s-.06.32-.17.35a.53.53,0,0,1-.2,0c-.07,0-.09,0-.09.07s0,.08.11.08l.74,0c.15,0,.53,0,.9,0,.06,0,.11,0,.11-.08A.08.08,0,0,0,9.73,151.55Zm-7.12-3.64a2.07,2.07,0,0,0,.66-1.53,1.24,1.24,0,0,0-1.36-1.32c-.22,0-.47,0-.78,0-.13,0-.53,0-.87,0-.09,0-.14,0-.14.08s0,.08.11.08l.25,0c.21.07.26.21.27.51s0,.52,0,1.86v1.54c0,.81,0,1.5,0,1.87s0,.45-.18.48a.73.73,0,0,1-.23,0c-.08,0-.1,0-.1.07s0,.09.12.09l.44,0h.37l.48,0,.44,0a1.74,1.74,0,0,0,1.71-1.91A2.06,2.06,0,0,0,2.61,147.91Zm-1.08-2.32c0-.1,0-.14.06-.15a.65.65,0,0,1,.21,0c.55,0,.8.77.8,1.36a1.36,1.36,0,0,1-.27.93.51.51,0,0,1-.45.17,1,1,0,0,1-.3,0s-.05,0-.05-.09Zm.69,5.74a.87.87,0,0,1-.47-.11c-.2-.11-.22-.26-.22-.84V148.3s0-.06,0-.06h.27a.72.72,0,0,1,.53.21A2.42,2.42,0,0,1,3,150.2C3,151.12,2.51,151.33,2.22,151.33Zm27.15.21a1.75,1.75,0,0,1-.33,0c-.19,0-.23-.19-.25-.43s0-1.07,0-1.92v-1.54c0-1.34,0-1.58,0-1.86s.06-.46.23-.51l.2,0c.06,0,.1,0,.1-.09s0-.07-.14-.07l-.78,0-.82,0c-.11,0-.16,0-.16.07s0,.09.11.09a.83.83,0,0,1,.22,0c.14.05.21.2.22.5s0,.52,0,1.86v1.54c0,.85,0,1.55,0,1.92s-.06.4-.18.43a.73.73,0,0,1-.23,0c-.08,0-.11,0-.11.07s0,.09.13.09l.81,0c.17,0,.57,0,1,0,.07,0,.12,0,.12-.09S29.44,151.54,29.37,151.54Zm168.53-5.31-.6,0-.55,0c-.06,0-.1,0-.1.07s.06.07.11.08a.17.17,0,0,1,.12.17,1.18,1.18,0,0,1-.09.38c-.08.22-.76,1.77-.83,1.94-.1-.21-.83-1.9-.93-2.12a.6.6,0,0,1-.07-.25.11.11,0,0,1,.07-.11c.09,0,.13,0,.13-.09s0-.07-.08-.07l-.64,0-.61,0s0,0,0,0l-.15,0a1.72,1.72,0,0,1-.39,0H191a3.48,3.48,0,0,1-.57,0c-.14,0-.19-.08-.24-.08s0,0-.06.14a8.73,8.73,0,0,0-.12.87c0,.08,0,.12,0,.12s.05,0,.06-.09a.84.84,0,0,1,.1-.25c.08-.16.21-.21.54-.22l.84,0v2.93c0,.66,0,1.23,0,1.54s-.05.35-.17.38a.47.47,0,0,1-.19,0c-.08,0-.09,0-.09.07s0,.08.11.08l.73,0c.16,0,.53,0,.9,0,.07,0,.11,0,.11-.08s0-.07-.09-.07a1.27,1.27,0,0,1-.28,0c-.17,0-.2-.17-.22-.37s0-.89,0-1.55v-2.93l.71,0c.5,0,.65.23.66.42v.07c0,.11,0,.15.06.15s0,0,0-.12,0-.6,0-.8a.34.34,0,0,1,.12.06,1.59,1.59,0,0,1,.36.51c.2.38,1,2,1,2.08a1.82,1.82,0,0,1,.13.76v.6c0,.12,0,.41,0,.72s0,.35-.17.38a.56.56,0,0,1-.2,0,.08.08,0,0,0-.09.07c0,.06,0,.08.12.08l.73,0c.15,0,.53,0,.88,0,.08,0,.12,0,.12-.08a.08.08,0,0,0-.09-.07,1.33,1.33,0,0,1-.28,0c-.17,0-.22-.17-.23-.38s0-.6,0-.72v-.58a2.24,2.24,0,0,1,.06-.72c.11-.31.91-2,1.1-2.32a.85.85,0,0,1,.29-.34.56.56,0,0,1,.24-.08.1.1,0,0,0,.11-.09S198,146.23,197.9,146.23ZM24.82,149H23.3c-.07,0-.12,0-.12.07a.08.08,0,0,0,.09.07.69.69,0,0,1,.22,0c.18.06.23.14.24.39s0,.49,0,.85v.66a.27.27,0,0,1-.11.26.7.7,0,0,1-.4.08c-1.2,0-1.95-1.14-1.95-2.69a2.54,2.54,0,0,1,.52-1.77,1.32,1.32,0,0,1,1.08-.42,1.51,1.51,0,0,1,1.22.55,1.13,1.13,0,0,1,.19.6c0,.06,0,.09.06.09s.08,0,.08-.16c0-.91,0-1.11,0-1.19s0-.08-.07-.09a2.84,2.84,0,0,1-.45-.07,4.37,4.37,0,0,0-1-.12,2.25,2.25,0,0,0-1.51.47,2.94,2.94,0,0,0-1,2.36,2.52,2.52,0,0,0,2.6,2.84,2.62,2.62,0,0,0,1.37-.33c.07-.05.07-.06.07-.25v-.8c0-.36,0-.65,0-.87s.06-.36.21-.39l.16,0a.08.08,0,0,0,.07-.07C24.94,149,24.9,149,24.82,149Zm9.71-2.76c-.28,0-.49,0-.55,0l-.72,0c-.08,0-.14,0-.14.07s0,.08.09.08a.8.8,0,0,1,.3,0c.13.06.18.19.19.64l0,3.21h0l-1.21-1.62c-.82-1.07-1.66-2.22-1.73-2.31s-.17-.24-.24-.24-.1.11-.1.25l-.05,4.29c0,.63,0,.82-.17.87a.78.78,0,0,1-.26,0,.08.08,0,0,0-.09.07c0,.07.05.08.13.08.29,0,.55,0,.61,0s.36,0,.72,0c.08,0,.13,0,.13-.08s0-.07-.1-.07a.77.77,0,0,1-.29-.05c-.11-.05-.18-.22-.19-.79l-.06-3h0c.1.13.7,1,1.31,1.79s1.29,1.65,1.64,2.08a.31.31,0,0,0,.23.16s.09-.07.09-.23l.06-4.56c0-.41,0-.54.21-.6a.52.52,0,0,1,.17,0,.08.08,0,0,0,.09-.08C34.65,146.24,34.6,146.23,34.53,146.23Zm-14.72,0-.55,0-.71,0c-.08,0-.14,0-.14.07s0,.08.09.08a.75.75,0,0,1,.29,0c.14.06.19.19.19.64l.06,3.21h0c-.08-.1-.82-1.12-1.21-1.62-.81-1.07-1.66-2.22-1.73-2.31s-.17-.24-.24-.24-.1.11-.1.25l-.05,4.29c0,.63,0,.82-.17.87a.77.77,0,0,1-.25,0,.08.08,0,0,0-.09.07c0,.07.05.08.12.08.29,0,.56,0,.61,0s.36,0,.73,0c.08,0,.13,0,.13-.08s0-.07-.1-.07a.74.74,0,0,1-.29-.05c-.11-.05-.18-.22-.19-.79l-.07-3h0c.11.13.7,1,1.31,1.79s1.29,1.65,1.64,2.08a.33.33,0,0,0,.23.16c.05,0,.09-.07.09-.23l.07-4.56c0-.41.05-.54.2-.6a.58.58,0,0,1,.18,0,.08.08,0,0,0,.09-.08C19.94,146.24,19.89,146.23,19.81,146.23Zm144.76-1.17c-.25,0-.65,0-.73,0s-.41,0-.73,0c-.09,0-.14,0-.14.08s0,.08.11.08l.23,0c.21.07.27.21.28.51s0,.52,0,1.86v1.09a3.93,3.93,0,0,1-.37,2.18,1.09,1.09,0,0,1-.88.47,1,1,0,0,1-.8-.36c-.31-.35-.5-.88-.5-2.15v-1.23c0-1.34,0-1.58,0-1.86s.06-.46.23-.51l.19,0c.06,0,.1,0,.1-.08s0-.08-.14-.08l-.78,0c-.2,0-.6,0-.94,0-.09,0-.14,0-.14.08s0,.08.11.08l.25,0c.21.07.26.21.27.51s0,.52,0,1.86v1.28a3.51,3.51,0,0,0,.57,2.32,1.65,1.65,0,0,0,1.41.61,1.61,1.61,0,0,0,1.33-.63,4.23,4.23,0,0,0,.61-2.64v-.94c0-1.34,0-1.58,0-1.86s.06-.46.23-.51l.19,0c.08,0,.11,0,.11-.08S164.66,145.06,164.57,145.06Zm-29.49,1.17-.55,0-.71,0c-.08,0-.14,0-.14.07s0,.08.09.08a.73.73,0,0,1,.29,0c.14.06.19.19.2.64l.05,3.21h0c-.09-.1-.83-1.12-1.22-1.62-.81-1.07-1.65-2.22-1.73-2.31s-.17-.24-.24-.24-.09.11-.09.25l0,4.29c0,.63,0,.82-.18.87a.69.69,0,0,1-.25,0,.08.08,0,0,0-.09.07c0,.07.05.08.13.08.28,0,.55,0,.6,0s.36,0,.73,0c.08,0,.13,0,.13-.08s0-.07-.1-.07a.74.74,0,0,1-.29-.05c-.11-.05-.18-.22-.19-.79l-.07-3h0c.11.13.7,1,1.32,1.79s1.29,1.65,1.64,2.08a.3.3,0,0,0,.23.16s.09-.07.09-.23l.06-4.56c0-.41,0-.54.2-.6a.58.58,0,0,1,.18,0,.08.08,0,0,0,.09-.08C135.21,146.24,135.16,146.23,135.08,146.23Zm34.41,0-.55,0-.71,0c-.09,0-.14,0-.14.07s0,.08.08.08a.78.78,0,0,1,.3,0c.13.06.18.19.19.64l.06,3.21h0l-1.21-1.62c-.82-1.07-1.66-2.22-1.73-2.31s-.17-.24-.24-.24-.1.11-.1.25l0,4.29c0,.63,0,.82-.17.87a.78.78,0,0,1-.26,0,.08.08,0,0,0-.09.07c0,.07.06.08.13.08.29,0,.56,0,.61,0s.36,0,.73,0c.07,0,.12,0,.12-.08s0-.07-.09-.07a.82.82,0,0,1-.3-.05c-.1-.05-.18-.22-.19-.79l-.06-3h0c.11.13.7,1,1.31,1.79s1.29,1.65,1.64,2.08a.33.33,0,0,0,.23.16s.09-.07.09-.23l.07-4.56c0-.41,0-.54.2-.6a.52.52,0,0,1,.17,0c.07,0,.1,0,.1-.08S169.57,146.23,169.49,146.23Zm-39.63,5.32a1.36,1.36,0,0,1-.29,0c-.17,0-.2-.17-.22-.37s0-.89,0-1.55v-1.28c0-1.09,0-1.3,0-1.53s.06-.36.21-.39a.56.56,0,0,1,.17,0c.06,0,.1,0,.1-.08s0-.07-.12-.07l-.72,0-.85,0c-.08,0-.12,0-.12.07s0,.08.1.08a.65.65,0,0,1,.21,0c.18.07.23.15.25.39s0,.5,0,1.59v.16s0,.05,0,.05h-2.12s0,0,0-.05v-.16c0-1.09,0-1.36,0-1.59s.06-.36.21-.39a.53.53,0,0,1,.16,0c.07,0,.1,0,.1-.08s0-.07-.11-.07l-.75,0-.82,0c-.08,0-.12,0-.12.07a.08.08,0,0,0,.09.08.75.75,0,0,1,.23,0c.18.07.23.15.24.39s0,.44,0,1.53v1.28c0,.66,0,1.23,0,1.54s0,.35-.16.38a.56.56,0,0,1-.2,0c-.07,0-.09,0-.09.07s0,.08.11.08l.72,0c.16,0,.55,0,.91,0,.07,0,.12,0,.12-.08a.08.08,0,0,0-.09-.07,1.36,1.36,0,0,1-.29,0c-.17,0-.2-.17-.22-.37s0-.87,0-1.53v-.56a0,0,0,0,1,0,0h2.12a0,0,0,0,1,0,0v.56c0,.66,0,1.21,0,1.52s0,.35-.16.38a.58.58,0,0,1-.21,0,.08.08,0,0,0-.09.07s0,.08.12.08l.75,0c.15,0,.52,0,.88,0,.07,0,.12,0,.12-.08A.09.09,0,0,0,129.86,151.55Zm8.22-5.42c-1.71,0-2.36,1.6-2.36,2.83s.67,2.84,2.3,2.84c1.45,0,2.35-1.31,2.35-3S139.49,146.13,138.08,146.13Zm.17,5.27c-1.06,0-1.7-1.17-1.7-2.66,0-1.79.74-2.23,1.36-2.23.91,0,1.63,1,1.63,2.59C139.54,151.16,138.65,151.4,138.25,151.4Zm-13.82-1.07c-.05,0-.06,0-.07.15a1.45,1.45,0,0,1-.19.48c-.23.33-.5.38-1,.38-.75,0-1.75-.81-1.75-2.53a2.8,2.8,0,0,1,.52-1.88,1.27,1.27,0,0,1,1.06-.41,1.36,1.36,0,0,1,1.08.42,1.28,1.28,0,0,1,.22.68c0,.09,0,.15.06.15s.07-.08.07-.18,0-.54,0-.78,0-.34,0-.4a.09.09,0,0,0-.08-.09c-.17,0-.35-.07-.57-.11a3.69,3.69,0,0,0-.81-.08,2.18,2.18,0,0,0-1.78.76,3.46,3.46,0,0,0,0,4.12,2.43,2.43,0,0,0,1.93.79,2.48,2.48,0,0,0,1-.17.22.22,0,0,0,.15-.21,8,8,0,0,0,.12-1C124.49,150.4,124.47,150.33,124.43,150.33Zm-50.8-4.1c-.28,0-.49,0-.55,0l-.71,0c-.09,0-.14,0-.14.07s0,.08.08.08a.78.78,0,0,1,.3,0c.13.06.18.19.19.64l.06,3.21h0l-1.21-1.62c-.82-1.07-1.66-2.22-1.73-2.31s-.17-.24-.24-.24-.1.11-.1.25l0,4.29c0,.63,0,.82-.17.87a.78.78,0,0,1-.26,0,.08.08,0,0,0-.09.07c0,.07.06.08.13.08.29,0,.56,0,.61,0s.36,0,.73,0c.07,0,.12,0,.12-.08s0-.07-.09-.07a.82.82,0,0,1-.3-.05c-.1-.05-.18-.22-.19-.79l-.06-3h0c.11.13.7,1,1.31,1.79s1.29,1.65,1.64,2.08a.33.33,0,0,0,.23.16c.05,0,.09-.07.09-.23l.06-4.56c0-.41,0-.54.21-.6a.52.52,0,0,1,.17,0c.07,0,.1,0,.1-.08S73.71,146.23,73.63,146.23Zm70.21,4.3c-.05,0-.06,0-.06.11a1.36,1.36,0,0,1-.14.43c-.15.2-.36.21-.66.21s-.65-.05-.75-.16-.12-.59-.12-1.52v-1.28c0-1.09,0-1.3,0-1.53s.06-.36.21-.39a.86.86,0,0,1,.22,0c.07,0,.1,0,.1-.08s0-.07-.12-.07l-.81,0-.77,0c-.09,0-.12,0-.12.07s0,.08.09.08a.55.55,0,0,1,.19,0c.18.07.23.15.24.39s0,.44,0,1.53v1.28c0,.66,0,1.23,0,1.54s-.05.35-.17.38a.5.5,0,0,1-.19,0c-.07,0-.09,0-.09.07s0,.08.11.08l.39,0h.31l.75,0c.28,0,.61,0,1,0s.32,0,.36-.2.08-.75.08-.83S143.88,150.53,143.84,150.53Zm9.82-1.54h-1.52c-.08,0-.12,0-.12.07a.08.08,0,0,0,.09.07.73.73,0,0,1,.22,0c.17.06.23.14.24.39v1.51c0,.13,0,.21-.11.26a.66.66,0,0,1-.39.08c-1.2,0-1.95-1.14-1.95-2.69a2.54,2.54,0,0,1,.51-1.77,1.33,1.33,0,0,1,1.09-.42,1.53,1.53,0,0,1,1.22.55,1.22,1.22,0,0,1,.19.6c0,.06,0,.09.06.09s.07,0,.07-.16c0-.91,0-1.11,0-1.19s0-.08-.07-.09a2.84,2.84,0,0,1-.45-.07,4.54,4.54,0,0,0-1-.12,2.25,2.25,0,0,0-1.51.47,2.91,2.91,0,0,0-1,2.36,2.51,2.51,0,0,0,2.59,2.84,2.64,2.64,0,0,0,1.38-.33c.07-.05.07-.06.07-.25v-1.67c0-.26.07-.36.22-.39l.15,0a.07.07,0,0,0,.07-.07C153.77,149,153.74,149,153.66,149Zm-7.23-2.86c-1.7,0-2.35,1.6-2.35,2.83s.66,2.84,2.29,2.84c1.45,0,2.36-1.31,2.36-3S147.85,146.13,146.43,146.13Zm.17,5.27c-1.06,0-1.7-1.17-1.7-2.66,0-1.79.74-2.23,1.36-2.23.91,0,1.63,1,1.63,2.59C147.89,151.16,147,151.4,146.6,151.4Zm-26.67-.84s-.05,0-.06.11c0,.3-.11.45-.25.54a1.21,1.21,0,0,1-.53.09c-.57,0-.74-.11-.76-.6v-1.65c0-.05,0-.08,0-.08l.88,0a.32.32,0,0,1,.31.28c0,.1,0,.19,0,.27s0,.06,0,.06.06-.1.06-.16,0-.34,0-.49c0-.36.05-.48.05-.53s0-.07-.05-.07,0,0-.09.09-.13.09-.26.11-.86,0-1,0,0,0,0-.08v-1.78c0-.05,0-.07,0-.07s.79,0,.88,0c.28,0,.33.14.37.26a.73.73,0,0,1,0,.27c0,.06,0,.09,0,.09s.05-.08.06-.12,0-.4,0-.47a3,3,0,0,1,0-.47s0-.07,0-.07-.06,0-.09,0l-.24,0H118l-.81,0c-.08,0-.13,0-.13.07s0,.08.1.08a.68.68,0,0,1,.22,0c.18.07.23.15.24.39s0,.44,0,1.53v1.28c0,.66,0,1.23,0,1.54s-.06.35-.17.38a.56.56,0,0,1-.2,0c-.07,0-.09,0-.09.07s0,.08.11.08l.39,0h.32l.65,0c.27,0,.61,0,1,0,.21,0,.27,0,.3-.19a6.77,6.77,0,0,0,.08-.8C120,150.66,120,150.56,119.93,150.56Zm38-4.33-.6,0-.55,0c-.07,0-.1,0-.1.07s0,.07.1.08a.16.16,0,0,1,.12.17,1.12,1.12,0,0,1-.08.38c-.08.22-.76,1.77-.83,1.94-.1-.21-.83-1.9-.94-2.12a.8.8,0,0,1-.07-.25.12.12,0,0,1,.08-.11c.09,0,.13,0,.13-.09s0-.07-.08-.07l-.64,0-.7,0c-.07,0-.11,0-.11.07a.08.08,0,0,0,.08.08.51.51,0,0,1,.24.09,1.76,1.76,0,0,1,.36.51c.2.38,1,2,1,2.08a1.82,1.82,0,0,1,.13.76v.6c0,.12,0,.41,0,.72s-.06.35-.17.38a.56.56,0,0,1-.2,0,.08.08,0,0,0-.09.07c0,.06,0,.08.12.08l.73,0c.15,0,.53,0,.88,0,.08,0,.12,0,.12-.08a.08.08,0,0,0-.09-.07,1.33,1.33,0,0,1-.28,0c-.17,0-.22-.17-.24-.38s0-.6,0-.72v-.58a2.26,2.26,0,0,1,.07-.72c.1-.31.91-2,1.09-2.32a.86.86,0,0,1,.3-.34.52.52,0,0,1,.24-.08.1.1,0,0,0,.11-.09S158,146.23,157.9,146.23Zm-63,0c-.27,0-.48,0-.54,0l-.72,0c-.08,0-.14,0-.14.07s0,.08.09.08a.73.73,0,0,1,.29,0c.14.06.19.19.2.64l0,3.21h0c-.09-.1-.83-1.12-1.22-1.62-.81-1.07-1.65-2.22-1.72-2.31s-.18-.24-.25-.24-.09.11-.09.25l0,4.29c0,.63,0,.82-.18.87a.69.69,0,0,1-.25,0,.08.08,0,0,0-.09.07c0,.07.05.08.13.08.28,0,.55,0,.6,0s.37,0,.73,0c.08,0,.13,0,.13-.08s0-.07-.1-.07a.74.74,0,0,1-.29-.05c-.11-.05-.18-.22-.19-.79l-.07-3h0c.11.13.7,1,1.32,1.79s1.29,1.65,1.64,2.08a.3.3,0,0,0,.23.16s.09-.07.09-.23l.06-4.56c0-.41,0-.54.2-.6a.58.58,0,0,1,.18,0,.08.08,0,0,0,.09-.08C95,146.24,95,146.23,94.88,146.23Zm-8.71,5.32a1.36,1.36,0,0,1-.29,0c-.16,0-.2-.14-.22-.34s0-.88,0-1.58v-1.28c0-1.09,0-1.3,0-1.53s.06-.36.21-.39a.52.52,0,0,1,.17,0c.06,0,.09,0,.09-.09s0-.06-.12-.06l-.72,0-.75,0c-.09,0-.13,0-.13.06s0,.09.09.09a.44.44,0,0,1,.2,0c.12.05.18.14.19.38s0,.44,0,1.53v1.28c0,.7,0,1.28,0,1.57s0,.32-.16.35a.56.56,0,0,1-.2,0c-.07,0-.09,0-.09.07s0,.08.11.08l.73,0c.16,0,.54,0,.91,0,.06,0,.11,0,.11-.08A.08.08,0,0,0,86.17,151.55Zm3.59-1s-.05,0-.06.11c0,.3-.11.45-.25.54a1.19,1.19,0,0,1-.52.09c-.58,0-.75-.11-.76-.6,0-.22,0-.83,0-1.08v-.57c0-.05,0-.08,0-.08l.88,0a.32.32,0,0,1,.31.28c0,.1,0,.19,0,.27s0,.06,0,.06.06-.1.06-.16,0-.34,0-.49c0-.36,0-.48,0-.53s0-.07,0-.07,0,0-.09.09-.13.09-.26.11-.86,0-1,0,0,0,0-.08v-1.78c0-.05,0-.07,0-.07s.79,0,.88,0c.29,0,.33.14.37.26a.73.73,0,0,1,0,.27c0,.06,0,.09.05.09s0-.08.06-.12,0-.4,0-.47a3,3,0,0,1,.05-.47s0-.07,0-.07-.06,0-.09,0l-.24,0H87.78l-.81,0c-.08,0-.13,0-.13.07s0,.08.1.08a.68.68,0,0,1,.22,0c.18.07.23.15.25.39v2.81c0,.66,0,1.23,0,1.54s0,.35-.17.38a.53.53,0,0,1-.2,0c-.07,0-.09,0-.09.07s0,.08.11.08l.39,0h.32l.65,0c.28,0,.62,0,1,0,.21,0,.27,0,.3-.19a5.16,5.16,0,0,0,.08-.8C89.81,150.66,89.81,150.56,89.76,150.56Zm-11.87-3.05c-.53-.55-.68-.86-.68-1.26s.29-.91.76-.91a.76.76,0,0,1,.7.43,1.27,1.27,0,0,1,.17.58c0,.11,0,.16.06.16s.07-.07.07-.26c0-.69,0-.94,0-1.06a.1.1,0,0,0-.09-.1,2.39,2.39,0,0,0-.85-.15,1.5,1.5,0,0,0-1.48,1.66,2.91,2.91,0,0,0,1,2.08l.29.31a1.9,1.9,0,0,1,.63,1.41.92.92,0,0,1-.86,1c-.39,0-.77-.24-.91-.89a2.66,2.66,0,0,1-.06-.45c0-.07,0-.14-.06-.14s-.07.09-.08.22,0,.67,0,1.15c0,.2,0,.24.12.3a1.67,1.67,0,0,0,.93.23,1.49,1.49,0,0,0,1-.36,2,2,0,0,0,.6-1.53,3,3,0,0,0-1.05-2.24Zm5.79,2.82c-.05,0-.06,0-.07.15a1.45,1.45,0,0,1-.19.48c-.23.33-.5.38-1,.38-.75,0-1.75-.81-1.75-2.53a2.86,2.86,0,0,1,.52-1.88,1.28,1.28,0,0,1,1.06-.41,1.34,1.34,0,0,1,1.08.42,1.13,1.13,0,0,1,.22.68c0,.09,0,.15.06.15s.07-.08.08-.18,0-.54,0-.78,0-.34,0-.4a.09.09,0,0,0-.08-.09c-.17,0-.35-.07-.56-.11a3.86,3.86,0,0,0-.82-.08,2.18,2.18,0,0,0-1.78.76,3.46,3.46,0,0,0,0,4.12,2.45,2.45,0,0,0,1.93.79,2.56,2.56,0,0,0,1-.17.22.22,0,0,0,.14-.21,8,8,0,0,0,.12-1C83.74,150.4,83.72,150.33,83.68,150.33Zm88.41,1.22a1.27,1.27,0,0,1-.28,0c-.17,0-.21-.14-.23-.34s0-.88,0-1.58v-1.28c0-1.09,0-1.3,0-1.53s.06-.36.21-.39a.52.52,0,0,1,.17,0,.08.08,0,0,0,.09-.09s0-.06-.12-.06l-.72,0-.75,0c-.09,0-.14,0-.14.06a.08.08,0,0,0,.09.09.51.51,0,0,1,.21,0c.12.05.18.14.19.38v2.81c0,.7,0,1.28,0,1.57s-.05.32-.17.35a.53.53,0,0,1-.2,0,.07.07,0,0,0-.08.07s0,.08.1.08l.74,0c.15,0,.53,0,.9,0,.07,0,.11,0,.11-.08S172.16,151.55,172.09,151.55Zm-61.22,0a1.48,1.48,0,0,1-.68-.31,6.13,6.13,0,0,1-.89-.86,4.31,4.31,0,0,0,.62-2.08c0-.11-.09-.16-.21-.17a4.6,4.6,0,0,0-.77-.07s-.1,0-.1.09a.07.07,0,0,0,.07.07.42.42,0,0,1,.32.13.7.7,0,0,1,.12.41,3.36,3.36,0,0,1-.31,1.35c-.12-.15-.9-1.12-1.12-1.47a4.53,4.53,0,0,1-1.06-2.31c0-.74.41-1,.68-1a.8.8,0,0,1,.71.4,1.46,1.46,0,0,1,.19.74c0,.13,0,.16,0,.16s.07,0,.08-.15.07-.83.07-1.12c0-.11,0-.18-.11-.23a1.75,1.75,0,0,0-.77-.18,1.53,1.53,0,0,0-1.55,1.61,2.44,2.44,0,0,0,.32,1.25,2.68,2.68,0,0,0-1,2.08,1.79,1.79,0,0,0,1.78,1.94,1.84,1.84,0,0,0,1.51-.8,1.62,1.62,0,0,0,1.5.68h.5c.14,0,.19,0,.19-.08S110.93,151.54,110.87,151.54Zm-3.4-.27c-.66,0-1.22-.71-1.22-1.8a1.82,1.82,0,0,1,.44-1.34c.11.22.52.85.68,1.1s.78,1.07,1.15,1.51A1.46,1.46,0,0,1,107.47,151.27Zm-8.1-.94s-.06,0-.07.15a1.45,1.45,0,0,1-.19.48c-.22.33-.5.38-1,.38-.75,0-1.75-.81-1.75-2.53a2.86,2.86,0,0,1,.52-1.88,1.28,1.28,0,0,1,1.06-.41,1.38,1.38,0,0,1,1.09.42,1.19,1.19,0,0,1,.21.68c0,.09,0,.15.06.15s.07-.08.08-.18,0-.54,0-.78,0-.34,0-.4a.09.09,0,0,0-.08-.09c-.17,0-.35-.07-.56-.11a3.86,3.86,0,0,0-.82-.08,2.18,2.18,0,0,0-1.78.76,3.46,3.46,0,0,0,0,4.12,2.46,2.46,0,0,0,1.93.79,2.56,2.56,0,0,0,1-.17.22.22,0,0,0,.14-.21,8,8,0,0,0,.12-1C99.43,150.4,99.41,150.33,99.37,150.33ZM116.55,145l-.17,0a2.07,2.07,0,0,1-.45.05h-2.52a4.26,4.26,0,0,1-.64-.05c-.16,0-.22-.1-.27-.1s-.06.05-.08.16-.14.87-.14,1,0,.14.06.14.06,0,.07-.1a2,2,0,0,1,.11-.31c.1-.19.25-.24.62-.25l1,0v3.6c0,.81,0,1.5,0,1.87s-.06.45-.19.48a.63.63,0,0,1-.23,0c-.07,0-.1,0-.1.07s0,.09.13.09l.8,0c.18,0,.58,0,1,0,.06,0,.12,0,.12-.09s0-.07-.11-.07a1.75,1.75,0,0,1-.32,0c-.19,0-.23-.22-.25-.47s0-1.07,0-1.88v-3.6l.8,0c.57,0,.74.26.76.49v.1c0,.13,0,.17.07.17s0-.05.06-.14,0-.83,0-1S116.59,145,116.55,145Zm-13.63,5.56s0,0-.07.11c0,.3-.1.45-.24.54a1.21,1.21,0,0,1-.53.09c-.57,0-.74-.11-.76-.6v-1.65c0-.05,0-.08,0-.08l.87,0a.33.33,0,0,1,.32.28c0,.1,0,.19,0,.27s0,.06.05.06.06-.1.06-.16,0-.34,0-.49c0-.36,0-.48,0-.53s0-.07,0-.07,0,0-.09.09-.13.09-.27.11-.85,0-1,0,0,0,0-.08v-1.78c0-.05,0-.07,0-.07s.79,0,.88,0c.28,0,.33.14.37.26a1,1,0,0,1,0,.27c0,.06,0,.09,0,.09s.06-.08.07-.12,0-.4,0-.47a4.32,4.32,0,0,1,0-.47s0-.07,0-.07-.06,0-.09,0l-.24,0h-1.53l-.81,0c-.08,0-.13,0-.13.07s0,.08.1.08a.68.68,0,0,1,.22,0c.18.07.23.15.24.39s0,.44,0,1.53v1.28c0,.66,0,1.23,0,1.54s-.05.35-.16.38a.56.56,0,0,1-.2,0c-.07,0-.09,0-.09.07s0,.08.11.08l.39,0h.32l.65,0c.27,0,.61,0,1,0,.21,0,.26,0,.3-.19a6.77,6.77,0,0,0,.08-.8C103,150.66,103,150.56,102.92,150.56Z"/><path class="cls-2" d="M162.22,115.46v-.13a1.74,1.74,0,0,1,.4-.23,2.88,2.88,0,0,1,2.09.62v.13l.13.1v.45l.1.07c.06.09,0,.17.07.29a3,3,0,0,1,.3.62,5.31,5.31,0,0,1-.47,1.2c-.08.23,0,.49-.13.75s-.32.49-.4.71l0,.39a4.54,4.54,0,0,0-.37,2.21H164c.14.09.4,0,.53-.09a15.6,15.6,0,0,1,1.43-.88c.46-.17.9-.18,1.39-.32.19-.06.38-.24.57-.3s.62-.06.63-.06c.18.06.18.35.33.45s.24.07.36.13a1.62,1.62,0,0,1,.4.26l.1.17h.17a3.19,3.19,0,0,1,.26.26v.91c-.44.24-1,.24-1.52.45s-.79.38-1.16.52l-.37,0c-.18.06-.54.17-.73.26s-.23.21-.33.26a2.67,2.67,0,0,1-.4.13c-.15.07-.35.2-.5.26a5.89,5.89,0,0,1-.7.3,1.81,1.81,0,0,0-.62.19c-.07.09-.14.17-.2.26.1.38.32.34.63.52a2.75,2.75,0,0,0,.33.23c.09,0,.15,0,.23.06s.3.29.5.36l.3,0c.09,0,.2.21.3.26l.16,0a6.29,6.29,0,0,0,.67.48l.43.07a.94.94,0,0,1,.1.1l.23,0a.61.61,0,0,0,.07.1l.66,0c.13,0,.33.18.5.23s.76-.06,1,0,.31.24.5.29a2.07,2.07,0,0,0,.8-.1.93.93,0,0,1,.5.1c.21.05.46-.08.73,0,.06,0,.1.1.2.1s.17-.14.33-.1.19.15.26.19c.35.2.82.19,1.2.36,0,.06.11.11.16.16l.47.1c.11.06.24.2.36.26s.7.44.44.85a2.9,2.9,0,0,1-.84.94,3.71,3.71,0,0,1-.23.32,2.45,2.45,0,0,1-.5.17l-.1.1c-.16,0-.25-.08-.33-.1a5.39,5.39,0,0,0-.79-.07.64.64,0,0,1-.34.07c-.14,0-.32-.18-.49-.13s-.15.11-.2.13-.25-.1-.37-.13h-.33c-.16,0-.36-.12-.56-.17h-.47c-.14,0-.36-.17-.5-.22s-.47-.07-.73-.16-.25-.21-.36-.26l-.33,0c-.22-.08-.49-.27-.7-.36l-.4,0a6.68,6.68,0,0,1-.7-.39h-.2l-.26-.26-.24,0-.16-.2c-.16-.1-.34-.12-.5-.22a2.2,2.2,0,0,0-.2-.23l-.23-.07c-.14-.08-.26-.24-.4-.32l-.23,0c-.09,0-.15-.19-.27-.23l-.43,0a1.21,1.21,0,0,0-.66-.1c-.29.51,0,1.24-.13,1.85,0,.13-.1.33-.14.49s.07.37,0,.62a3.14,3.14,0,0,1-.13.45c0,.06-.14.13-.17.2l-.06.58a5.47,5.47,0,0,1-1.06,1.63c-.12.08-.18,0-.33.1s-.24.18-.34.22a7.64,7.64,0,0,1-1.56.46c-.09,0-.19,0-.23,0a3,3,0,0,1-.43.1c-.08,0-.15-.06-.27,0a1.63,1.63,0,0,1-.49.1.37.37,0,0,0-.3-.2c-.07.06-.11.06-.24.07-.29-.43-.94-.54-1.36-.85-.18-.13-.19-.4-.33-.58s-.29,0-.36-.2,0-.2,0-.29-.34-.31-.43-.46l-.06-.35c0-.08-.14-.15-.17-.23V132l-.23-.16,0-.36a3.16,3.16,0,0,1-.23-.78s.09-.13.1-.16v-.23a1.23,1.23,0,0,1,.33-.59c.12-.07.35,0,.46-.09a7.45,7.45,0,0,0,.6-.65c.1-.15.1-.32.23-.43.29-.22.85.33.83.72a.86.86,0,0,0,0,.71c.07.12.28.09.4.17l.16.19a2.38,2.38,0,0,0,1,.13,1.29,1.29,0,0,0,.63-.52c.09-.12.34-.08.43-.19s.17-.55.3-.72.11,0,.13-.06,0-.25,0-.39.14-.13.17-.2a4.19,4.19,0,0,0,.1-.42v-.29c0-.06.11-.14.13-.2l0-.45c0-.16.23-.35.16-.49-.07-.32-.52-.4-.76-.55a10.94,10.94,0,0,1-1.59-1.27c-.15-.14-.39-.22-.47-.42l.1,0a.61.61,0,0,1,.4,0c.39.15.8.42,1.22.56s1.24-.32,1.53-.49c.74-.44.57-1.23.83-2.11.18-.58.38-1.25.53-1.86v-.26c.08-.27.19-.69.27-.94l0-.42c.05-.13.19-.31.24-.43l0-.32c.06-.2.2-.48.27-.68v-.2a4,4,0,0,0,.43-1.53.63.63,0,0,0-.37-.13S162.29,115.47,162.22,115.46Z"/><path class="cls-2" d="M103.3,127.61h.1c.22-.42.71-.29.9-.81-.16-.24.13-.59.16-.78s-.06-.2,0-.3.23-.23.27-.35,0-.22,0-.33a1.87,1.87,0,0,0,.07-.52.36.36,0,0,0-.2-.06,6.89,6.89,0,0,1-.83.35,13.71,13.71,0,0,1-3.65,1.17,1.39,1.39,0,0,1-1.6-.74,2.85,2.85,0,0,1-.23-.26v-.33c-.07-.27-.29-.49-.23-.81.2,0,.24-.08.23-.33h.07s0,0,.1,0a1.65,1.65,0,0,0,1.33.46c.06,0,.14-.12.19-.13h.37s.13-.12.2-.13.37.16.56.13.16-.16.24-.2.1.09.19-.06c-.12,0-.11,0-.16-.07a.34.34,0,0,1,0-.19h.06c.09-.06.18,0,.3,0s-.06.12-.1.22h.13c.1-.07.16,0,.3-.06l.17-.16h.16L103,123l.3,0c.23-.09.52-.29.76-.39l.2,0a3.42,3.42,0,0,1,.4-.26,3.83,3.83,0,0,0,.86-.42,5.83,5.83,0,0,0,.43-.91c0-.14,0-.28.07-.42a4.77,4.77,0,0,0,.43-1.08.93.93,0,0,0-.26,0,6.53,6.53,0,0,1-2.26.39h-.83a2.46,2.46,0,0,1-.7-.52c0-.08,0-.16-.07-.23s-.23-.11-.29-.19,0-.17,0-.26-.37-.14-.46-.36a.84.84,0,0,0,.23-.07s.07-.1.1-.16l.3,0a1.59,1.59,0,0,0,.13-.13c.18-.07.34-.09.5-.16v-.1a2.25,2.25,0,0,0-.4,0v-.13a.51.51,0,0,1,.27-.1c.17.1.58-.26.73-.33h.36a.64.64,0,0,0,.1-.13c.19-.1.38-.09.57-.19l1.39-.78c.3-.16.74-.14.73-.62,0,0,0,0,0-.13s.17-.08.2-.23-.07-.42-.1-.58a.35.35,0,0,1,.23-.1c.15.14.37.2.53.33s.16.19.23.29.33.16.4.29a2.54,2.54,0,0,0,0,.29l.23.2.06.23c.06.07.19.06.24.16v.23c0,.09.13.18.16.26s0,.68,0,.68l-.16.13c0,.1,0,.15,0,.29a2.43,2.43,0,0,1-.37.62c-.07.09-.17.06-.27.13l-.23.33-.3,0a2.63,2.63,0,0,0-.73.42c0,.06,0,0,0,.07.13.28.71.12.76.78a.76.76,0,0,0-.17.45.49.49,0,0,0,.3.07,6.68,6.68,0,0,0,.93.16,2.51,2.51,0,0,0,.33.55c.09.09.18,0,.24.16a1.14,1.14,0,0,1,.06.33,2.14,2.14,0,0,0-.3.49l-.53.42c-.26.15-.61,0-.93.16a10,10,0,0,0-1.06.68,7.16,7.16,0,0,0-.53,2.31l.13.07c.19-.23.55-.32.8-.49l.27-.29c.09-.07.18,0,.29-.1a4.07,4.07,0,0,0,.63-.46c.25-.18.35-.5.74-.55V124a.31.31,0,0,1,.19-.06c0,.07.16.1.2.16s0,.25.2.29a.2.2,0,0,1,.1,0,.77.77,0,0,1,0,.2s0,0,0,.06a.8.8,0,0,0-.59.49h.09c.07-.07.15,0,.24-.1a2.88,2.88,0,0,0,.33-.36c.13.07.16.17.27.26a2,2,0,0,0,0,.49,3,3,0,0,0-.57.65l0,.2.07,0c.23.17,1-.08,1.23-.16A23.1,23.1,0,0,0,113,125l.23,0c.18-.1.38-.3.57-.39h.16s0-.07,0-.13c-.31-.11-.43-.35-.67-.52a2.48,2.48,0,0,1-.4-.26c-.14-.17-.21-.43-.39-.55s-.29-.13-.37-.23c-.19-.25-.32-.7-.49-1s-.68-.65-.71-1H111a2.84,2.84,0,0,1,1.23.1,5.18,5.18,0,0,1,1.33.84c.13.1.2.29.33.39s.49.44.46.72.19.55.14.68-.08.1-.1.23,0,.11,0,.26a.82.82,0,0,0,.47-.07,1.24,1.24,0,0,1,.19-.26,5.3,5.3,0,0,1,.14-1.66,2.45,2.45,0,0,0,0-.94c0-.23,0-.45,0-.68l-.4-.26c-.11-.14-.15-.32-.3-.42a2.85,2.85,0,0,1-.8-.66,5,5,0,0,0-.93-1.17h-.19l-.14-.13c-.09,0-.23,0-.3,0l0-.06h0c.06-.17.24-.15.47-.13a.73.73,0,0,1,.66,0h.43a2.71,2.71,0,0,1,.44.13c.34.14.61.52,1.06.55a3.91,3.91,0,0,0,.3-.75v-1.92c0-.14.13-.43.16-.58l0-.33c.06-.24.2-.63.26-.85a3,3,0,0,0,0-1.13c0-.09,0-.15,0-.2a1,1,0,0,0-.06-.49l0,0c.09,0,.14.08.2.1h.27l.33.33a4,4,0,0,1,1.09,1.07c0,.08,0,.17.07.26s.24.18.3.32,0,.41.1.69a10.46,10.46,0,0,1,.1,2.14,3.56,3.56,0,0,1-.1.49s-.12.11-.13.16c-.13.35,0,.69-.17,1a3,3,0,0,0-.17.36c0,.18,0,.37,0,.55s-.12.2-.14.26c-.11.41.18.73.07,1.17a8.78,8.78,0,0,0-.27,2,.45.45,0,0,0,.14.06c.3.15.87-.19,1.29-.1,1,.22,1.79.38,2.06,1.27.09.28-.09.46-.1.68-.17.11-.22.27-.46.3s-.69,0-1,.06c-.49.12-1.71.45-1.89.82a6.88,6.88,0,0,0-.26,1.42v.69c-.34,1.12-.08,2.6-.3,3.61a1.19,1.19,0,0,0,0,.39c0,.58,0,2.09,0,2.68-.09.36-.08,1-.17,1.39l0,.62c-.08.24-.67.69-.53,1.11,0,.11.14.16.17.32-.12.12-.11.2-.37.2-.17-.33-.25-.72-.39-1.07a2,2,0,0,0-.27-.17l-.33,0c0-.06-.05-.13-.07-.2l-.2-.06a2.18,2.18,0,0,1-.46-.62V136c0-.06-.15-.08-.17-.13l0-.19a2.2,2.2,0,0,0-.13-.36,11.81,11.81,0,0,1,.23-2.84c0-.5,0-1,0-1.5.07-.3.06-.61.13-.87l0-1a8.13,8.13,0,0,0,.27-1.89.74.74,0,0,0-.37-.07,1.09,1.09,0,0,1-.13.17h-.16c-.16.1-.33.28-.5.39s-.3.07-.47.16-.28.32-.46.39h-.27c-.37.11-.7.26-1.09.39-.22.07-.78.44-1.06.39,0,0-.16-.09-.2-.1-.37-.1-.9,0-1.17-.19l-.23-.33a.78.78,0,0,1-.33-.52c-.13-.07-.4-.31-.63-.16s-.35.33-.53.49A13.7,13.7,0,0,1,106,129c-.17.12-.46.2-.56.39-.26.33-.08.74,0,1.11s-.11.61,0,1c0,.1.21,1.26.2,1.3a3.82,3.82,0,0,1-.36.46l-.17,0c-.09,0-.06.17-.17.23s0,0-.09,0c-.21-.21-.62-.27-.77-.52l0-.2c0-.07-.19-.18-.23-.25v-.2c0-.09-.14-.18-.17-.26V132c0-.1-.2-.11-.23-.2a.81.81,0,0,1,0-.39l0-.52c0-.17.15-.17.06-.39l-.1,0c-.08.12-.12.05-.26.13s-.27.27-.4.36a5.16,5.16,0,0,1-.63.22c-.33.16-.65.48-1,.62h-.23c-.08,0-.2.11-.26.13a2.63,2.63,0,0,1-.83-.29c-.1-.11-.11-.27-.2-.39l-.2-.2c0-.17,0-.34,0-.52s-.16-.18-.2-.35c.13-.14.14-.41.24-.56s.48-.28.63-.48a9.4,9.4,0,0,1,1.33-1.66l.23-.36.26-.07c.15-.09.09-.18.17-.32a1.8,1.8,0,0,1,1-.42c.27.27.29.19.7.26a1.51,1.51,0,0,1,0,.39A4.66,4.66,0,0,0,103.3,127.61Z"/><path class="cls-2" d="M102.84,117.57v.09l.06,0c.06,0,0,0,.07,0s0,0,0-.06h-.06S102.9,117.58,102.84,117.57Z"/><path class="cls-2" d="M101.81,117.6l.23,0a.77.77,0,0,1,.07.2H102c-.09,0-.21,0-.3,0l0-.1A.45.45,0,0,0,101.81,117.6Z"/><path class="cls-2" d="M33.6,115.55c0,.09.13.19.16.27s.08.42.2.61.19.16.23.26.05.24.07.36l.4.33.26,0c.19.08.29.31.47.39s.27.06.39.16c.44,0,.55-.53.8-.78a2.51,2.51,0,0,0-.4-1L36,116a4.06,4.06,0,0,1-.26-.36v-.16l-.4-.3c-.09-.12-.07-.3-.16-.42-.32-.36-.92-1-1.56-1a2.86,2.86,0,0,1-.44.2c-.09.49.26.81.4,1.17C33.57,115.25,33.58,115.4,33.6,115.55Zm9.85,4.3c0-.15.06-.12.1-.23a11.47,11.47,0,0,0-2-.55H41.1a14,14,0,0,0-3.06-.33c-.2.13-1,0-1.29,0a8.26,8.26,0,0,0-1.26.26l-.5,0c-.81.34-1.75.59-2.56.91-.32.12-.65.14-1,.29s-.69.38-1,.52-.5.06-.73.16a4.17,4.17,0,0,1-.46.26H29c-.06,0-.14.11-.2.13a5.35,5.35,0,0,1-2.06.43c-.15-.16-.34-.28-.49-.43H26l-.26.23c0,.16-.07.32-.1.49a3.29,3.29,0,0,0,.73,1.43c.16.12.44.12.6.26.21,0,.2-.09.33-.13h.23c.16-.08.28-.32.47-.39h.19c.3-.11.64-.33,1-.43a2.81,2.81,0,0,0,.59-.13l.14-.13.26,0c.12,0,.28-.18.4-.23l.4,0s.1-.09.13-.1l.47,0c.06,0,.14-.11.2-.13H32c.33-.11.72-.38,1-.52h.26l.43-.13.57,0a15.52,15.52,0,0,1,2-.65,6.17,6.17,0,0,1,1.89.13h.46a9.3,9.3,0,0,0,1.17.13,2.54,2.54,0,0,1,.73,0c.06,0,.16.11.23.13h.56a9.31,9.31,0,0,1,1,.16,1.47,1.47,0,0,0,.73.13c.13,0,.23-.15.39-.19a1.06,1.06,0,0,1,.54-1v-.06C43.74,120.05,43.64,119.9,43.45,119.85ZM41.59,131c-.1-.07-.18-.29-.26-.35l-.27-.07a5.67,5.67,0,0,0-.73-.45c-.16-.07-.33,0-.53-.07s-.17-.11-.23-.13h-.4a6,6,0,0,0-1.69-.29l0,0a1.52,1.52,0,0,1,.73-1.3c.09-.06.15,0,.23,0l.26-.2c.2-.15.18-.55.43-.71-.05-.37-.67-.88-.92-1.11,0-.39.31-.55.49-.78s.1-.37.2-.55l.57-.43c.21-.14.77-.32.89-.52l0-.19c.57-1.32-1.06-1.9-2.45-1.89-.24.19-.68,0-1,.13s-.54.2-.73.26h-.46c-.1,0-.16.14-.24.17h-.23s-.11.11-.17.13h-.26c-.13,0-.4.17-.53.22-.36.15-.87.1-1.13.33-.33,0-.25,0-.33-.26s-.11-.15-.14-.26a3,3,0,0,1-.62-.29c-.1,0-.26,0-.34-.07s-.19,0-.23.07a4.51,4.51,0,0,0-.27,1.78c.06.16.19.44.24.62l0,.72s.11.13.13.19,0,.33,0,.49a2.89,2.89,0,0,0,.46.71l.27.1c.17.12.49.65.86.43a.37.37,0,0,1,.2.09,2,2,0,0,0,0,.88s.11.11.13.16v.33c0,.12.18.15.23.29a1,1,0,0,0,.56.07l.14-.13a1.56,1.56,0,0,1,.59.06,1.5,1.5,0,0,1-.19,1.14l-.43.19h-.17c-.07.05-.15.31-.23.36l-.34.1c-.08,0-.17.18-.26.23a2.32,2.32,0,0,0-.37.13l-.23.22c-.07.05-.17,0-.26,0a1.64,1.64,0,0,0-.4.29c-.09,0-.13,0-.17,0l-.1,0a2.84,2.84,0,0,1,.1-.65.71.71,0,0,1,.47-.52c.16-.06.36,0,.46-.06s0-.23.1-.29c0-.43-.13-.35-.3-.56a1.84,1.84,0,0,0-.56-.55c-.63-.32-1.43.28-1.76.59l-.33.55c-.06.14.07.48,0,.68l-.14.13c-.06.13,0,.3,0,.46a1.47,1.47,0,0,0-.1.13v.71a1.63,1.63,0,0,0,.86,1.56l.3.07a3.56,3.56,0,0,0,.5.32,2.72,2.72,0,0,0,.9,0c.29-.3.7-.62,1-.91s.67-.36.89-.68h.2a8.12,8.12,0,0,1,0,1.56c0,.22.08.66.07.75a.91.91,0,0,0,0,.55.47.47,0,0,1,.1.1v.22c.08.15.37.2.5.3l0,.1.49.48c.31,0,.56-.4.8-.55a6.7,6.7,0,0,0,.16-1.3,6.63,6.63,0,0,1-.09-1.92c.08-.35.2-.62.29-.91a5.78,5.78,0,0,1,.3-1,2,2,0,0,0,.37-.13,1.21,1.21,0,0,1,.43.07l.63.06a2.74,2.74,0,0,1,.7.43c0,.14,0,.28,0,.42a6.87,6.87,0,0,1-.79,1.07c0,.19,0,.2.16.26s0,.08-.06.13a.35.35,0,0,0,0,.13.39.39,0,0,0,.2-.06c.21,0,.14.12.27.19a2.23,2.23,0,0,0,1.62.33c.38-.12.3-.29.5-.49s.27-.11.4-.19.43-.56.79-.66c0-.42.19-.57,0-1A3.34,3.34,0,0,0,41.59,131Zm-5.71-5.82c-.18.11-.47.51-.63.59h-.16l-.27.29c-.12.07-.26,0-.39.1a2.22,2.22,0,0,0-.64.42c-.34,0-.27-.23-.39-.45a2.59,2.59,0,0,1-.44-1.3,10.54,10.54,0,0,1,1.47-.72h.26c.18,0,.42-.12.56-.16l.53,0c.26-.08.57-.26.83-.36.41-.16.89-.06,1.13-.29.07,0,.07,0,.1,0H38C37.74,123.94,36.51,124.78,35.88,125.14Z"/><path class="cls-2" d="M197.64,120.43c0-.05-.16-.07-.2-.13a3.83,3.83,0,0,0-1.06-1.1c-.16-.09-.41,0-.6,0a4,4,0,0,0-2.19-.16c-.13,0-.2,0-.27-.06a1.25,1.25,0,0,0-.59.09h-.9c-.21,0-.43.07-.7.13s-.84.18-1.19.26l-.53,0a5.55,5.55,0,0,1-.9.22c-.08,0-.09,0-.13,0h0c.07-.21.19-.11.36-.23s0-.13.07-.19a4.62,4.62,0,0,1,.4-.29,2,2,0,0,0,0-.3,1,1,0,0,0,.6-.52v-.23c0-.07.21-.11.26-.19s.2-.44.34-.65.28-.28.36-.42a3.52,3.52,0,0,1,.17-.39c.15-.21.51-.2.76-.33l.9-.87a1.25,1.25,0,0,0,.1-.56,2.24,2.24,0,0,1-.27-.39,2.81,2.81,0,0,0-.86-.45,3.55,3.55,0,0,0-2.92.74,2.45,2.45,0,0,0-.8.56c-.36,0-.88-.22-1.26-.1-.7.21-.92,1-1.29,1.5-.12.17-.39.22-.5.39-.35,0-.18-.16-.23-.36h0a4,4,0,0,0-.13-.46c-.08,0-.14.07-.2,0s-.15-.18-.2-.3c-.47,0-.4.42-.5.82a1.73,1.73,0,0,0-.13,1c0,.12.18.19.23.29s0,.27.13.36c.29.24.55.2.8.55.15,0,.46.09.6,0,.69,0,.37-.36.73-.61s.67-.28.9-.52c.07-.09,0-.2.06-.33s.15-.21.17-.32-.06-.19-.07-.23c-.11-.5-.11-.89-.6-1,0-.19.05-.17.14-.26.3,0,.35.35.56.49a11.77,11.77,0,0,1,1.33.88,3.25,3.25,0,0,1-.17.61c-.13.2-.41.35-.53.55s-.14.44-.26.66a10.42,10.42,0,0,1-.73.78c0,.06,0,.06,0,.09s0,.09.16.07v.26H187a.53.53,0,0,1,.2-.16c0-.08,0-.1,0-.13s-.16,0-.2-.07,0,0,0-.06a.24.24,0,0,0,0-.07c.18,0,.32.13.53.07s.5-.54.6-.69a.34.34,0,0,1,.16.07c-.12.43-.62.78-.86,1.1l0,.13a4.53,4.53,0,0,1-.87.36v0a.24.24,0,0,1,0-.07c.09-.09.12-.18.23-.26a.31.31,0,0,0-.06-.19l-.07,0c-.6,0-.54.4-.83.55s-.24,0-.33.13-.17.3-.33.39-.4.08-.6.16-.67.37-1,.52-.55.12-.74.3a.45.45,0,0,1-.23-.07,1.75,1.75,0,0,1,.17-.49c.05-.14-.08-.24-.1-.33v-.19l-.3-.29c-.12-.16-.2-.4-.3-.55s-.35-.12-.5,0,0,.28-.13.52-.32.57-.43.81,0,.34-.13.52l-.1.1c-.11.22-.09.42-.2.65s-.2.25-.24.35,0,.45-.09.62-.14.08-.17.13l0,.29a8,8,0,0,1-.27.78c-.09.2-.28.46-.36.66s0,.32-.07.48a3.88,3.88,0,0,1-.23.33c0,.14,0,.28,0,.42s-.17.38-.23.52-.1.6-.23.88-.37.35-.33.58c0,0,.09.14.1.16s0,.32.06.43a.37.37,0,0,0,.27-.07c.12-.06.09-.2.17-.29l0,0c.12.24.35.34.5.55a2.44,2.44,0,0,0,.33-.23c0-.6.25-.71.36-1.1v-.26c.05-.17.15-.37.2-.55v-.23l.14-.13,0-.29c.06-.18.21-.49.26-.69s0-.21,0-.32.15-.22.2-.3l0-.35a2.5,2.5,0,0,1,.43-.72,4.74,4.74,0,0,1,.57-.16l.16-.16c.2-.14.42-.17.63-.3l.07-.09.3,0a8.72,8.72,0,0,0,.79-.48,5.3,5.3,0,0,1,.7-.26c.1,0,.18-.16.27-.2l.26,0a8.08,8.08,0,0,1,1.16-.49h.27c.2-.06.49-.19.7-.26l.23,0,.53-.23.23,0a5.36,5.36,0,0,1,.67-.39h.43s.1-.09.13-.1l1,0a7,7,0,0,1,3.35.06,3,3,0,0,1-.9,1.73c-.07.08-.22.08-.3.16a2.31,2.31,0,0,0-.26.62c.36,0,.72,0,1.09,0a2,2,0,0,0,.07.23,1.21,1.21,0,0,0,.6,0l.86,0c.12-.05.31-.21.43-.26.4-.19,1-.09,1.4-.26a2.26,2.26,0,0,0,.69-.56c0-.09,0-.19,0-.29s.25-.33.33-.48A2.46,2.46,0,0,0,197.64,120.43Zm-11.35-.16h-.1l0-.1.07,0Zm3.32-4.29-.1,0s0,.16,0,.2l-.06,0,0,0c0-.15.07-.13.1-.2l-.06-.13v0a1.88,1.88,0,0,1,.23-.16,2.48,2.48,0,0,0,.13-.3h.17l0,0A1,1,0,0,1,189.61,116Zm-1.36-.94a.49.49,0,0,1,0-.23c.13-.37,1.19-.49,1.52-.75h.11l.06.06c0,.42-.45.77-.66,1a3.87,3.87,0,0,0-.27.62C188.83,115.72,188.42,115.17,188.25,115Zm-4.19.32s0,0,0,0c0-.18-.08-.18-.16-.29a.52.52,0,0,0-.17.32A3,3,0,0,0,184.06,115.36Zm8.63,12.06c-.06,0,0-.15-.1-.2a4,4,0,0,0-1-.22c-.08,0-.19-.11-.27-.13-.33-.08-1,.18-1.33,0s-.15-.68-.3-1c0-.1-.21-.24-.16-.45a4,4,0,0,1,1-1.17c.11-.08.26-.11.33-.23a1.44,1.44,0,0,0-.07-1.27,3,3,0,0,0-1-.52l-.4,0a1.25,1.25,0,0,0-.53-.06c-.18,0-.42.15-.59.19H188a7.19,7.19,0,0,0-1.43.66,6.44,6.44,0,0,0-.66.25l-.17.17c-.19.1-.38.09-.56.19-.68.39-1.44.78-2.1,1.21-.16.1-.42,0-.59.16s-.16.24-.27.32v.23c.1.1.15.24.3.29a2.77,2.77,0,0,0,1.39-.16c.59-.32,1.3-.55,1.86-.91.21-.13.29-.42.53-.52h.27a6.56,6.56,0,0,0,1.13-.55.89.89,0,0,1,.3,0c-.13.53-.66.8-1,1.14a2.62,2.62,0,0,0-.23.81c0,.11.1.3.13.42s0,.17,0,.2c0,.2.07.41.1.61a1.66,1.66,0,0,0,.3.43,1.67,1.67,0,0,1,.49.13c0,.38-.76.53-1.09.65s-.54.11-.8.19-.82.32-1.22.43h-.74c-.08,0-.17-.16-.26-.2s-.48-.06-.63-.19a.38.38,0,0,0-.24.06,5.7,5.7,0,0,0,.57,1.43c.06.12.09.38.2.46a2.41,2.41,0,0,0,1.86.29l.86,0c.31-.08,1.42-.63,1.66-.46s.14.82.07,1.07c-.18.66-.29,1.56-.5,2.18-.12.35-.14.79-.46.91s-.52-.07-.7-.16a2.33,2.33,0,0,1-1.23-1.14c-.1,0-.1,0-.13.13a.46.46,0,0,1-.24-.06,5.07,5.07,0,0,0-.39-1.6c-.3,0-.33.29-.54.39s-.14,0-.19,0c-.27.28-.06.4-.54.61-.1.47-.12,1.07-.23,1.53h-.13a1.9,1.9,0,0,1-.07.36c.11.19.05.31.13.55,0,.07.24.42.3.52l.24.16a3.62,3.62,0,0,0,1,.82c.08,0,.17,0,.26.06s.27.3.43.36.28-.08.43,0,.27.38.57.42.5-.16.66-.22.63,0,.87-.2c.06,0,.26-.39.36-.49a3.93,3.93,0,0,0,1-1.62l0-.33c0-.05.12-.12.14-.19s-.22-.27-.14-.56c.18-.58.35-1.25.53-1.82.11-.32,0-.74.07-1.07,0-.05.11-.14.13-.19s0-.31.07-.49.14-.13.17-.2,0-.22.06-.32a1.87,1.87,0,0,1,.83-.42h.37s.1-.11.16-.14c.47-.13,1.11.11,1.46-.16.13-.09.08-.22.17-.35l.4-.39C193.32,127.62,193,127.65,192.69,127.42Z"/><path class="cls-2" d="M22.77,120.59c0-.37-.22-.24-.43-.39l-.13-.2c-.08,0-.18,0-.27-.06a.64.64,0,0,0-.1-.13c-.13-.08-.25-.06-.4-.13s0-.12-.06-.13H21a3.29,3.29,0,0,1-.33-.23,2,2,0,0,1,.27-.91c0-.39-.27-.5-.4-.75l0-.23c-.11-.2-.41-.43-.5-.58s0-.19-.1-.26a2.93,2.93,0,0,0-.43-.23,7.83,7.83,0,0,0-.67-.45,2.15,2.15,0,0,0-.73,0s0,0-.06,0,.1.18,0,.25c.07.3.44.3.5.62,0,.09-.06.14,0,.3a2.36,2.36,0,0,1-.6,1.69c-.09.14-.11.36-.23.48s-.16.07-.2.13-.06.28-.1.36l-.3,0s0,.17-.1.2-.2,0-.26,0-.07.16-.14.2l-.39.16a4.07,4.07,0,0,1-1.3-.16,1.33,1.33,0,0,0-.69.16,1.69,1.69,0,0,0,.46.84c0,.06.14.06.17.13.09.26.06.58.2.78s.14.07.26.14.24.33.37.45c0,.64-.41,1-.67,1.4s-.42.89-.7,1.33-.48.57-.69.85-.18.33-.3.48-.3.17-.43.26a2.83,2.83,0,0,0-.93,1.24c-.12.36.19.61.23.81s-.13.25-.1.39.19.19.23.3.07.36.1.55l.43.36c.16.2.2.47.37.68s.35.24.43.45a2.86,2.86,0,0,0,1.1.17c.09,0,.24-.11.36-.14a1.2,1.2,0,0,1,.4,0,3.54,3.54,0,0,0,.9-.1c.23-.06.36.06.56,0a4.51,4.51,0,0,0,.66-.26c.09,0,.2-.2.3-.23h.47a2.55,2.55,0,0,0,1-.58c.12-.26,0-.47.14-.78a1.17,1.17,0,0,0,.06-.65,5.22,5.22,0,0,0-.63-1.14,6.3,6.3,0,0,0-.93-.07h-.5c-.06,0-.16-.14-.23-.16-.26-.08-.52.15-.76,0-.21,0-.3,0-.33-.16s0,0,0-.07.1-.24.13-.39-.05-.48,0-.65.16-.17.2-.26a5,5,0,0,1,.5-1.1c0-.06.11-.06.16-.1s.13-.19.2-.29l.3-.26c.09-.12.07-.25.14-.39a3.68,3.68,0,0,1,.86-1H19c.08,0,.17-.14.26-.17h1c.24,0,.44-.2.63-.25s.33,0,.49-.1l.34-.39c.34-.26.82-.49,1-.91C22.73,121.22,22.87,120.75,22.77,120.59Zm-13.28,3a2.75,2.75,0,0,1-.2-.36c-.21,0-.15.14-.19.3a3,3,0,0,1-.37,0c-.1,0-.11.26-.27.1-.29,0-.34.54-.49.75s-.2.14-.27.25a.36.36,0,0,1-.2-.06c0-.37,0-.74,0-1.11,0-.11-.16-.29-.2-.42s0-.28,0-.42-.11-.15-.13-.2v-.29c0-.08-.11-.17-.13-.23v-.22c0-.11-.14-.19-.17-.26v-.33s-.12-.22-.16-.29-.14,0-.2-.1-.17-.28-.27-.39-.12,0-.2-.06c-.23-.13-.45-.42-.69-.52a6.13,6.13,0,0,0-.67-.13c-.2-.07-.45-.35-.56-.39s-.51,0-.7,0A10.39,10.39,0,0,0,2,118.73c-.05,0-.14.06-.2.1s-.07,0-.13.07,0,.06,0,.09c.09.21.39.26.57.39s.24.4.36.59.16.07.2.13a1.9,1.9,0,0,1,.37.65c0,.14,0,.28,0,.42s.19.37.14.56-.16.14-.1.32.11.11.13.16V124c0,.25-.07,1.49-.07,1.49,0,.25-.21.28-.33.42a5.32,5.32,0,0,1-1.36-.35c-.23-.09-.44,0-.6-.17a2.65,2.65,0,0,0-1,.07v.39a3.83,3.83,0,0,1,.7.75l.06.23s.11,0,.17.09a1.62,1.62,0,0,1,.3.39c.14.2.42.3.56.49s.09.22.17.29.21,0,.26.1.1.44.2.62l.2.13v.26c0,.05.12.11.14.16.07.23-.14.26,0,.43s0,.15-.1.19.22.29.29.52a.54.54,0,0,1,0,.32l0,1.11s-.11.12-.13.16,0,.18-.14.26v1l.17.13a3.66,3.66,0,0,0,.43.75c.06,0,.15,0,.2.09s.23.45.4.55h.1l.16.2c.1,0,.2,0,.27.07.44-.06.54-.49.83-.68s.49-.06.66-.17.13-.45.24-.68l.09-.1c.1-.25.07-.42.17-.65s.15-.13.2-.19a4.21,4.21,0,0,0,.17-.39c0-.19.06-.37.1-.56s.18-.18.23-.29,0-.26.13-.42.21-.27.27-.39,0-.19.06-.26l.17-.1c.07-.11.06-.25.13-.36l.2-.19,0-.39c0-.1.14-.07.2-.13s.07-.24.1-.36.17-.18.2-.26.06-.37.17-.55l.13-.14v-.35c0-.06.11-.19.13-.26a2.54,2.54,0,0,1,0-.29c.09-.26.24-.6.33-.88l0-.65c0-.16.21-.47.17-.65s-.12-.12-.14-.17C9.29,124.25,9.66,124,9.49,123.64Zm-.86-.55,0,.1h.06C8.65,123.12,8.66,123.12,8.63,123.09Zm-.17.55a.45.45,0,0,0,.14-.06c0-.16,0-.19-.1-.23s-.11.16,0,.26Z"/><path class="cls-2" d="M102.41,123s.12.07.06.13l-.1,0Z"/><path class="cls-2" d="M101.71,123.25v-.09h.06a.39.39,0,0,1,.17,0l0,0v.06h-.06A.38.38,0,0,1,101.71,123.25Z"/><path class="cls-2" d="M109,123.91v-.14c.07,0,.09,0,.13-.06l.06,0a.22.22,0,0,1,0,.13Z"/><path class="cls-2" d="M114.12,124.26a.37.37,0,0,0-.1.16h.07c.06-.06.07,0,.1-.16Z"/><path class="cls-2" d="M149.87,132v-.36a5.11,5.11,0,0,0-1.16-.78l-.4-.07c-.11,0-.26-.15-.39-.19l-1,0c-.57-.17-1.3-.23-1.89-.39l-.73,0c-.38-.14-.78-.35-1.2-.48a5.79,5.79,0,0,1-1.06-.3,1.13,1.13,0,0,1,.1-.55v-.52c.06-.25.2-.53.26-.75v-.26a7.17,7.17,0,0,0,.7-2.27c-.17-.17-.27-.46-.46-.59s-.23,0-.37-.1a2.61,2.61,0,0,0-.53-.26,3,3,0,0,0-1.63.43,1.55,1.55,0,0,1-.33,0,4.32,4.32,0,0,1,.53-1.5c0-.12,0-.24,0-.36l.36-.42.3-.06c.11,0,.18-.19.3-.23h.2c.21-.07.38-.29.59-.36l.4-.07c.11,0,.15-.21.24-.29s.6-.22.86-.35l.3-.3h.23c.15,0,.34-.21.5-.26s.35,0,.46,0h.07a.61.61,0,0,0-.1-.33,3.19,3.19,0,0,0,.26-.26c0-.38-.21-.53-.36-.78-.11,0-.25,0-.4-.06l-.16-.16a2.83,2.83,0,0,0-.5-.13,3.41,3.41,0,0,0-.33-.17,2.74,2.74,0,0,0-1.1.26c-.12,0-.16,0-.2-.06s-.47.17-.53.26a.49.49,0,0,1-.27-.06,3,3,0,0,1,.37-.92l0-.29a3.52,3.52,0,0,1,.77-1.53l-.07-.45c-.08-.15-.27-.22-.4-.33-.39-.33-.61-.75-1.36-.74,0,0-.14.09-.1.19l.2.1a1.79,1.79,0,0,1,.23.74,21.21,21.21,0,0,1-.76,2.48c-.09.24-.07.44-.17.68s-.31.54-.43.78-.05.25-.13.36c-.23.33-.81.43-1.16.65-.08,0-.19.16-.27.19-.26.11-1,.06-1.09.17-.49,0-.47-.38-.67-.66-.09-.07-.17-.15-.27-.22s-.06-.34-.16-.46-.18-.06-.23-.13a2.21,2.21,0,0,1-.37-1.33l0-.36a2.6,2.6,0,0,1,.23-.68c.06-.11.19-.19.24-.33s-.18-.47,0-.71c-.06-.37-.39-.43-.57-.68l-.43,0c-.09,0-.16-.15-.33-.1s-.3.21-.5.26a6.69,6.69,0,0,1-.76,1.59c-.4.75-.76,1.54-1.1,2.31-.08.2-.06.35-.13.59s-.2.46-.27.65-.06.48-.19.68-.83.37-1.16.49-.45.24-.64.29l-.23,0c-.07,0-.15.14-.23.16h-.44c-.34.08-.84.17-1.19.26a3.76,3.76,0,0,1-.89,0s-.07-.16-.1-.2l-.07,0a2.36,2.36,0,0,1-.36.26c-.24,0-.18-.1-.34-.16s0,0-.06,0l-.2.16c0,.06,0,0,0,.07a.61.61,0,0,0,.24.45h.29c.19.09.3.4.54.45s.41-.16.63-.13a3.14,3.14,0,0,0,1.32-.16l.6,0a11.67,11.67,0,0,0,1.1-.39,3.82,3.82,0,0,0,.6-.19c.12,0,.11,0,.16.06s-.24.36-.36.45-.31.47-.47.69l-.5.48a5.71,5.71,0,0,0-.49.69c-.11.13-.34.16-.44.29s-.08.3-.16.42-.4.39-.53.62-.23.53-.4.78a8.25,8.25,0,0,1-.67.65,6.09,6.09,0,0,0-1,1.69,3.5,3.5,0,0,0-.17.55v.82a4.22,4.22,0,0,0-.07,1c0,.31,0,.58.24.72a.27.27,0,0,1-.14.23,3,3,0,0,0,.3.81c.12,0,.16,0,.27-.07s.27.51.33.56l.2,0c.22.14.45.35.66.49s.39.11.57.22a2.2,2.2,0,0,0,.23.2l.23,0c.09,0,.12.18.2.23s.29,0,.46.06a6.15,6.15,0,0,0,1.2.49c.13,0,.31-.06.5-.06a.41.41,0,0,1,.13-.1c0-.09,0-.55.07-.62l.2-.2a1.69,1.69,0,0,0-.07-.71l0-.42c-.07-.23-.36-.53-.26-.91,0-.11.16-.22.13-.36s-.15-.15-.13-.26l.13-.13,0-.49c.05-.24.06-.6.1-.84s0-.26-.07-.39.15-.16.1-.33-.12-.1-.1-.19.12-.12.13-.17l0-.61c0-.11.13-.32.17-.46v-.75c0-.07.11-.15.13-.22v-.65c.08-.25.09-.65.16-1v-.39l.1-.09c0-.17,0-.33,0-.49s.21-.34.26-.49v-.23a.88.88,0,0,1,.4-.45.4.4,0,0,0-.07-.2,2,2,0,0,1,.24-.65,1,1,0,0,0-.27-.55c0-.43.42-.33.83-.42a9.37,9.37,0,0,0,1.13-.17c.35-.12.71-.3,1.06-.39s.63.07.83-.13c.21,0,.39.41.57.52a6.85,6.85,0,0,0,1.49.49,2.45,2.45,0,0,1-.33,1.4c0,.14-.05.28-.07.42a9.77,9.77,0,0,1-.5.91l0,.23c-.09.2-.33.42-.4.62a2.41,2.41,0,0,0-.1.94c0,.19.35.51.24.72v.06a3,3,0,0,1-.94-.32l-.33,0c-.49-.21-.95-.57-1.46-.78-.17-.07-.29,0-.46-.13-.35-.15-.55-.43-1.1-.42a3.58,3.58,0,0,1-.46.29c-.07,0-.1.15-.17.2.05.3.3.34.5.49l.17.19c.07,0,.17,0,.23.1s.11.31.2.36.33,0,.46.13.22.23.37.29a6.28,6.28,0,0,1,.83.29l.3.29c.1.07.21,0,.33.1s.26.2.39.26a5.25,5.25,0,0,1,.6.16c.29.16.59.41.87.59l.53.23c.05,0,.07.15.13.19l.53.33,0,.06a1.63,1.63,0,0,1-.19.52c-.06.1-.2.07-.3.13l-.24.29a3.4,3.4,0,0,1-.53.23,1.38,1.38,0,0,1-.53-.13l-1,0c-.12,0-.17-.17-.26-.23s-.37-.1-.5-.23,0-.28-.07-.39a1.36,1.36,0,0,0-.47-.61,1.44,1.44,0,0,0-.89.35c-.1.12,0,.23-.2.3v0c-.06,0,0,0-.07,0-.62,0-.57,1.84-.33,2.21l.17.1a3.24,3.24,0,0,0,.36.38l.53.23a6.11,6.11,0,0,0,2.16.85,5,5,0,0,0,1.36-.23,4.86,4.86,0,0,0,1.5-.72l.39-.45a3.27,3.27,0,0,0,.67-.45c.13-.17.2-.39.33-.56s.09,0,.13-.06a1.14,1.14,0,0,0,.17-.33A5.08,5.08,0,0,1,143,132c.33.14.6.29.89.42.1,0,.18,0,.27.07s.27.29.46.36c.41.13.81.09,1.23.22.09,0,.16.14.24.16h.33c.07,0,.14.11.2.13a6.49,6.49,0,0,0,1.79.13c.06,0,.17-.11.23-.13a4.67,4.67,0,0,0,.67-.13c.05,0,.11-.11.16-.12s.37,0,.5-.07.07,0,.1-.13A1.52,1.52,0,0,0,149.87,132ZM130,129c0,.16-.12.47-.17.61s0,.35,0,.52-.14.18-.17.26.08.27.07.39-.14.43-.17.59.13.3.13.58a.65.65,0,0,1-.16.13c0,.19.1.25.1.33s-.16.21-.2.36,0,0-.07,0c-.46-.06-1.44-1-1.33-1.5.06-.25-.13-.57,0-.78s.13-.18.3-.19c-.15-.59,0-.52.2-1,.06-.17,0-.26.1-.39s.23-.21.3-.32.08-.3.17-.46.33-.14.39-.26v-.32a3.07,3.07,0,0,1,.24-.29h.13v0c.13.2,0,.24.2.39a1.85,1.85,0,0,1-.1.42C129.91,128.42,130.06,128.7,130,129Zm4.61-9.63-.29.1c0,.18.09.54,0,.68a.32.32,0,0,1-.11.26,1.39,1.39,0,0,0-.89.23,1,1,0,0,1-.27,0c.06-1.11.77-1.88,1.1-2.76a1.18,1.18,0,0,0,.2-.07c.08,0,.14-.24.2-.36h.13l0,1.57A3,3,0,0,0,134.6,119.33Zm.5-.84v-.2h.07a.56.56,0,0,1,0,.2Zm5.68,7.9v.42c0,.07-.11.12-.14.16l0,.39a2.11,2.11,0,0,1-.23.39c-.2.39-.12.61-.43.91-.14.11-.44,0-.63,0a4.71,4.71,0,0,1-1.36-.81s0,0,0-.07.27-.06.43-.13a3.88,3.88,0,0,0,.47-.32l.36-.1c.46-.28.87-1,1.43-1.2l.13-.07.14,0C140.9,126.18,140.83,126.22,140.78,126.39Z"/><path class="cls-2" d="M61.14,115.7a2.88,2.88,0,0,0,.34.56v0a3.85,3.85,0,0,0,.89.42c.23.1.49.31.7.42l.23,0,.3.32.23.07.27.25c.1,0,.2,0,.3,0s.07.11.13.1l.1-.07a.43.43,0,0,0-.07-.29v-.61c-.11-.26-.43-.36-.66-.52a2.2,2.2,0,0,0-.43-.3h-.2a1.59,1.59,0,0,1-.13-.13h-.2c-.06,0-.12-.11-.17-.13h-.3c-.07,0-.12-.14-.2-.16a5.52,5.52,0,0,0-.79,0c-.1,0-.13-.09-.3-.1s-.1.07-.07.16Zm8.34,4.46c.07-.09-.16-.24-.2-.33v-.19a4,4,0,0,0-.37-.23c-.33-.2-.74-.4-1.09-.59l-.24,0s-.11-.11-.16-.13h-.27c-.07,0-.16-.11-.23-.13h-.27a1.73,1.73,0,0,0-.82-.13c-.34.08-.63.1-1,.16l-.23,0c-.08,0-.2.14-.3.16l-.4,0a.64.64,0,0,1-.1.13l-.3,0c-.11.05-.29.2-.39.23l-.34,0c-.11,0-.17.16-.26.19h-.37s-.11.12-.16.13c-.27.09-.47,0-.73.07-.55.16-1.24.28-1.8.45l-.62,0c-.19.06-.48.2-.67.26l-.43,0a.86.86,0,0,0-.07.1l-.23,0-1,.36-.5,0a1.72,1.72,0,0,1-.8.1,1.2,1.2,0,0,1-.29-.26c-.09,0-.13,0-.17,0s-.12.1-.2.16.07.35,0,.46v.06h-.07a2,2,0,0,0-.26-.52c0-.37.34-.52.53-.74a4.26,4.26,0,0,1,.73-.85,9.26,9.26,0,0,0,.93-.68c.39-.39.89-.71.56-1.53-.18-.46-.65-.73-.89-1.14l-.17,0a4.19,4.19,0,0,1-.37,1.1c-.09.13-.26.19-.39.3l0,.09-.46.39c0,.07-.07.15-.13.2s-.33.08-.4.16l0,.2c-.1.13-.44.26-.54.42-.26.41-.72.62-1,1a4.28,4.28,0,0,1-.5.61c-.14.13-.32.19-.43.33a2.52,2.52,0,0,1-.43.49c-.13.09-.37.22-.43.36s0,.09,0,.12-.1.13-.14.2c-.45.09-.29.27-.56.45-.11.09-.29.13-.36.23s-.07.2-.1.29-.2,0-.27,0,0,.11-.07.19-.38.24-.56.3a7.65,7.65,0,0,0-.27.84c.06.09.28.12.37.16v.62c0,.08.09.07.1.23.18,0,.43.08.5-.1.14,0,.24.12.33.1l.4-.36c.06-.09.05-.25.13-.32l.26-.1c.13-.08.19-.24.31-.33s.11,0,.16-.06.21-.3.33-.43a5,5,0,0,0,.5-.42l0-.13c.09-.08.25-.1.34-.19s.05-.16.09-.23c.19-.25.45-.45.64-.72l.2,0a4.34,4.34,0,0,1-.17.91v.42c0,.18-.09.42-.13.59v.35c0,.06-.12.11-.14.17V125c-.17.62-.38,1.35-.56,2v.43c0,.12-.11.29-.14.39v.35c-.06.23-.19.63-.26.85l0,.36s-.12.12-.13.19,0,.27,0,.42a3.27,3.27,0,0,0-.14.33v.59c0,.06-.11.17-.13.25v.36c-.06.16-.22.35-.27.52a2.77,2.77,0,0,0,0,.91,1,1,0,0,0,.07.46c.09,0,.09,0,.17,0h.13c.1.07.15.48.23.58s.21.1.27.26.18.05.26,0,.1-.14.13-.26c.2.05.23.13.44,0a7.16,7.16,0,0,1,0-.9s.06-.24.07-.26a1.77,1.77,0,0,1,0-.2c0-.06.12-.15.14-.19v-.75a2.82,2.82,0,0,1,.13-.78,7.82,7.82,0,0,0,0-1.07s-.06-.14,0-.23c.09-.32.21-.61.3-1l0-1a.45.45,0,0,1,0-.22c.15-.69.17-1.52.36-2.18,0-.24,0-.48,0-.72.15-.5.18-1.09.34-1.62.06-.21.17-.44.23-.62v-.36l.1-.1c0-.09,0-.24.07-.32v-.06h0c.08.14.17.45.3.55s.18,0,.26.06l.17.2c.07,0,.11,0,.17.06a4.4,4.4,0,0,0,1.22-.42H57c.06,0,.13-.11.2-.13h.36c.16-.06.41-.21.57-.26h.23c.09,0,.21-.11.3-.13h.4l1.13-.29h.43c.23-.07.59-.23.83-.29s.64,0,1-.1.46-.2.67-.26c.46-.15.91-.19,1.39-.3h1.56c.06,0,.14.12.2.13a7.16,7.16,0,0,1,1.33.46c.16.1.74.6,1,.52s.39-.32.63-.42c0-.15.11-.3,0-.42S69.33,120.24,69.48,120.16Zm-2,4.74a1.47,1.47,0,0,1-.1-.13s-.49-.11-.53-.13h-.8a9.33,9.33,0,0,0-4.41.36l-.9.29-.36,0c-.11,0-.22.18-.37.09H60v-.06c.08,0,.16-.15.24-.2l.16,0c.1-.09.15-.28.27-.36l.33-.09a1.92,1.92,0,0,1,.13-.17c.22-.14.47-.18.7-.32l.06-.1.27,0c.19-.07.39-.17.6-.26s.69-.47,1-.65l.46-.07s0-.13.07-.16l.23-.06a1.93,1.93,0,0,0,.17-.66c-.15-.13-.28-.36-.47-.45s-.35,0-.49,0l-.41,0s-.11.11-.16.13-.3,0-.47,0a2.55,2.55,0,0,1-.39.13,3.38,3.38,0,0,1-.8-.09,2.86,2.86,0,0,0-1.33.09.22.22,0,0,0,0,.16c0,.34.94.54,1.26.62s.36,0,.49.07,0,0,0,.06c-.06.28-.29.26-.5.39,0,.07-.11.13-.17.2s-.39.09-.46.16l0,.16-.27.2c-.16.09-.31.07-.46.16a13.32,13.32,0,0,0-1.5,1l-.16.23c-.13.09-.28.1-.4.19s-.11.18-.17.26a2.89,2.89,0,0,1-.56.26c-.28.15-.5.5-.8.62l-.4,0c-.08.05-.08.19-.13.26l-.37.33,0,.23s-.11.11-.13.16.05.28.06.36,0,.27,0,.42l.1.06a3.93,3.93,0,0,0,1.89-.81c.15-.08.29-.07.43-.16s.22-.21.34-.26a3.6,3.6,0,0,0,.86-.39h.23c0,.27-.16.44-.26.65s0,.19,0,.29c-.1.32-.29.73-.4,1a2.61,2.61,0,0,0,.11,1.21l0,.68a3.13,3.13,0,0,0,.43.88c.09.12.2,0,.36.13s.28.28.37.38c.64,0,.37-.11.6-.45,0-.06.23-.1.3-.13a3.36,3.36,0,0,1,0-.55c0-.05.11-.15.13-.2s0-.36,0-.49a4.08,4.08,0,0,1,1.73-1c.07,0,.16-.14.23-.16l.2,0c.09,0,.18-.14.27-.16s.39,0,.56-.1a.74.74,0,0,1,.5.1c0,.31-.26.36-.4.55a4.59,4.59,0,0,1-1,.94c-.37.2-.69.16-1,.39a1.45,1.45,0,0,0-.23,1.07v.65l.23.17a2.55,2.55,0,0,0,.5.58l.17,0,.06.1h.27c.07,0,.16.15.23.2a5.3,5.3,0,0,1,.8.48h.17a7.28,7.28,0,0,0,.56-.52c.15-.24.19-.46.43-.61,0-.52-.52-.47-.66-.72a3,3,0,0,1,0-.39c.09-.08.14-.25.24-.32s.35-.23.53-.36.17-.18.26-.26a3.44,3.44,0,0,0,.6-.33c.15-.14.18-.4.3-.58a2,2,0,0,0,.3-.42,1,1,0,0,0-.24-.88c-.06-.05-.12,0-.16-.07s-.08-.24-.17-.32l-.26-.1a5.3,5.3,0,0,0-.6-.46,3.76,3.76,0,0,0-1.59-.22,2.89,2.89,0,0,1-.6.16.31.31,0,0,0,.13.06v0c-.3.07-.51.17-.79.22-.11,0-.16,0-.27-.06a.31.31,0,0,1,0,.13c-.07.05-.19,0-.27.07s-.06.13-.13.16l-.3-.07c-.1,0,0,.1-.3.1,0,.08,0,0,.07.06a1,1,0,0,1,0,.1c-.1,0-.05,0-.1-.06a.47.47,0,0,0-.19,0c0,.09,0,.09.13.13L61,129c-.09,0-.08,0-.13-.1a.67.67,0,0,0-.4.23.34.34,0,0,1-.2-.07,3.45,3.45,0,0,1,.63-2c.09-.13.05-.35.13-.49a2.22,2.22,0,0,1,1-.52h.33a5.91,5.91,0,0,1,2.52-.13h.7a8.49,8.49,0,0,0,1.43.3,2.81,2.81,0,0,0,.59-.33c.06-.3,0-.64.24-.81C67.77,124.87,67.7,125,67.52,124.9Zm-5.11,3.16v.06h.16c0-.07,0-.06-.1-.1Z"/><path class="cls-2" d="M92.94,127.2c0-.3-.32-.35-.46-.55s0-.13-.07-.16-.45-.09-.63-.16-.11-.12-.16-.13h-.47a1.28,1.28,0,0,0-.79-.13c-.1,0-.22.11-.3.13h-.7c-.3.1-.66.32-1,.42h-.27a5.36,5.36,0,0,0-1,.39c-.24.13-.45.41-.67.55a5,5,0,0,0-.72.42h-.17a5.61,5.61,0,0,1,.53-2.08l0-1a10.15,10.15,0,0,0,.27-1.65c0-.16,0-.36,0-.46.26-1.58.29-3.67-.7-4.52-.07,0-.1-.22-.17-.26h-.16a1.4,1.4,0,0,1-.1-.16,2.93,2.93,0,0,0-.67-.1c-.12,0-.23.16-.33.2l-.53,0-.37.13a9,9,0,0,0-1.72.42l-.23,0c0-.09,0,0,0-.1a1.94,1.94,0,0,1,.46-.71c.4-.58.9-1.06,1.33-1.63.12-.16.36-.35.43-.55.21-.62-.43-1.26-.76-1.46-.13-.08-.29-.33-.5-.2a.4.4,0,0,0-.27.1,3.07,3.07,0,0,1,.3,1,5.52,5.52,0,0,0-.46.62c-.2.26-.55.41-.77.65-.36.42-.86.74-1.19,1.17-.2.26-.37.53-.57.78l-.66.65c-.21.29-.4.57-.63.85-.06.07-.21.08-.27.16s0,.11-.06.16l-.57.52c-.1.14-.14.34-.26.46s-.23.09-.3.19-.14.42-.33.56c0,.47.16.5.23.81s-.14.41,0,.65.08.09.14.16.12,0,.16-.1.12.07.17.17c.23,0,.24-.11.43,0l.27-.42c.07,0,.12,0,.19,0s0-.2,0-.29.32-.33.4-.46v-.23c0-.1.22-.14.29-.22s.11-.27.2-.36.13,0,.17-.07.07-.22.17-.29.18,0,.23-.1l.06-.29.17-.13c0-.1,0-.24.07-.32s.33-.15.49-.26.1-.17.14-.23.25.05.3.19-.23.22-.27.33,0,.32-.06.52-.21.52-.27.71v.56c-.06.2-.23.48-.3.68-.14.42-.15.88-.3,1.3-.09.25-.27.57-.36.81s0,.3,0,.46-.47.9-.4,1.13a9.49,9.49,0,0,0,.5,1,4.86,4.86,0,0,1,.43.23h.47a4.36,4.36,0,0,0,1.76-.16c.36-.09.63,0,1-.1a7.84,7.84,0,0,1,1.42-.26h.07c0,.79-.58.76-1,1.11-.11.08-.17.25-.26.35s-.42.35-.37.62,0,.61.1.81a.84.84,0,0,0,.53.78h.3c.51.16.85-.07,1.33-.19a3.39,3.39,0,0,0,.69-.13c.26-.14.51-.41.77-.55s.64-.47.86-.39l.14.12c.17.12.46.18.56.36v.17l.13,0,0,.32.14.13c.1.24,0,.46.13.68l.13.14v.32c0,.16.23.8.07,1s-.14,0-.23.13,0,.13-.07.16-.21-.11-.4-.06-.12.11-.16.13a2.42,2.42,0,0,1-1,0c-.28,0-.4,0-.5.16-.19,0-.17-.14-.3-.19-.29-.1-.46.06-.73,0-.08,0-.16-.16-.23-.2s-.48-.05-.7-.16a1.47,1.47,0,0,0-.1-.13H84c-.07,0-.5-.19-.57-.23-.27-.18-.52-.45-.79-.62a8.29,8.29,0,0,1-.93-.52c-.12-.09-.18-.27-.3-.35s-.13,0-.17-.07-.1-.29-.2-.45-.38-.45-.49-.69-.07-.46-.17-.61a.69.69,0,0,0-.1-.17,1.77,1.77,0,0,0-.23,0,1.21,1.21,0,0,0,0,.52v.81a7.94,7.94,0,0,0,.93,1.73c.11.13.31.2.43.32a4.62,4.62,0,0,0,.57.52l.2.07c.07.06,0,.21.13.26a11.62,11.62,0,0,0,1.66,1l.33,0c.06,0,.15.11.2.13l.44,0c.37.11.83.29,1.26.39h.39a4,4,0,0,0,1.4.13h.66c.06,0,.15-.11.2-.13a6.29,6.29,0,0,0,.8-.16s.13-.11.2-.13h.33a1.59,1.59,0,0,0,.13-.13c.23-.09.4,0,.63-.13a1.28,1.28,0,0,0,.54-1.36,2.32,2.32,0,0,0-.44-.62c-.14-.19-.14-.48-.3-.65s-.41-.3-.5-.42,0-.14-.06-.2-.32-.29-.43-.46a5.09,5.09,0,0,0-.67-.91,2.38,2.38,0,0,0-.49-.22h-.34c-.11,0-.24-.14-.36-.2,0-.29.35-.4.56-.55s.14-.15.2-.23.33-.05.57-.13c.05,0,.12-.11.16-.13l.63,0s.14-.09.17-.1a2.91,2.91,0,0,1,1.49.1c.25.06.37-.13.53,0a1,1,0,0,0,.57-.13l0-.39c.09,0,.13,0,.17,0l.13,0C92.92,127.38,92.84,127.32,92.94,127.2Zm-7.73-3.86v.52c0,.22-.09.52-.13.71s0,.32,0,.42c-.16.39-.55,0-.92.13a27.78,27.78,0,0,0-2.76.78c-.22.09-.41,0-.57.17h-.53c0-.21,0-.29.11-.46v-.32c.13-.48.25-1.12.39-1.6v-.26s.12-.11.13-.16,0-.32,0-.42l0-.1c.39.06.85.65,1.06.91.07.09.22.12.3.2a4.89,4.89,0,0,0,.5.52c.1.07.24.08.33.16s.1.16.17.2.12,0,.16,0a.56.56,0,0,0,.3-.13.32.32,0,0,0-.13-.3c0-.24.08-.25.13-.42a5.52,5.52,0,0,1-.4-.55c0-.06-.41-.45-.46-.49l-.13,0v-.1a2.86,2.86,0,0,0-.6-.49c-.25-.11-.9-.08-1.1-.19a.9.9,0,0,1-.06-.49,3.94,3.94,0,0,1,.06-1.2V120c.06-.12.31-.13.44-.2s.28-.22.36-.26h.23l.1-.1.3-.06.3-.29a1.67,1.67,0,0,1,.46-.1c.42-.1.94,0,1.23-.2a.87.87,0,0,1,.67.27,7.25,7.25,0,0,0,.23,1.56l0,.71A6.53,6.53,0,0,1,85.21,123.34Zm-1.3-2.67s0-.13-.09-.16a6.75,6.75,0,0,0-.83-.29,1.86,1.86,0,0,0-.83-.3.44.44,0,0,1-.3.13c0,.06,0,0,0,.07,0,.44.36.53.67.71.11.14.22.26.33.39.32.23.82.25,1.09.52a.46.46,0,0,0,.3-.09c0-.21.07-.58,0-.68S84.05,120.79,83.91,120.67Zm-7,8.87c0-.2-.22-.31-.33-.45h-.1a1.51,1.51,0,0,0-.27.42v.2s-.11.11-.13.16v.32l-.13.14,0,.94c-.24.67-.18,1.87-.4,2.47l0,.39-.1.1,0,.29c-.07.18-.25.37-.3.55a1.06,1.06,0,0,0,.16.85c.1.06.18,0,.24.13s0,.24,0,.36.13.13.17.19c.25,0,.45-.28.53-.46s0-.25,0-.39a5.17,5.17,0,0,0,.07-.74v-.43c.07-.2,0-.5.1-.71v-.36s.11,0,.13-.06l0-.95c0-.14.1-.36.14-.52v-.75a2.43,2.43,0,0,0,.1-1.07C76.79,129.9,77,129.77,76.91,129.54Z"/><path class="cls-3" d="M69.16,88.88c-8.44-7.53-1.08-29.54,16.44-49.17A105.83,105.83,0,0,1,98.48,27.48,126.9,126.9,0,0,0,80.32,44.36C61,66,51.92,89.5,60.08,96.77c6.1,5.45,20.12.28,34.9-11.75C84.13,91.61,74.3,93.47,69.16,88.88Z"/><path class="cls-4" d="M76.47,41.93c22.51-25.22,48.58-38.67,58.25-30,4.36,3.89,3.33,18.31-8.52,38.24,20.41-29.87,17.94-42.44,12.25-47.51C128.78-6,102.71,7.44,80.2,32.66c-12.34,13.84-21,28.34-24.79,40A135.45,135.45,0,0,1,76.47,41.93Z"/><path class="cls-5" d="M108.06,41.65c32.65,18.17,35.44,34.59,33.18,38.75-6.31,11.67-33.08,9.41-59.78-5.05L81,75.11c2.34,1.46,4.78,2.88,7.3,4.25C115,93.81,141.29,97,147,86.48,149.87,81.15,152.76,63.53,108.06,41.65Z"/><path class="cls-6" d="M89.78,71.33c-21-11.35-34-27.85-29.13-36.87C63.19,29.77,70.1,28,79.1,29.07c-13.94-3.76-25.21-2.78-28.61,3.5-5.08,9.37,9.34,27,32.19,39.36,20.32,11,40.47,14.14,48.25,8.11C122.15,83.22,106,80.1,89.78,71.33Z"/><path class="cls-5" d="M106.52,48.06a.6.6,0,0,0-.85-.85.6.6,0,1,0,.85.85ZM98,56.63a.6.6,0,1,0-.85-.85.6.6,0,0,0,.85.85ZM105.57,49a.6.6,0,1,0-.85,0A.59.59,0,0,0,105.57,49Zm-.95,1a.6.6,0,0,0-.85-.85.6.6,0,1,0,.85.85Zm-1,1a.61.61,0,0,0,0-.85.6.6,0,0,0-.86,0,.61.61,0,0,0,0,.85A.62.62,0,0,0,103.67,50.92Zm-1.91,1.9a.6.6,0,1,0-.85,0A.59.59,0,0,0,101.76,52.82Zm.95-1a.6.6,0,0,0-.85-.85.6.6,0,0,0,.85.85Zm3.7-5.83a.45.45,0,0,0,0-.63.45.45,0,1,0-.63.63A.45.45,0,0,0,106.41,46Zm-6.56,8.69a.6.6,0,0,0-.85-.85.6.6,0,0,0,.85.85Zm-.95,1a.6.6,0,0,0-.85-.85.61.61,0,0,0,0,.85A.6.6,0,0,0,98.9,55.68Zm1.91-1.91a.6.6,0,0,0-.85-.85.6.6,0,1,0,.85.85Zm2.66-6.86a.34.34,0,1,0-.48,0A.34.34,0,0,0,103.47,46.91Zm-2.06-.16a.12.12,0,0,0,0-.16.11.11,0,0,0-.17,0,.12.12,0,0,0,0,.16A.14.14,0,0,0,101.41,46.75Zm1.13,1.14a.37.37,0,0,0,0-.53.36.36,0,0,0-.52,0,.37.37,0,0,0,0,.53A.37.37,0,0,0,102.54,47.89Zm-.92,1a.41.41,0,1,0-.58,0A.41.41,0,0,0,101.62,48.87Zm1,1a.54.54,0,0,0,0-.75.53.53,0,0,0-.75.75A.54.54,0,0,0,102.66,49.91Zm-2-.07a.44.44,0,0,0,0-.62.43.43,0,0,0-.61,0,.42.42,0,0,0,0,.62A.43.43,0,0,0,100.68,49.84Zm-.18-2.09a.18.18,0,1,0-.26,0A.19.19,0,0,0,100.5,47.75Zm4.76-2.86a.18.18,0,0,0,0-.25.18.18,0,0,0-.24,0,.18.18,0,0,0,0,.25A.18.18,0,0,0,105.26,44.89ZM103.61,49a.51.51,0,0,0,0-.74.53.53,0,0,0-.75,0,.53.53,0,0,0,0,.74A.53.53,0,0,0,103.61,49Zm.78-3a.29.29,0,0,0,0-.4.27.27,0,0,0-.39,0,.28.28,0,0,0,.4.4ZM105.5,47a.5.5,0,0,0,0-.73.51.51,0,0,0-.72,0,.52.52,0,0,0,0,.73A.51.51,0,0,0,105.5,47Zm-.94,1a.53.53,0,0,0,0-.75.53.53,0,0,0-.74,0,.53.53,0,0,0,0,.75A.51.51,0,0,0,104.56,48ZM97,57.58a.61.61,0,0,0,0-.85.61.61,0,1,0-.86.86A.61.61,0,0,0,97,57.58Zm13.17-9.69a.37.37,0,0,0,0-.5.35.35,0,1,0,0,.5Zm-3.55-.79a.6.6,0,0,0,.86,0,.61.61,0,0,0,0-.85.62.62,0,0,0-.86,0A.61.61,0,0,0,106.62,47.1Zm1.77-1a.55.55,0,0,0,0-.77.54.54,0,1,0,0,.77ZM91.31,65.24a.65.65,0,0,0,0-.91.63.63,0,0,0-.9,0,.65.65,0,0,0,0,.91A.63.63,0,0,0,91.31,65.24Zm16-20.2a.38.38,0,0,0,0-.54.37.37,0,0,0-.53,0,.38.38,0,0,0,0,.54A.37.37,0,0,0,107.31,45Zm-16,17.41a.6.6,0,0,0-.85,0,.6.6,0,0,0,.85.85A.61.61,0,0,0,91.28,62.45Zm-1,.95a.61.61,0,0,0-.86.86.61.61,0,0,0,.86-.86Zm18.24-16.32a.56.56,0,1,0,.79-.79.56.56,0,0,0-.79.79Zm-9,1.65a.23.23,0,1,0-.32,0A.22.22,0,0,0,99.58,48.73ZM110,45.82a.13.13,0,1,0-.19,0A.12.12,0,0,0,110,45.82ZM92.23,62.35a.6.6,0,1,0-.85-.85.6.6,0,0,0,.85.85Zm15.33-15.17a.65.65,0,0,0,0,.91.63.63,0,0,0,.9,0,.65.65,0,0,0,0-.91A.63.63,0,0,0,107.56,47.18ZM96,58.54a.6.6,0,1,0-.85-.85.6.6,0,0,0,.85.85Zm13-13.67a.13.13,0,0,0-.19-.19.13.13,0,0,0,.19.19Zm-13.81,11a.53.53,0,0,0,0,.75.53.53,0,0,0,.75-.75A.53.53,0,0,0,95.24,55.83Zm-.95,1a.53.53,0,0,0,0,.75.53.53,0,0,0,.75,0,.53.53,0,0,0-.75-.75Zm2.86-2.86a.53.53,0,0,0,0,.75.51.51,0,0,0,.74,0,.53.53,0,0,0,0-.75A.53.53,0,0,0,97.15,53.92Zm-1,1a.53.53,0,0,0,0,.74.53.53,0,0,0,.75,0,.51.51,0,0,0,0-.74A.53.53,0,0,0,96.19,54.88Zm-2.86,2.85a.54.54,0,0,0,0,.75.53.53,0,0,0,.75-.75A.54.54,0,0,0,93.33,57.73Zm1.76,1.76a.6.6,0,1,0-.85,0A.59.59,0,0,0,95.09,59.49Zm3-6.52a.53.53,0,0,0,0,.75.53.53,0,0,0,.75-.75A.53.53,0,0,0,98.1,53Zm-4,7.47a.6.6,0,0,0-.85-.85.6.6,0,0,0,.85.85ZM100,51.06a.54.54,0,0,0,0,.75.53.53,0,0,0,.75-.75A.54.54,0,0,0,100,51.06ZM93.18,61.4a.59.59,0,0,0,0-.85.6.6,0,0,0-.85,0,.62.62,0,0,0,0,.86A.61.61,0,0,0,93.18,61.4Zm8.52-10.54a.53.53,0,0,0,0-.75.53.53,0,0,0-.74,0,.53.53,0,0,0,.74.75ZM99.05,52a.53.53,0,0,0,.75.75.53.53,0,0,0-.75-.75Zm-7.83,9.32a.53.53,0,0,0,0-.75.53.53,0,0,0-.74,0,.53.53,0,0,0,0,.75A.51.51,0,0,0,91.22,61.34Zm.16,4a.6.6,0,0,0,0,.86.62.62,0,0,0,.87,0,.62.62,0,0,0,0-.86A.62.62,0,0,0,91.38,65.31Zm-.77,1.14a.34.34,0,0,0,0,.49.35.35,0,0,0,.5,0,.34.34,0,0,0,0-.49A.35.35,0,0,0,90.61,66.45Zm1.92,0a.34.34,0,1,0,.48,0A.34.34,0,0,0,92.53,66.46Zm-3-1.12a.56.56,0,1,0,.79,0A.57.57,0,0,0,89.51,65.34Zm3.85,0a.5.5,0,0,0,0,.73.52.52,0,1,0,0-.73Zm.88-1a.62.62,0,1,0,.87,0A.62.62,0,0,0,94.24,64.36Zm-6.52-.8a.37.37,0,0,0,0,.53.38.38,0,0,0,.54,0,.37.37,0,0,0,0-.53A.38.38,0,0,0,87.72,63.56Zm.18,2.08a.13.13,0,1,0,.19,0A.12.12,0,0,0,87.9,65.64ZM99.73,50.79a.44.44,0,1,0-.62,0A.44.44,0,0,0,99.73,50.79ZM95.52,65.64a.16.16,0,1,0,.22,0A.16.16,0,0,0,95.52,65.64Zm-6.18-1.25a.55.55,0,1,0,0,.78A.56.56,0,0,0,89.34,64.39Zm-.48,2.21a.13.13,0,1,0,.19,0A.12.12,0,0,0,88.86,66.6Zm7.46-2.07a.37.37,0,1,0,.53,0A.37.37,0,0,0,96.32,64.53Zm12.28-14.4a.52.52,0,1,0,.74,0A.53.53,0,0,0,108.6,50.13ZM89.26,63.19a.45.45,0,0,0,0-.63.45.45,0,1,0-.63.63A.45.45,0,0,0,89.26,63.19ZM107.58,51a.62.62,0,1,0,.87,0A.62.62,0,0,0,107.58,51Zm2.1-1.71a.33.33,0,0,0,0,.47.33.33,0,0,0,.48,0,.33.33,0,0,0,0-.47A.34.34,0,0,0,109.68,49.31Zm-1.93,3.79a.39.39,0,0,0,0,.53.38.38,0,0,0,.54,0,.39.39,0,0,0,0-.53A.38.38,0,0,0,107.75,53.1Zm.78-4.94a.6.6,0,0,0,0,.86.62.62,0,0,0,.87,0,.62.62,0,0,0,0-.86A.62.62,0,0,0,108.53,48.16Zm.33,4.14a.16.16,0,1,0,.22,0A.16.16,0,0,0,108.86,52.3Zm-1.29-.4a.73.73,0,0,0-.79-.15.74.74,0,0,0,0-.6.7.7,0,0,0,.82-1.08.67.67,0,1,0,0-1,.68.68,0,0,0,0-.94.71.71,0,0,0-1,0,.68.68,0,0,0,0,.89.68.68,0,0,0-1,1,.68.68,0,0,0-1,.95.68.68,0,0,0-.95,1,.68.68,0,0,0-1,.95.68.68,0,0,0-1,1,.68.68,0,0,0-.95,1,.68.68,0,0,0-1,.95.68.68,0,0,0-1,1,.68.68,0,0,0-1,1,.68.68,0,0,0-1,1,.68.68,0,0,0-1,.95.68.68,0,0,0-1,1,.68.68,0,0,0-.95,1,.68.68,0,0,0-1,.95.69.69,0,0,0-.9.06.67.67,0,0,0,0,.89.69.69,0,0,0-.9,1,.68.68,0,0,0,.94,0,.67.67,0,0,0,1,.92.66.66,0,0,0,.05-.89.7.7,0,0,0,.93,0,.71.71,0,0,0,.15-.78.7.7,0,0,0,.6,0,.71.71,0,0,0,1.16.78.7.7,0,0,0,.14-.8.72.72,0,0,0,.83-.14.71.71,0,0,0,.17-.73.78.78,0,0,0,.82-.18.77.77,0,0,0,.19-.76.77.77,0,0,0,.69-.14.59.59,0,0,0,0,.77.61.61,0,0,0,.85,0,.6.6,0,0,0,0-.84.58.58,0,0,0-.77-.05.8.8,0,0,0,.13-.7.78.78,0,0,0,.73-.16.58.58,0,0,0,0,.79.59.59,0,0,0,.82,0,.6.6,0,0,0,0-.83.58.58,0,0,0-.79,0,.81.81,0,0,0,.17-.73.74.74,0,0,0,.58-.06.66.66,0,0,0,.12.73.64.64,0,0,0,.91-.91.61.61,0,0,0-.72-.12.81.81,0,0,0,.06-.59.8.8,0,0,0,.59-.06.61.61,0,0,0,.12.72.65.65,0,0,0,.91,0,.63.63,0,0,0,0-.9.63.63,0,0,0-.75-.11.75.75,0,0,0,.08-.6.82.82,0,0,0,.61-.09.64.64,0,0,0,.1.75.64.64,0,0,0,.91-.91.66.66,0,0,0-.73-.12A.76.76,0,0,0,103,57a.77.77,0,0,0,.73-.16.58.58,0,0,0,0,.79.59.59,0,0,0,.82,0,.58.58,0,0,0-.79-.85A.78.78,0,0,0,104,56a.76.76,0,0,0,.69-.14.59.59,0,0,0,0,.77.59.59,0,0,0,.84-.84.59.59,0,0,0-.77,0,.76.76,0,0,0,.14-.69.77.77,0,0,0,.94-1,.73.73,0,0,0,.74-.17.75.75,0,0,0,.13-.84.7.7,0,0,0,.81-.13A.73.73,0,0,0,107.57,51.9ZM92.33,64.28a.68.68,0,0,0,0-.85.69.69,0,0,0,.79,0,.69.69,0,0,0,0,.82A.68.68,0,0,0,92.33,64.28ZM94,63.19a.71.71,0,0,0-.66.06.68.68,0,0,0,0-.78.69.69,0,0,0,.69.09A.77.77,0,0,0,94,63.19Zm1-1a.72.72,0,0,0-.59,0,.72.72,0,0,0-.09-.69.7.7,0,0,0,.72.07A.74.74,0,0,0,94.94,62.19Zm.28-1.62a.69.69,0,0,0,.65.09.83.83,0,0,0,0,.58.73.73,0,0,0-.56,0A.69.69,0,0,0,95.22,60.57Zm.13,2.62a.78.78,0,0,0,0-.58.7.7,0,0,0,.55,0,.76.76,0,0,0,0,.61A.73.73,0,0,0,95.35,63.19Zm.93-1a.67.67,0,0,0,0-.52.76.76,0,0,0,.47,0,.84.84,0,0,0,0,.47A.72.72,0,0,0,96.28,62.23Zm.51-2a.8.8,0,0,0-.53,0,.69.69,0,0,0-.09-.65.69.69,0,0,0,.65.09A.77.77,0,0,0,96.79,60.23Zm.54,1a.82.82,0,0,0,0-.41.85.85,0,0,0,.42,0,.72.72,0,0,0,0,.41A.81.81,0,0,0,97.33,61.18Zm.41-1.9a.8.8,0,0,0-.53,0,.71.71,0,0,0-.09-.66.67.67,0,0,0,.65.1A.77.77,0,0,0,97.74,59.28Zm.54.95a.72.72,0,0,0,0-.41.85.85,0,0,0,.42,0,.75.75,0,0,0,0,.42A.85.85,0,0,0,98.28,60.23Zm.41-1.9a.77.77,0,0,0-.52,0,.69.69,0,0,0-.09-.65.69.69,0,0,0,.65.09A.8.8,0,0,0,98.69,58.33Zm.55,1a.81.81,0,0,0,0-.41.81.81,0,0,0,.41,0,.81.81,0,0,0,0,.41A.81.81,0,0,0,99.24,59.28Zm.4-1.91a.85.85,0,0,0-.52,0,.69.69,0,0,0-.09-.65.69.69,0,0,0,.65.09A.78.78,0,0,0,99.64,57.37Zm.55,1a.82.82,0,0,0,0-.41.82.82,0,0,0,.41,0,.82.82,0,0,0,0,.41A.81.81,0,0,0,100.19,58.32Zm.41-1.9a.84.84,0,0,0-.52,0,.67.67,0,0,0-.1-.64.73.73,0,0,0,.64.1A.74.74,0,0,0,100.6,56.42Zm1,1a.75.75,0,0,0-.42,0,.85.85,0,0,0,0-.42.72.72,0,0,0,.41,0A.75.75,0,0,0,101.55,57.38Zm0-1.91a.77.77,0,0,0-.52,0,.67.67,0,0,0-.1-.65.73.73,0,0,0,.65.1A.77.77,0,0,0,101.55,55.47Zm.54,1a.72.72,0,0,0,0-.41.81.81,0,0,0,.41,0,.81.81,0,0,0,0,.41A1,1,0,0,0,102.09,56.42Zm.41-1.9a.78.78,0,0,0-.52,0,.69.69,0,0,0-.09-.65.69.69,0,0,0,.65.09A.8.8,0,0,0,102.5,54.52Zm.55.94a.82.82,0,0,0,0-.41.81.81,0,0,0,.41,0,.81.81,0,0,0,0,.41A1,1,0,0,0,103.05,55.46Zm.41-1.9a.8.8,0,0,0-.53,0,.69.69,0,0,0-.09-.65.69.69,0,0,0,.65.09A.77.77,0,0,0,103.46,53.56Zm.54.95a.82.82,0,0,0,0-.41.85.85,0,0,0,.42,0,.72.72,0,0,0,0,.41A.81.81,0,0,0,104,54.51Zm.47-1.89a.8.8,0,0,0-.59,0,.7.7,0,0,0-.09-.65.7.7,0,0,0,.72.07A.73.73,0,0,0,104.47,52.62Zm.34-.86a.7.7,0,0,0-.07-.72.69.69,0,0,0,.69.08.78.78,0,0,0,0,.6A.74.74,0,0,0,104.81,51.76Zm.61,1.82a.75.75,0,0,0-.47,0,.76.76,0,0,0,0-.47.77.77,0,0,0,.52,0A.77.77,0,0,0,105.42,53.58Zm.4-.88a.75.75,0,0,0,0-.55.8.8,0,0,0,.59,0,.69.69,0,0,0,0,.58A.72.72,0,0,0,105.82,52.7Zm.59-1.93a.73.73,0,0,0-.63,0,.69.69,0,0,0-.08-.69.69.69,0,0,0,.78,0A.71.71,0,0,0,106.41,50.77Zm.26-.85a.68.68,0,0,0,0-.78.71.71,0,0,0,.86,0,.66.66,0,0,0,0,.84A.69.69,0,0,0,106.67,49.92ZM97.19,63.5a.49.49,0,0,0,0,.69.5.5,0,0,0,.7,0,.49.49,0,0,0,0-.69A.48.48,0,0,0,97.19,63.5Zm.92-1a.53.53,0,0,0,0,.77.54.54,0,0,0,.76,0,.53.53,0,0,0,0-.77A.52.52,0,0,0,98.11,62.51Zm7.62-7.63a.55.55,0,0,0,0,.77.53.53,0,0,0,.77,0,.54.54,0,1,0-.77-.77Zm1-.91a.49.49,0,0,0,0,.69.49.49,0,0,0,.69-.69A.49.49,0,0,0,106.72,54ZM88.11,62a.18.18,0,0,0,0-.24.17.17,0,0,0-.24.24A.18.18,0,0,0,88.11,62Zm6.77-8.48a.32.32,0,1,0-.45,0A.33.33,0,0,0,94.88,53.56Zm1,1a.44.44,0,1,0-.62,0A.44.44,0,0,0,95.92,54.6Zm-.09-2a.32.32,0,1,0-.45,0A.33.33,0,0,0,95.83,52.61ZM94,56.51a.44.44,0,0,0,0-.62.43.43,0,0,0-.61,0,.42.42,0,0,0,0,.62A.43.43,0,0,0,94,56.51Zm2.86-2.86a.44.44,0,1,0-.62,0A.44.44,0,0,0,96.87,53.65Zm-3,.86a.31.31,0,0,0-.44-.44.31.31,0,0,0,0,.44A.3.3,0,0,0,93.92,54.51Zm1,1a.43.43,0,0,0,0-.61.44.44,0,0,0-.62.62A.43.43,0,0,0,95,55.55Zm3.81-3.81a.44.44,0,0,0,0-.62.46.46,0,0,0-.62,0,.44.44,0,0,0,.62.62Zm-.12-2a.28.28,0,1,0-.39,0A.29.29,0,0,0,98.66,49.72Zm-.84,3a.42.42,0,0,0,0-.62.43.43,0,0,0-.61,0,.44.44,0,0,0,0,.62A.43.43,0,0,0,97.82,52.7Zm-1-1.05a.31.31,0,0,0-.44-.44.31.31,0,0,0,.44.44Zm1-.95a.31.31,0,0,0,0-.44.31.31,0,0,0-.45,0,.31.31,0,0,0,0,.44A.33.33,0,0,0,97.74,50.7ZM91,57.28a.18.18,0,1,0-.26,0A.19.19,0,0,0,91,57.28Zm.14,2a.37.37,0,0,0,0-.53.37.37,0,0,0-.53.53A.37.37,0,0,0,91.11,59.32ZM90,58.18a.11.11,0,1,0-.16,0A.1.1,0,0,0,90,58.18Zm.29,4.1a.51.51,0,0,0,0-.72.52.52,0,0,0-.73,0,.53.53,0,0,0,0,.72A.52.52,0,0,0,90.26,62.28Zm-.13-2a.34.34,0,0,0,0-.48.33.33,0,0,0-.47,0,.34.34,0,0,0,0,.48A.33.33,0,0,0,90.13,60.25Zm-1,.91a.27.27,0,0,0,0-.39.27.27,0,0,0-.4,0,.27.27,0,0,0,0,.39A.28.28,0,0,0,89.14,61.16Zm3.92-3.7a.44.44,0,1,0-.62,0A.44.44,0,0,0,93.06,57.46Zm.07,2a.53.53,0,0,0,0-.74.53.53,0,0,0-.75,0,.53.53,0,0,0,0,.74A.53.53,0,0,0,93.13,59.43Zm-.19-4a.26.26,0,0,0,0-.38.28.28,0,0,0-.38,0,.27.27,0,0,0,.38.38Zm-.76,5a.54.54,0,0,0,0-.75.53.53,0,0,0-.75.75A.54.54,0,0,0,92.18,60.39Zm-.09-2a.41.41,0,0,0-.58-.58.41.41,0,0,0,.58.58Zm-.14-2A.22.22,0,0,0,92,56a.24.24,0,0,0-.33,0,.23.23,0,1,0,.32.32Z"/></g></g></svg>