<svg xmlns="http://www.w3.org/2000/svg" xmlns:xlink="http://www.w3.org/1999/xlink" viewBox="0 0 47.9 54"><defs><style>.cls-1{fill:none;}.cls-2{clip-path:url(#clip-path);}.cls-3{fill:#fff;}.cls-3,.cls-6{fill-rule:evenodd;}.cls-4{fill:#1d1d1b;}.cls-5{fill:#156bff;}.cls-6,.cls-7{fill:#ff6c33;}</style><clipPath id="clip-path" transform="translate(-3.05)"><rect class="cls-1" width="54" height="54"/></clipPath></defs><title>icon-招生计划</title><g id="图层_2" data-name="图层 2"><g id="图层_1-2" data-name="图层 1"><g class="cls-2"><path class="cls-3" d="M46.87,38.68l-.1,0L7.13,15.77a.21.21,0,0,1-.07-.28.2.2,0,0,1,.28-.07L47,38.3a.2.2,0,0,1-.1.38Z" transform="translate(-3.05)"/><path class="cls-4" d="M46.87,39.11a.59.59,0,0,1-.31-.09L6.92,16.14a.66.66,0,0,1-.29-.38.63.63,0,0,1,.07-.48.64.64,0,0,1,.85-.23L47.18,37.93a.64.64,0,0,1,.23.86A.62.62,0,0,1,46.87,39.11Z" transform="translate(-3.05)"/><path class="cls-3" d="M27.06,50.12a.18.18,0,0,1-.18-.1L7.06,15.7a.21.21,0,0,1,.07-.28.21.21,0,0,1,.29.07L27.23,49.82a.2.2,0,0,1-.07.28A.2.2,0,0,1,27.06,50.12Z" transform="translate(-3.05)"/><path class="cls-4" d="M27.06,50.55a.62.62,0,0,1-.55-.32L6.69,15.91a.63.63,0,0,1,.24-.86.64.64,0,0,1,.85.23L27.6,49.61a.62.62,0,0,1-.23.85A.56.56,0,0,1,27.06,50.55Z" transform="translate(-3.05)"/><path class="cls-4" d="M47.48,15.54v-.11l0-.07a.26.26,0,0,0,0-.08l0,0a.39.39,0,0,0-.08-.1l-.08-.06s0,0,0,0h0L27.37,3.61h0l-.11,0h-.17a.39.39,0,0,0-.3.08h0L6.93,15.05a.62.62,0,0,0-.32.55V38.48a0,0,0,0,0,0,0,.28.28,0,0,0,0,.09v0a.16.16,0,0,0,0,.07s0,.06,0,.08l0,0h0a.58.58,0,0,0,.19.19h0L26.74,50.46h0a.68.68,0,0,0,.28.07h0a.56.56,0,0,0,.31-.09L47.17,39h0a.67.67,0,0,0,.21-.2l0-.08a.33.33,0,0,0,.06-.1.41.41,0,0,0,0-.11s0,0,0-.05V15.6S47.48,15.56,47.48,15.54Zm-1.86.06-8.43,4.86L28.77,5.87ZM27.68,27.4l9-5.23L39.54,27,27.68,47.58Zm10.14-5.85,7.33-4.24-4.89,8.47Zm-1.72-.46L27.68,26V6.49Zm-9.67,5.58L9,36.76,26.43,6.5ZM7.87,16,25.34,5.87,7.87,36.13Zm.62,22.52L26.43,28.12V48.83ZM28.77,48.2l11.5-19.91,5.74,10ZM41,27l5.25-9.1v18.2Z" transform="translate(-3.05)"/><path class="cls-3" d="M30.75,4.08A3.66,3.66,0,1,1,27.09.42,3.66,3.66,0,0,1,30.75,4.08Z" transform="translate(-3.05)"/><path class="cls-4" d="M27.09,8.16a4.08,4.08,0,1,1,4.08-4.08A4.08,4.08,0,0,1,27.09,8.16Zm0-7.32a3.24,3.24,0,1,0,3.24,3.24A3.25,3.25,0,0,0,27.09.84Z" transform="translate(-3.05)"/><path class="cls-3" d="M10.9,15.6a3.66,3.66,0,1,1-3.66-3.67A3.66,3.66,0,0,1,10.9,15.6Z" transform="translate(-3.05)"/><path class="cls-4" d="M7.24,19.68a4.09,4.09,0,1,1,4.08-4.08A4.09,4.09,0,0,1,7.24,19.68Zm0-7.32a3.24,3.24,0,1,0,3.24,3.24A3.24,3.24,0,0,0,7.24,12.36Z" transform="translate(-3.05)"/><path class="cls-3" d="M10.79,38.53a3.66,3.66,0,1,1-3.66-3.67A3.66,3.66,0,0,1,10.79,38.53Z" transform="translate(-3.05)"/><path class="cls-4" d="M7.13,42.61a4.09,4.09,0,1,1,4.08-4.08A4.08,4.08,0,0,1,7.13,42.61Zm0-7.32a3.24,3.24,0,1,0,3.24,3.24A3.24,3.24,0,0,0,7.13,35.29Z" transform="translate(-3.05)"/><path class="cls-3" d="M30.71,49.92a3.66,3.66,0,1,1-3.65-3.66A3.65,3.65,0,0,1,30.71,49.92Z" transform="translate(-3.05)"/><path class="cls-4" d="M27.06,54a4.08,4.08,0,1,1,4.07-4.08A4.09,4.09,0,0,1,27.06,54Zm0-7.32a3.24,3.24,0,1,0,3.23,3.24A3.25,3.25,0,0,0,27.06,46.68Z" transform="translate(-3.05)"/><path class="cls-3" d="M50.5,38.51a3.66,3.66,0,1,1-3.66-3.66A3.66,3.66,0,0,1,50.5,38.51Z" transform="translate(-3.05)"/><path class="cls-4" d="M46.84,42.59a4.08,4.08,0,1,1,4.08-4.08A4.08,4.08,0,0,1,46.84,42.59Zm0-7.32a3.24,3.24,0,1,0,3.24,3.24A3.25,3.25,0,0,0,46.84,35.27Z" transform="translate(-3.05)"/><path class="cls-3" d="M50.53,15.6a3.66,3.66,0,1,1-3.66-3.67A3.66,3.66,0,0,1,50.53,15.6Z" transform="translate(-3.05)"/><path class="cls-4" d="M46.87,19.68A4.09,4.09,0,1,1,51,15.6,4.08,4.08,0,0,1,46.87,19.68Zm0-7.32a3.24,3.24,0,1,0,3.24,3.24A3.24,3.24,0,0,0,46.87,12.36Z" transform="translate(-3.05)"/><path class="cls-5" d="M27.13,47.42a2.5,2.5,0,1,0,2.5,2.5A2.51,2.51,0,0,0,27.13,47.42Z" transform="translate(-3.05)"/><path class="cls-5" d="M27.09,1.58a2.5,2.5,0,1,0,2.5,2.5A2.5,2.5,0,0,0,27.09,1.58Z" transform="translate(-3.05)"/><path class="cls-5" d="M46.87,13.13a2.5,2.5,0,1,0,2.5,2.5A2.5,2.5,0,0,0,46.87,13.13Z" transform="translate(-3.05)"/><path class="cls-5" d="M7.13,13.13a2.5,2.5,0,1,0,2.51,2.5A2.5,2.5,0,0,0,7.13,13.13Z" transform="translate(-3.05)"/><path class="cls-5" d="M46.84,36a2.5,2.5,0,1,0,2.51,2.5A2.5,2.5,0,0,0,46.84,36Z" transform="translate(-3.05)"/><path class="cls-5" d="M7.13,36a2.51,2.51,0,1,0,2.5,2.51A2.5,2.5,0,0,0,7.13,36Z" transform="translate(-3.05)"/><path class="cls-3" d="M26.67,31.91h2.15v-7H24.57v7Z" transform="translate(-3.05)"/><path class="cls-4" d="M28.82,32.34H24.57a.42.42,0,0,1-.42-.43v-7a.42.42,0,0,1,.42-.42h4.25a.42.42,0,0,1,.42.42v7A.42.42,0,0,1,28.82,32.34ZM25,31.49H28.4V25.3H25Z" transform="translate(-3.05)"/><path class="cls-3" d="M26.67,29.91l-2.1-2.14s-4.71,1.72-6.2,2.51A2.28,2.28,0,0,0,17,32.23c-.23,1.22-.55,3.73-.74,5.51H37.14c-.2-1.78-.52-4.29-.74-5.51A2.3,2.3,0,0,0,35,30.28c-1.49-.79-6.2-2.51-6.2-2.51Z" transform="translate(-3.05)"/><path class="cls-4" d="M37.16,38.16H16.26a.41.41,0,0,1-.42-.47c.2-1.82.52-4.31.74-5.53a2.72,2.72,0,0,1,1.59-2.25c1.5-.8,6.06-2.47,6.26-2.54a.43.43,0,0,1,.44.11l1.81,1.83,1.84-1.84a.45.45,0,0,1,.44-.1c.2.07,4.76,1.74,6.26,2.54a2.7,2.7,0,0,1,1.59,2.25c.23,1.22.54,3.66.73,5.41a.33.33,0,0,1,0,.17A.42.42,0,0,1,37.16,38.16Zm-20.43-.84H36.67c-.19-1.7-.48-3.89-.69-5a1.87,1.87,0,0,0-1.15-1.66c-1.26-.66-4.91-2-5.9-2.39L27,30.2c-.08.09-.19.18-.3.13a.43.43,0,0,1-.3-.13l-1.91-1.94c-1,.37-4.64,1.73-5.89,2.39a1.88,1.88,0,0,0-1.16,1.66C17.21,33.41,16.92,35.57,16.73,37.32Z" transform="translate(-3.05)"/><path class="cls-3" d="M26.67,37.74H37.14c-.2-1.78-.52-4.29-.74-5.51A2.3,2.3,0,0,0,35,30.28c-1.49-.79-6.2-2.51-6.2-2.51l-2.15,2.14Z" transform="translate(-3.05)"/><path class="cls-4" d="M37.14,38.16H26.67a.42.42,0,0,1-.42-.42V29.91a.42.42,0,0,1,.13-.3l2.14-2.14a.45.45,0,0,1,.44-.1c.2.07,4.76,1.74,6.26,2.54a2.7,2.7,0,0,1,1.59,2.25c.23,1.25.56,3.78.75,5.53a.44.44,0,0,1-.11.33A.41.41,0,0,1,37.14,38.16Zm-10-.84h9.58c-.19-1.7-.48-3.89-.69-5a1.87,1.87,0,0,0-1.15-1.66c-1.26-.66-4.91-2-5.9-2.39l-1.84,1.82Z" transform="translate(-3.05)"/><path class="cls-3" d="M33.63,35.4a.1.1,0,0,0-.1-.08.09.09,0,0,0-.07.1l.25,2.32h.18Z" transform="translate(-3.05)"/><path class="cls-4" d="M33.89,38.16h-.18a.41.41,0,0,1-.41-.37L33,35.47a.51.51,0,0,1,.45-.57h0a.52.52,0,0,1,.55.47l.25,2.32a.4.4,0,0,1-.1.33A.41.41,0,0,1,33.89,38.16Z" transform="translate(-3.05)"/><path class="cls-3" d="M23,23.14c-1.65-1.51-1.41-3.07-1-3s.7.76.7.76A4.32,4.32,0,0,1,23,23.14Z" transform="translate(-3.05)"/><path class="cls-4" d="M23,23.56a.44.44,0,0,1-.29-.11c-1.41-1.29-1.57-2.64-1.34-3.24a.65.65,0,0,1,.74-.45c.6.14.93.86,1,1a4.73,4.73,0,0,1,.31,2.47.44.44,0,0,1-.29.3Zm-.88-2.81A2.36,2.36,0,0,0,22.63,22a4.89,4.89,0,0,0-.27-.94A1.45,1.45,0,0,0,22.16,20.75Z" transform="translate(-3.05)"/><path class="cls-3" d="M30.37,23.14c1.64-1.51,1.41-3.07,1-3s-.7.76-.7.76A4.32,4.32,0,0,0,30.37,23.14Z" transform="translate(-3.05)"/><path class="cls-4" d="M30.37,23.56l-.12,0a.42.42,0,0,1-.29-.3,4.62,4.62,0,0,1,.31-2.47c.06-.15.38-.87,1-1a.65.65,0,0,1,.74.45c.23.6.06,1.95-1.35,3.24A.43.43,0,0,1,30.37,23.56Zm.88-2.82a3,3,0,0,0-.21.35,5.79,5.79,0,0,0-.26.94A2.43,2.43,0,0,0,31.25,20.74Z" transform="translate(-3.05)"/><path class="cls-3" d="M28.36,16.71A10.14,10.14,0,0,1,27,16.14h-.63a10.14,10.14,0,0,1-1.35.57c-1.46.55-2.93,1.3-2.93,1.3.22,1.28.71,6.45,1.56,7.61,2.75,2.13,3.43,2.05,6.08,0,1.22-2.28,1.39-6.6,1.55-7.57v0h0S29.82,17.26,28.36,16.71Z" transform="translate(-3.05)"/><path class="cls-4" d="M26.72,27.61h0c-1,0-1.92-.59-3.31-1.66l-.08-.08c-.68-.93-1.1-3.78-1.47-6.61-.07-.51-.12-.92-.16-1.18a.44.44,0,0,1,.22-.45c.06,0,1.51-.77,3-1.32l.22-.08a9.57,9.57,0,0,0,1-.43.43.43,0,0,1,.24-.08H27a.41.41,0,0,1,.24.08,10.52,10.52,0,0,0,1,.43l.22.08a31.82,31.82,0,0,1,3,1.32.42.42,0,0,1,.22.48c0,.23-.06.54-.1.93-.16,1.71-.47,4.88-1.49,6.78A.69.69,0,0,1,30,26C28.58,27.05,27.68,27.61,26.72,27.61ZM24,25.33c1.18.91,2,1.43,2.74,1.43h0c.72,0,1.48-.47,2.7-1.42.9-1.75,1.2-4.76,1.35-6.38,0-.28,0-.52.07-.71-.48-.24-1.56-.75-2.61-1.15L28,17c-.48-.19-.86-.33-1.09-.45h-.41a10.68,10.68,0,0,1-1.1.45l-.21.08c-1.05.4-2.13.91-2.61,1.15,0,.24.07.55.12.91C22.91,20.87,23.37,24.41,24,25.33Z" transform="translate(-3.05)"/><path class="cls-6" d="M22.65,21a13.07,13.07,0,0,0,.49-3.13,5.55,5.55,0,0,0,2,.84c1.48.39,3.86,0,4.79-1a3.82,3.82,0,0,0,.79,3.3,7.39,7.39,0,0,0,.9-2.69c.3-1.77-.71-2-.71-2,.29-1.49-2.23-2.52-5-2.21s-3.39,2.1-3.39,2.1c-.43,0-1,.5-1.05,1.8A4.27,4.27,0,0,0,22.65,21Z" transform="translate(-3.05)"/><path class="cls-7" d="M22.65,21.4a.42.42,0,0,1-.3-.12A4.78,4.78,0,0,1,21,18c0-1.33.61-2,1.17-2.16a4.32,4.32,0,0,1,3.64-2.15C28.09,13.4,30.13,14,31,15A1.64,1.64,0,0,1,31.37,16c.39.26.93.88.69,2.33a7.55,7.55,0,0,1-1,2.85.45.45,0,0,1-.31.19.43.43,0,0,1-.34-.13,3.79,3.79,0,0,1-1-2.67,6.63,6.63,0,0,1-3,.67,5.55,5.55,0,0,1-1.4-.16,8.33,8.33,0,0,1-1.54-.55,12.58,12.58,0,0,1-.46,2.56.42.42,0,0,1-.31.28ZM30,17.25a.46.46,0,0,1,.2.05.41.41,0,0,1,.21.47,3.72,3.72,0,0,0,.31,2.41,8.84,8.84,0,0,0,.56-2c.22-1.32-.39-1.52-.41-1.53a.43.43,0,0,1-.31-.49.77.77,0,0,0-.2-.69c-.63-.78-2.47-1.23-4.36-1-2.47.28-3,1.76-3,1.82a.45.45,0,0,1-.36.29c-.22,0-.63.34-.67,1.39A3.82,3.82,0,0,0,22.45,20a16.16,16.16,0,0,0,.27-2.2.44.44,0,0,1,.26-.37.42.42,0,0,1,.43.07,5.91,5.91,0,0,0,1.86.76,5.26,5.26,0,0,0,1.18.13,4.62,4.62,0,0,0,3.19-1A.43.43,0,0,1,30,17.25Z" transform="translate(-3.05)"/><path class="cls-3" d="M26.67,35.41l3.42-7.17-1.27-.47-2.15,1.92-2.1-1.92s-.62.22-1.47.55Z" transform="translate(-3.05)"/><path class="cls-4" d="M26.67,35.83a.41.41,0,0,1-.37-.23l-3.58-7.09a.45.45,0,0,1,0-.34.45.45,0,0,1,.25-.24l1.48-.56a.43.43,0,0,1,.43.09l1.82,1.66,1.86-1.66a.41.41,0,0,1,.42-.09l1.28.48a.42.42,0,0,1,.24.23.4.4,0,0,1,0,.34l-3.42,7.17A.52.52,0,0,1,26.67,35.83Zm-3-7.28,3,5.91,2.85-6-.6-.23L27,30a.41.41,0,0,1-.56,0l-1.91-1.75Z" transform="translate(-3.05)"/><path class="cls-6" d="M27,29.61l.62.52-.58.73.52,2.67-.9,1.88-.86-1.71.56-2.84-.58-.73.62-.52Z" transform="translate(-3.05)"/><path class="cls-7" d="M26.67,35.83a.41.41,0,0,1-.37-.23l-.87-1.71a.42.42,0,0,1,0-.27L25.92,31l-.46-.58a.43.43,0,0,1,.06-.59l.62-.51a.43.43,0,0,1,.27-.1H27a.45.45,0,0,1,.27.1l.62.51a.43.43,0,0,1,.06.59L27.5,31,28,33.44a.42.42,0,0,1,0,.27l-.9,1.88A.52.52,0,0,1,26.67,35.83Zm-.42-2.19.41.82.47-1-.42-2.15Z" transform="translate(-3.05)"/><path class="cls-3" d="M28.82,27.77l-2.15,1.92,2,1.4,1.37-2.85-1.27-.47Zm-5.72.55c.85-.33,1.47-.55,1.47-.55l2.1,1.92-2.19,1.4L23.1,28.32Z" transform="translate(-3.05)"/><path class="cls-4" d="M24.48,31.51h-.12a.41.41,0,0,1-.26-.22l-1.38-2.77a.45.45,0,0,1,0-.34.42.42,0,0,1,.25-.24l1.48-.56a.43.43,0,0,1,.43.09l1.82,1.66,1.86-1.66a.41.41,0,0,1,.42-.09l1.28.48a.41.41,0,0,1,.24.24.38.38,0,0,1,0,.33L29.1,31.27a.45.45,0,0,1-.27.22.46.46,0,0,1-.35,0L26.66,30.2l-2,1.25A.4.4,0,0,1,24.48,31.51Zm-.8-3,1,1.94L26,29.63l-1.5-1.38Zm3.67,1.1,1.2.81,1-2-.6-.23Z" transform="translate(-3.05)"/><path class="cls-3" d="M20.16,37.74l.26-2.33s0-.09-.07-.09a.09.09,0,0,0-.1.08L20,37.74Z" transform="translate(-3.05)"/><path class="cls-4" d="M20.16,38.16H20a.41.41,0,0,1-.31-.14.4.4,0,0,1-.1-.33l.25-2.34a.51.51,0,0,1,.51-.45.52.52,0,0,1,.5.57l-.26,2.31A.42.42,0,0,1,20.16,38.16Z" transform="translate(-3.05)"/><path class="cls-3" d="M26.67,35.41l-3-7.32-1.39.52,0,1.13.82.33-.44.75Z" transform="translate(-3.05)"/><path class="cls-4" d="M26.67,35.83a.43.43,0,0,1-.32-.14l-3.94-4.6a.44.44,0,0,1,0-.49l.19-.32-.37-.15a.41.41,0,0,1-.26-.38l0-1.13a.4.4,0,0,1,.27-.4l1.39-.53a.42.42,0,0,1,.54.24l2.95,7.32a.41.41,0,0,1-.17.52A.43.43,0,0,1,26.67,35.83Zm-3.42-5.06,2.07,2.42-1.84-4.57-.73.28,0,.55.56.23a.44.44,0,0,1,.24.26.43.43,0,0,1,0,.35Z" transform="translate(-3.05)"/><path class="cls-3" d="M26.67,35.41l3-7.32,1.34.5,0,1.15-.82.33.44.75Z" transform="translate(-3.05)"/><path class="cls-4" d="M26.67,35.83a.46.46,0,0,1-.22-.06.43.43,0,0,1-.17-.52l3-7.32a.43.43,0,0,1,.54-.24l1.34.51a.41.41,0,0,1,.27.4l0,1.15a.4.4,0,0,1-.26.38l-.37.15.19.32a.44.44,0,0,1,0,.49L27,35.69A.43.43,0,0,1,26.67,35.83Zm3.24-7.21-1.86,4.53,2-2.38-.28-.48a.4.4,0,0,1,0-.35.44.44,0,0,1,.24-.26l.57-.23v-.57Z" transform="translate(-3.05)"/></g></g></g></svg>