<svg xmlns="http://www.w3.org/2000/svg" xmlns:xlink="http://www.w3.org/1999/xlink" viewBox="0 0 50.86 38.82"><defs><style>.cls-1{fill:none;}.cls-2{clip-path:url(#clip-path);}.cls-3{fill:#fff;fill-rule:evenodd;}.cls-4{fill:#1d1d1b;}.cls-5{fill:#ff6c33;}.cls-6{fill:#156bff;}</style><clipPath id="clip-path" transform="translate(-1.57 -7.59)"><rect class="cls-1" width="54" height="54"/></clipPath></defs><title>icon-历年分数</title><g id="图层_2" data-name="图层 2"><g id="图层_1-2" data-name="图层 1"><g class="cls-2"><path class="cls-3" d="M11.67,45.89H3.23V33.37h8.44Z" transform="translate(-1.57 -7.59)"/><path class="cls-4" d="M11.67,46.41H3.23a.52.52,0,0,1-.52-.52V33.37a.52.52,0,0,1,.52-.53h8.44a.52.52,0,0,1,.52.53V45.89A.52.52,0,0,1,11.67,46.41Zm-7.92-1h7.4V33.89H3.75Z" transform="translate(-1.57 -7.59)"/><path class="cls-3" d="M21.73,45.89H13.29v-22h8.44Z" transform="translate(-1.57 -7.59)"/><path class="cls-4" d="M21.73,46.41H13.29a.52.52,0,0,1-.52-.52v-22a.52.52,0,0,1,.52-.52h8.44a.52.52,0,0,1,.52.52v22A.52.52,0,0,1,21.73,46.41Zm-7.92-1h7.4V24.44h-7.4Z" transform="translate(-1.57 -7.59)"/><path class="cls-3" d="M31.79,45.89H23.35V28h8.44Z" transform="translate(-1.57 -7.59)"/><path class="cls-4" d="M31.79,46.41H23.35a.52.52,0,0,1-.52-.52V28a.52.52,0,0,1,.52-.52h8.44a.52.52,0,0,1,.52.52v17.9A.52.52,0,0,1,31.79,46.41Zm-7.92-1h7.4V28.51h-7.4Z" transform="translate(-1.57 -7.59)"/><path class="cls-3" d="M41.85,45.89H33.41v-23h8.44Z" transform="translate(-1.57 -7.59)"/><path class="cls-4" d="M41.85,46.41H33.41a.52.52,0,0,1-.52-.52v-23a.52.52,0,0,1,.52-.53h8.44a.52.52,0,0,1,.52.53v23A.52.52,0,0,1,41.85,46.41Zm-7.92-1h7.39V23.44H33.93Z" transform="translate(-1.57 -7.59)"/><path class="cls-3" d="M51.91,45.89H43.47V18.6h8.44Z" transform="translate(-1.57 -7.59)"/><path class="cls-4" d="M51.91,46.41H43.47a.52.52,0,0,1-.52-.52V18.6a.52.52,0,0,1,.52-.52h8.44a.52.52,0,0,1,.52.52V45.89A.52.52,0,0,1,51.91,46.41Zm-7.92-1h7.39V19.12H44Z" transform="translate(-1.57 -7.59)"/><path class="cls-5" d="M51.79,7.85a.51.51,0,0,0-.48-.26l-7.76.56a.55.55,0,0,0-.43.29.52.52,0,0,0,0,.51l.9,1.47L29,19.06l-9.29-4.59a.51.51,0,0,0-.53,0L1.79,26.74a.53.53,0,0,0-.16.67l1.14,2.11a.52.52,0,0,0,.34.26l.12,0a.54.54,0,0,0,.3-.1L19.71,18.33l9.14,4.53a.52.52,0,0,0,.5,0L46,13.16l1.37,1.15a.52.52,0,0,0,.42.11.5.5,0,0,0,.36-.24l3.6-5.79A.52.52,0,0,0,51.79,7.85Z" transform="translate(-1.57 -7.59)"/><path class="cls-6" d="M50.4,20.1H45c-.18,0-.33.2-.33.45v23.8c0,.26.15.46.33.46H50.4c.19,0,.34-.2.34-.46V20.55C50.74,20.3,50.59,20.1,50.4,20.1Z" transform="translate(-1.57 -7.59)"/><path class="cls-5" d="M40.34,24.27H34.91a.36.36,0,0,0-.33.37V44.16a.36.36,0,0,0,.33.37h5.43a.36.36,0,0,0,.34-.37V24.64A.36.36,0,0,0,40.34,24.27Z" transform="translate(-1.57 -7.59)"/><path class="cls-5" d="M20.22,25.14H14.8a.36.36,0,0,0-.34.37V44.34a.36.36,0,0,0,.34.37h5.42a.36.36,0,0,0,.34-.37V25.51A.36.36,0,0,0,20.22,25.14Z" transform="translate(-1.57 -7.59)"/><path class="cls-6" d="M30.28,28.94H24.85a.32.32,0,0,0-.34.29v15a.32.32,0,0,0,.34.29h5.43a.31.31,0,0,0,.33-.29v-15A.31.31,0,0,0,30.28,28.94Z" transform="translate(-1.57 -7.59)"/><path class="cls-6" d="M10.16,34.83H4.74c-.19,0-.34.08-.34.18v9.48c0,.1.15.18.34.18h5.42c.19,0,.34-.08.34-.18V35C10.5,34.91,10.35,34.83,10.16,34.83Z" transform="translate(-1.57 -7.59)"/></g></g></g></svg>