<svg xmlns="http://www.w3.org/2000/svg" xmlns:xlink="http://www.w3.org/1999/xlink" viewBox="0 0 44.76 50.07"><defs><style>.cls-1{fill:none;}.cls-2{clip-path:url(#clip-path);}.cls-3,.cls-6{fill:#fff;}.cls-3{fill-rule:evenodd;}.cls-4{fill:#1d1d1b;}.cls-5{fill:#ff6c33;}.cls-7{fill:#156bff;}</style><clipPath id="clip-path" transform="translate(-4.62 -1.97)"><rect class="cls-1" width="54" height="54"/></clipPath></defs><title>icon-录取进程</title><g id="图层_2" data-name="图层 2"><g id="图层_1-2" data-name="图层 1"><g class="cls-2"><path class="cls-3" d="M33.33,33.6A15.59,15.59,0,1,1,48.92,18,15.6,15.6,0,0,1,33.33,33.6Z" transform="translate(-4.62 -1.97)"/><path class="cls-4" d="M33.33,2A16,16,0,1,0,49.38,18,16,16,0,0,0,33.33,2Zm0,31.17A15.13,15.13,0,1,1,48.46,18,15.14,15.14,0,0,1,33.33,33.14Z" transform="translate(-4.62 -1.97)"/><path class="cls-3" d="M33.33,30.87A12.86,12.86,0,1,1,46.18,18,12.88,12.88,0,0,1,33.33,30.87Z" transform="translate(-4.62 -1.97)"/><path class="cls-4" d="M33.33,4.7A13.32,13.32,0,1,0,46.64,18,13.31,13.31,0,0,0,33.33,4.7Zm0,25.71A12.4,12.4,0,1,1,45.72,18,12.41,12.41,0,0,1,33.33,30.41Z" transform="translate(-4.62 -1.97)"/><path class="cls-3" d="M33.33,7a.3.3,0,1,1,0-.59.3.3,0,0,1,0,.59Z" transform="translate(-4.62 -1.97)"/><path class="cls-4" d="M33.33,5.94a.76.76,0,1,0,.75.75.76.76,0,0,0-.75-.75Z" transform="translate(-4.62 -1.97)"/><path class="cls-3" d="M28,8.86a.75.75,0,1,1,.28-1A.75.75,0,0,1,28,8.86Z" transform="translate(-4.62 -1.97)"/><path class="cls-4" d="M27.67,7.46a.75.75,0,0,0-.38.1A.75.75,0,0,0,27.67,9a.74.74,0,0,0,.37-.1.75.75,0,0,0,.28-1,.75.75,0,0,0-.65-.37Z" transform="translate(-4.62 -1.97)"/><path class="cls-3" d="M23.52,12.65a.23.23,0,0,1-.14,0,.29.29,0,0,1,.14-.55c.29.12.34.3.26.44A.3.3,0,0,1,23.52,12.65Z" transform="translate(-4.62 -1.97)"/><path class="cls-4" d="M23.52,11.6a.76.76,0,0,0-.65.38.73.73,0,0,0,.28,1,.75.75,0,0,0,.37.11.74.74,0,0,0,.65-.38.75.75,0,0,0-.65-1.13Z" transform="translate(-4.62 -1.97)"/><path class="cls-3" d="M22,18.31a.3.3,0,0,1-.3-.3.3.3,0,0,1,.59,0,.27.27,0,0,1-.09.21A.25.25,0,0,1,22,18.31Z" transform="translate(-4.62 -1.97)"/><path class="cls-4" d="M22,17.26a.76.76,0,1,0,0,1.51h0a.76.76,0,0,0,0-1.51Z" transform="translate(-4.62 -1.97)"/><path class="cls-3" d="M24.17,23.3a.75.75,0,1,1-1-.28A.74.74,0,0,1,24.17,23.3Z" transform="translate(-4.62 -1.97)"/><path class="cls-4" d="M23.52,22.92a.69.69,0,0,0-.37.1.75.75,0,0,0-.28,1,.76.76,0,0,0,.65.38.75.75,0,0,0,.65-1.13.72.72,0,0,0-.65-.38Z" transform="translate(-4.62 -1.97)"/><path class="cls-3" d="M27.67,28.11a.29.29,0,0,1-.26-.44.3.3,0,0,1,.26-.15c.21.08.26.15.28.22a.31.31,0,0,1,0,.23A.29.29,0,0,1,27.67,28.11Z" transform="translate(-4.62 -1.97)"/><path class="cls-4" d="M27.67,27.06a.77.77,0,0,0-.66.38.75.75,0,0,0,.28,1,.75.75,0,0,0,.38.1.75.75,0,0,0,.37-1.4.75.75,0,0,0-.37-.11Z" transform="translate(-4.62 -1.97)"/><path class="cls-3" d="M33.33,29.63a.3.3,0,1,1,0-.59.3.3,0,0,1,0,.59Z" transform="translate(-4.62 -1.97)"/><path class="cls-4" d="M33.33,28.58a.76.76,0,1,0,.75.75.76.76,0,0,0-.75-.75Z" transform="translate(-4.62 -1.97)"/><path class="cls-3" d="M38.61,27.17a.75.75,0,0,1,1,.27.77.77,0,0,1-.27,1,.75.75,0,1,1-.76-1.3Z" transform="translate(-4.62 -1.97)"/><path class="cls-4" d="M39,27.06a.76.76,0,0,0-.38.11.75.75,0,0,0,.76,1.3.77.77,0,0,0,.27-1,.76.76,0,0,0-.65-.38Z" transform="translate(-4.62 -1.97)"/><path class="cls-3" d="M43.13,24a.28.28,0,0,1-.15,0,.29.29,0,0,1-.11-.4.29.29,0,0,1,.26-.15c.29.12.33.3.25.44A.28.28,0,0,1,43.13,24Z" transform="translate(-4.62 -1.97)"/><path class="cls-4" d="M43.13,22.92a.72.72,0,0,0-.65.38.75.75,0,1,0,1-.28.77.77,0,0,0-.38-.1Z" transform="translate(-4.62 -1.97)"/><path class="cls-3" d="M44.65,18.31a.29.29,0,0,1-.3-.3.29.29,0,0,1,.29-.29.33.33,0,0,1,.3.29A.3.3,0,0,1,44.65,18.31Z" transform="translate(-4.62 -1.97)"/><path class="cls-4" d="M44.64,17.26a.75.75,0,0,0-.75.75.76.76,0,1,0,1.51,0,.75.75,0,0,0-.75-.75h0Z" transform="translate(-4.62 -1.97)"/><path class="cls-3" d="M42.48,12.73a.75.75,0,1,1,1.3-.75.74.74,0,0,1-.27,1A.75.75,0,0,1,42.48,12.73Z" transform="translate(-4.62 -1.97)"/><path class="cls-4" d="M43.13,11.6a.75.75,0,0,0-.65,1.13.73.73,0,0,0,1,.27.74.74,0,0,0,.27-1,.76.76,0,0,0-.65-.38Z" transform="translate(-4.62 -1.97)"/><path class="cls-3" d="M39,8.5a.26.26,0,0,1-.15,0,.29.29,0,0,1-.11-.4A.29.29,0,0,1,39,7.92c.28.11.33.3.25.44A.29.29,0,0,1,39,8.5Z" transform="translate(-4.62 -1.97)"/><path class="cls-4" d="M39,7.46a.77.77,0,0,0-.66.37.76.76,0,0,0,.28,1,.76.76,0,0,0,1-.27.76.76,0,0,0-.28-1,.71.71,0,0,0-.37-.1Z" transform="translate(-4.62 -1.97)"/><path class="cls-5" d="M33,8.06a9.66,9.66,0,1,0,9.66,9.66A9.67,9.67,0,0,0,33,8.06Z" transform="translate(-4.62 -1.97)"/><rect class="cls-6" x="28.41" y="8.82" width="0.59" height="5.11"/><polygon class="cls-4" points="29.46 8.36 27.95 8.36 27.95 14.39 29.46 14.39 29.46 8.36 29.46 8.36"/><rect class="cls-6" x="30.82" y="15.75" width="5.11" height="0.59"/><polygon class="cls-4" points="36.39 15.29 30.36 15.29 30.36 16.8 36.39 16.8 36.39 15.29 36.39 15.29"/><path class="cls-3" d="M33.32,20.34A2.33,2.33,0,1,1,35.66,18,2.32,2.32,0,0,1,33.32,20.34Z" transform="translate(-4.62 -1.97)"/><path class="cls-4" d="M33.32,15.22A2.79,2.79,0,1,0,36.12,18,2.79,2.79,0,0,0,33.32,15.22Zm0,4.66A1.87,1.87,0,1,1,35.2,18,1.87,1.87,0,0,1,33.32,19.88Z" transform="translate(-4.62 -1.97)"/><path class="cls-3" d="M7.65,49.11c.08-9.8,2.9-12.66,5-14.76,1.2-1.21,2.23-2.26,2.37-4.19-.14-2-1.18-3-2.38-4.15-2.06-2-4.86-4.7-4.95-14.36h19.9c-.09,9.66-3,12.37-5.07,14.36-1.23,1.16-2.29,2.16-2.44,4.08.15,2,1.21,3.05,2.43,4.27,2.11,2.1,5,5,5.08,14.75Z" transform="translate(-4.62 -1.97)"/><path class="cls-4" d="M28,11.2H7.19c0,15.76,7,14,7.33,18.93-.37,5-7.33,3.5-7.33,19.44H28c0-15.94-7.12-14.42-7.51-19.44C20.89,25.16,28,27,28,11.2ZM19.59,30.05v.15c.16,2.1,1.32,3.26,2.56,4.48,2,2,4.76,4.74,4.93,14h-19c.16-9.24,2.84-12,4.82-14,1.21-1.23,2.34-2.39,2.5-4.49v-.13c-.16-2.1-1.31-3.2-2.52-4.38-2-1.9-4.64-4.47-4.8-13.57h19c-.17,9.09-2.9,11.67-4.91,13.57C20.92,26.85,19.75,28,19.59,30.05Z" transform="translate(-4.62 -1.97)"/><path class="cls-7" d="M26.42,41.25a15.4,15.4,0,0,0-8.76-3.07,16.12,16.12,0,0,0-8.91,3.07c-.91,2.29-1.56,3.46-1.56,8.32H28C28,44.71,27.35,43.54,26.42,41.25Z" transform="translate(-4.62 -1.97)"/><path class="cls-3" d="M6.54,50.22v-.65c0-10.61,3.05-13.72,5.28-16,1-1,1.91-1.94,2-3.41-.14-1.53-1-2.38-2-3.36C9.6,24.65,6.54,21.69,6.54,11.2v-.65H28.66v.65c0,10.5-3.13,13.46-5.42,15.62-1,1-1.94,1.82-2.08,3.26.14,1.56,1.05,2.46,2.09,3.49,2.28,2.27,5.41,5.38,5.41,16v.65Zm1.31-37.9c.2,9.05,2.91,11.65,4.88,13.56,1.33,1.28,2.29,2.21,2.44,4.2-.15,2.09-1.1,3.06-2.42,4.4-2,2-4.7,4.78-4.9,14v.47H27.36v-.47c-.21-9.19-3-12-5-14C21,33.14,20,32.17,19.85,30.17c.16-2.09,1.15-3,2.51-4.3,2-1.9,4.78-4.51,5-13.55v-.47H7.84Z" transform="translate(-4.62 -1.97)"/><path class="cls-4" d="M23.56,27.15c2.36-2.23,5.56-5.25,5.56-15.95V10.09h-23V11.2c0,10.69,3.13,13.71,5.43,15.94,1,.95,1.78,1.71,1.9,3-.12,1.31-.93,2.12-1.91,3.13-2.3,2.33-5.42,5.51-5.42,16.31v1.11h23V49.57c0-10.81-3.2-14-5.55-16.32-1-1-1.83-1.82-2-3.12C21.74,28.86,22.55,28.09,23.56,27.15ZM20.7,30v.19c.16,1.63,1.16,2.63,2.23,3.68,2.22,2.21,5.27,5.24,5.27,15.67v.19H7v-.19c0-10.42,3-13.46,5.15-15.67a6,6,0,0,0,2.18-3.68V30c-.16-1.62-1.14-2.56-2.18-3.56C10,24.38,7,21.5,7,11.2V11H28.2v.19c0,10.31-3.05,13.18-5.27,15.28C21.86,27.48,20.86,28.42,20.7,30Z" transform="translate(-4.62 -1.97)"/><path class="cls-4" d="M27.81,12.33l0-.94H7.37l0,.94c.21,9.23,3,11.92,5,13.88,1.3,1.26,2.16,2.09,2.3,3.93-.14,1.83-1,2.7-2.29,4-2,2.07-4.82,4.91-5,14.28l0,.94H27.83l0-.94c-.21-9.37-3.07-12.21-5.15-14.28-1.33-1.32-2.2-2.19-2.35-4,.15-1.83,1-2.66,2.36-3.91C24.75,24.24,27.59,21.56,27.81,12.33ZM22,25.54c-1.37,1.29-2.47,2.33-2.64,4.51v.16c.16,2.17,1.26,3.26,2.61,4.61,2,2,4.68,4.64,4.88,13.64H8.31c.2-9,2.82-11.67,4.76-13.65,1.33-1.35,2.4-2.44,2.56-4.6v-.16c-.17-2.17-1.25-3.21-2.58-4.5-1.94-1.87-4.54-4.39-4.74-13.25H26.89C26.68,21.16,24,23.67,22,25.54Z" transform="translate(-4.62 -1.97)"/><path class="cls-3" d="M6.38,10.64c-.77,0-1.3-.43-1.3-.81S5.61,9,6.38,9H28.82c.76,0,1.3.42,1.3.8s-.54.81-1.3.81Z" transform="translate(-4.62 -1.97)"/><path class="cls-4" d="M28.82,8.57H6.38c-1,0-1.76.57-1.76,1.26s.79,1.27,1.76,1.27H28.82c1,0,1.76-.57,1.76-1.27S29.79,8.57,28.82,8.57Zm0,1.61H6.38a1,1,0,0,1-.84-.34c0-.09.3-.35.84-.35H28.82a1,1,0,0,1,.84.34C29.65,9.91,29.36,10.18,28.82,10.18Z" transform="translate(-4.62 -1.97)"/><path class="cls-3" d="M6.38,51.57c-.77,0-1.3-.42-1.3-.8s.53-.8,1.3-.8H28.82c.76,0,1.3.42,1.3.8s-.54.8-1.3.8Z" transform="translate(-4.62 -1.97)"/><path class="cls-4" d="M28.82,49.51H6.38c-1,0-1.76.57-1.76,1.26S5.41,52,6.38,52H28.82c1,0,1.76-.57,1.76-1.26S29.79,49.51,28.82,49.51Zm0,1.6H6.38c-.54,0-.83-.26-.84-.34s.3-.34.84-.34H28.82a1,1,0,0,1,.84.34A1,1,0,0,1,28.82,51.11Z" transform="translate(-4.62 -1.97)"/></g></g></g></svg>