<svg xmlns="http://www.w3.org/2000/svg" xmlns:xlink="http://www.w3.org/1999/xlink" viewBox="0 0 54 38.42"><defs><style>.cls-1{fill:none;}.cls-2{clip-path:url(#clip-path);}.cls-3{fill:#fff;}.cls-3,.cls-5,.cls-8,.cls-9{fill-rule:evenodd;}.cls-4{fill:#1d1d1b;}.cls-5,.cls-6{fill:#666;}.cls-7,.cls-8{fill:#ff6c33;}.cls-9{fill:#156bff;}</style><clipPath id="clip-path" transform="translate(0 -7.79)"><rect class="cls-1" width="54" height="54"/></clipPath></defs><title>icon-录取查询</title><g id="图层_2" data-name="图层 2"><g id="图层_1-2" data-name="图层 1"><g class="cls-2"><path class="cls-3" d="M53.48,13.07l.08,31.3a1.33,1.33,0,0,1-1.32,1.33l-26,.07a1.33,1.33,0,0,1-1.33-1.32L24.81,9.62a1.33,1.33,0,0,1,.39-.94,1.29,1.29,0,0,1,.93-.39l22.48-.06Z" transform="translate(0 -7.79)"/><path class="cls-4" d="M52.29,46.14h0l-26,.07a1.76,1.76,0,0,1-1.77-1.76L24.37,9.62a1.76,1.76,0,0,1,1.71-1.77l22.53-.06a.48.48,0,0,1,.32.13l4.86,4.84a.44.44,0,0,1,.13.31L54,44.37a1.78,1.78,0,0,1-1.71,1.77ZM26.13,8.73a.9.9,0,0,0-.62.26.88.88,0,0,0-.26.63l.09,34.82a.88.88,0,0,0,.26.63.9.9,0,0,0,.62.25l26-.06,0,.44,0-.44a.89.89,0,0,0,.6-.26.91.91,0,0,0,.25-.63L53,13.26l-4.6-4.58-22.3.05Z" transform="translate(0 -7.79)"/><path class="cls-5" d="M48.64,24.73l-19,.05v1.49l19-.05Z" transform="translate(0 -7.79)"/><path class="cls-6" d="M48.66,26.66h0l-19,.05a.44.44,0,0,1-.44-.44V24.78a.46.46,0,0,1,.13-.31.42.42,0,0,1,.31-.13l19-.05a.44.44,0,0,1,.44.44v1.49a.46.46,0,0,1-.13.31A.43.43,0,0,1,48.66,26.66Zm-18.53-.84,18.07,0v-.6l-18.07,0Z" transform="translate(0 -7.79)"/><path class="cls-5" d="M48.69,34.56l-19,0v1.49l19-.05Z" transform="translate(0 -7.79)"/><path class="cls-6" d="M48.7,36.48h0l-19,.05a.44.44,0,0,1-.44-.44V34.6a.45.45,0,0,1,.12-.31.42.42,0,0,1,.32-.13l19,0a.46.46,0,0,1,.31.13.48.48,0,0,1,.13.32V36A.44.44,0,0,1,48.7,36.48Zm-18.53-.84,18.08,0V35L30.17,35Z" transform="translate(0 -7.79)"/><path class="cls-5" d="M48.69,39.47l-18.95,0V41l19,0Z" transform="translate(0 -7.79)"/><path class="cls-6" d="M48.71,41.39h0l-19,0a.44.44,0,0,1-.31-.13A.4.4,0,0,1,29.3,41V39.51a.45.45,0,0,1,.43-.44h0l19,0a.44.44,0,0,1,.45.45V41A.44.44,0,0,1,48.71,41.39Zm-18.53-.84,18.07,0v-.6L30.18,40Z" transform="translate(0 -7.79)"/><path class="cls-7" d="M49.05,14.91a.44.44,0,0,0-.13-.31.46.46,0,0,0-.31-.13l-18.92,0a.36.36,0,0,0-.31.13.4.4,0,0,0-.13.31v1.49a.44.44,0,0,0,.44.44l18.92-.05h0a.44.44,0,0,0,.43-.44Z" transform="translate(0 -7.79)"/><path class="cls-5" d="M48.64,19.82l-19,.05v1.49l19-.05Z" transform="translate(0 -7.79)"/><path class="cls-6" d="M48.65,21.75h0l-19,.05a.44.44,0,0,1-.31-.13.42.42,0,0,1-.13-.31V19.87a.45.45,0,0,1,.43-.44h0l19-.05a.48.48,0,0,1,.31.13.46.46,0,0,1,.13.31v1.49A.44.44,0,0,1,48.65,21.75Zm-18.53-.84,18.07-.05v-.59l-18.07,0Z" transform="translate(0 -7.79)"/><path class="cls-5" d="M48.68,29.65l-19,0v1.49l19-.05Z" transform="translate(0 -7.79)"/><path class="cls-6" d="M48.7,31.57h0l-18.95.05a.45.45,0,0,1-.45-.44V29.69a.42.42,0,0,1,.13-.31.42.42,0,0,1,.31-.13l19-.05a.44.44,0,0,1,.44.44v1.49a.46.46,0,0,1-.13.31A.43.43,0,0,1,48.7,31.57Zm-18.53-.84,18.07,0v-.6l-18.08,0Z" transform="translate(0 -7.79)"/><path class="cls-3" d="M53.48,13.07H50A1.36,1.36,0,0,1,49,12.7a1.33,1.33,0,0,1-.39-.94V8.23Z" transform="translate(0 -7.79)"/><path class="cls-4" d="M53.49,13.51H50a1.76,1.76,0,0,1-1.77-1.76V8.24a.45.45,0,0,1,.76-.32l4.78,4.76a.44.44,0,0,1,.23.38.43.43,0,0,1-.43.45ZM49.06,9.3v2.46a.87.87,0,0,0,.26.62.84.84,0,0,0,.62.26h2.46Z" transform="translate(0 -7.79)"/><path class="cls-3" d="M18.12,8.88.44,21.65V43.19H35.8V21.65Z" transform="translate(0 -7.79)"/><path class="cls-4" d="M35.8,43.63H.44A.44.44,0,0,1,0,43.19V21.65a.47.47,0,0,1,.18-.36L17.86,8.52a.45.45,0,0,1,.52,0L36.06,21.29a.45.45,0,0,1,.19.36V43.19A.45.45,0,0,1,35.8,43.63ZM.89,42.74H35.36V21.88L18.12,9.43.89,21.88Z" transform="translate(0 -7.79)"/><path class="cls-3" d="M35.8,21.65V43.19L18.12,32.42Z" transform="translate(0 -7.79)"/><path class="cls-4" d="M35.8,43.63a.39.39,0,0,1-.23-.07L17.89,32.8a.44.44,0,0,1-.21-.38.45.45,0,0,1,.21-.38L35.57,21.28a.43.43,0,0,1,.45,0,.44.44,0,0,1,.23.38V43.19a.44.44,0,0,1-.23.38A.43.43,0,0,1,35.8,43.63ZM19,32.42l16.39,10v-20Z" transform="translate(0 -7.79)"/><path class="cls-3" d="M18.12,32.42.44,43.19V21.65Z" transform="translate(0 -7.79)"/><path class="cls-4" d="M.44,43.63a.39.39,0,0,1-.21-.06A.44.44,0,0,1,0,43.19V21.65a.44.44,0,0,1,.23-.38.41.41,0,0,1,.44,0L18.35,32a.46.46,0,0,1,.22.38.45.45,0,0,1-.22.38L.67,43.56A.39.39,0,0,1,.44,43.63ZM.89,22.44v20l16.38-10Z" transform="translate(0 -7.79)"/><path class="cls-3" d="M35.8,43.19H.44L18.12,32.42Z" transform="translate(0 -7.79)"/><polygon class="cls-8" points="3.95 34.41 18.12 25.78 32.29 34.41 3.95 34.41"/><path class="cls-4" d="M35.83,43.63H.44A.43.43,0,0,1,0,43.3a.42.42,0,0,1,.19-.49L17.89,32a.47.47,0,0,1,.46,0L36,42.76a.45.45,0,0,1,.31.43A.44.44,0,0,1,35.83,43.63ZM2,42.74h32.2l-16.1-9.8Z" transform="translate(0 -7.79)"/><polygon class="cls-9" points="17.96 3.77 3.66 13.61 17.96 21.88 32.26 13.61 17.96 3.77"/></g></g></g></svg>