<svg xmlns="http://www.w3.org/2000/svg" xmlns:xlink="http://www.w3.org/1999/xlink" viewBox="0 0 54 40.08"><defs><style>.cls-1{fill:none;}.cls-2{clip-path:url(#clip-path);}.cls-3{fill:#fff;}.cls-3,.cls-7{fill-rule:evenodd;}.cls-4,.cls-7{fill:#1d1d1b;}.cls-5{fill:#156bff;}.cls-6{fill:#ff6c33;}</style><clipPath id="clip-path" transform="translate(0 -6.96)"><rect class="cls-1" width="54" height="54"/></clipPath></defs><title>icon-智能咨询</title><g id="图层_2" data-name="图层 2"><g id="图层_1-2" data-name="图层 1"><g class="cls-2"><path class="cls-3" d="M9.73,38.45A1.1,1.1,0,0,1,9,38.13a1.14,1.14,0,0,1-.32-.78v-30H37v30a1.1,1.1,0,0,1-.32.78,1.08,1.08,0,0,1-.78.32Z" transform="translate(0 -6.96)"/><path class="cls-4" d="M8.27,7V37.35a1.47,1.47,0,0,0,1.46,1.46h26.2a1.47,1.47,0,0,0,1.46-1.46V7ZM36.68,37.35a.77.77,0,0,1-.22.53.75.75,0,0,1-.53.22H9.73a.77.77,0,0,1-.53-.22A.76.76,0,0,1,9,37.35V7.67H36.68Z" transform="translate(0 -6.96)"/><rect class="cls-5" x="10.23" y="1.83" width="25.27" height="27.75"/><path class="cls-3" d="M30.56,11.56a.76.76,0,0,1-.76-.76.77.77,0,1,1,.76.76Z" transform="translate(0 -6.96)"/><path class="cls-4" d="M30.56,9.68a1.12,1.12,0,0,0,0,2.24,1.12,1.12,0,1,0,0-2.24Zm0,1.53a.41.41,0,0,1-.4-.41.4.4,0,0,1,.4-.41.41.41,0,0,1,.42.41A.42.42,0,0,1,30.56,11.21Z" transform="translate(0 -6.96)"/><path class="cls-3" d="M15.1,11.56a.77.77,0,0,1-.77-.76A.78.78,0,0,1,15.1,10a.77.77,0,0,1,.76.77A.76.76,0,0,1,15.1,11.56Z" transform="translate(0 -6.96)"/><path class="cls-4" d="M15.1,9.68a1.12,1.12,0,1,0,1.12,1.12A1.12,1.12,0,0,0,15.1,9.68Zm0,1.53a.41.41,0,0,1-.41-.41.41.41,0,0,1,.41-.41.41.41,0,0,1,.41.41A.42.42,0,0,1,15.1,11.21Z" transform="translate(0 -6.96)"/><path class="cls-3" d="M22.83,22.26a8.06,8.06,0,0,1-8-8V10.8a.32.32,0,0,1,.32-.32.32.32,0,0,1,.32.32v3.41a7.41,7.41,0,1,0,14.82,0V10.8a.32.32,0,0,1,.33-.32.31.31,0,0,1,.31.32v3.41a8,8,0,0,1-8,8.05Z" transform="translate(0 -6.96)"/><path class="cls-4" d="M30.57,10.48a.32.32,0,0,0-.33.32v3.41a7.41,7.41,0,1,1-14.82,0V10.8a.32.32,0,0,0-.32-.32.32.32,0,0,0-.32.32v3.41a8.05,8.05,0,1,0,16.1,0V10.8a.31.31,0,0,0-.31-.32Z" transform="translate(0 -6.96)"/><path class="cls-3" d="M51.89,23.15a1.64,1.64,0,0,1,1.17.5,1.74,1.74,0,0,1,.49,1.22v20a1.72,1.72,0,0,1-.49,1.22,1.6,1.6,0,0,1-1.17.5H21.29a1.62,1.62,0,0,1-1.18-.5,1.76,1.76,0,0,1-.48-1.22v-20a1.78,1.78,0,0,1,.48-1.22,1.68,1.68,0,0,1,1.18-.5Z" transform="translate(0 -6.96)"/><path class="cls-4" d="M51.89,47H21.29a2,2,0,0,1-1.49-.64,2.22,2.22,0,0,1-.62-1.55v-20a2.24,2.24,0,0,1,.62-1.55,2,2,0,0,1,1.49-.64h30.6a2.08,2.08,0,0,1,1.49.64A2.24,2.24,0,0,1,54,24.87v20a2.26,2.26,0,0,1-.62,1.55A2,2,0,0,1,51.89,47ZM21.29,23.61a1.23,1.23,0,0,0-.86.37,1.26,1.26,0,0,0-.35.89v20a1.35,1.35,0,0,0,.35.9,1.2,1.2,0,0,0,.86.36h30.6a1.13,1.13,0,0,0,.85-.37,1.27,1.27,0,0,0,.36-.88v-20a1.27,1.27,0,0,0-.36-.89,1.15,1.15,0,0,0-.85-.37Z" transform="translate(0 -6.96)"/><path class="cls-5" d="M29.15,41.64h-5.3a.46.46,0,0,0-.45.46v1a.45.45,0,0,0,.45.46h5.3a.46.46,0,0,0,.46-.46v-1A.47.47,0,0,0,29.15,41.64Z" transform="translate(0 -6.96)"/><path class="cls-5" d="M35.88,41.64H30.57a.46.46,0,0,0-.45.46v1a.46.46,0,0,0,.45.46h5.31a.46.46,0,0,0,.45-.46v-1A.46.46,0,0,0,35.88,41.64Z" transform="translate(0 -6.96)"/><path class="cls-5" d="M42.6,41.64H37.3a.46.46,0,0,0-.45.46v1a.46.46,0,0,0,.45.46h5.3a.44.44,0,0,0,.45-.46v-1A.46.46,0,0,0,42.6,41.64Z" transform="translate(0 -6.96)"/><path class="cls-5" d="M49.32,41.64H44a.45.45,0,0,0-.32.14.46.46,0,0,0-.13.32v1a.45.45,0,0,0,.45.46h5.3a.45.45,0,0,0,.45-.46v-1A.46.46,0,0,0,49.32,41.64Z" transform="translate(0 -6.96)"/><path class="cls-6" d="M35.88,34.5h-12a.46.46,0,0,0-.45.46v3.72a.46.46,0,0,0,.45.47h12a.46.46,0,0,0,.45-.47V35A.46.46,0,0,0,35.88,34.5Z" transform="translate(0 -6.96)"/><path class="cls-6" d="M53.55,26.12H19.63a.44.44,0,0,0-.32.13.51.51,0,0,0-.13.33v5a.46.46,0,0,0,.45.47H53.55a.46.46,0,0,0,.45-.47v-5A.46.46,0,0,0,53.55,26.12Z" transform="translate(0 -6.96)"/><path class="cls-3" d="M45.8,36.82a2.65,2.65,0,1,1-2.64-2.73A2.69,2.69,0,0,1,45.8,36.82Z" transform="translate(0 -6.96)"/><path class="cls-4" d="M43.16,40a3.21,3.21,0,1,1,3.09-3.21A3.16,3.16,0,0,1,43.16,40Zm0-5.48a2.28,2.28,0,1,0,2.19,2.27A2.24,2.24,0,0,0,43.16,34.55Z" transform="translate(0 -6.96)"/><path class="cls-3" d="M49.32,36.82a2.64,2.64,0,1,1-2.64-2.73A2.69,2.69,0,0,1,49.32,36.82Z" transform="translate(0 -6.96)"/><path class="cls-4" d="M46.68,40a3.21,3.21,0,1,1,3.09-3.21A3.16,3.16,0,0,1,46.68,40Zm0-5.48a2.28,2.28,0,1,0,2.2,2.27A2.23,2.23,0,0,0,46.68,34.55Z" transform="translate(0 -6.96)"/><path class="cls-7" d="M8.63,41.31a8.29,8.29,0,1,1,6.79-3.55.41.41,0,0,1-.35.18.41.41,0,0,1-.19,0,6.17,6.17,0,0,1-2.36-2.37.35.35,0,0,0-.29-.18h0a.35.35,0,0,0-.28.14,4.06,4.06,0,0,1-3.29,1.65,4.11,4.11,0,1,1,2.68-7.22.33.33,0,0,0,.23.09.28.28,0,0,0,.15,0,.35.35,0,0,0,.2-.32.44.44,0,0,1,.43-.46.43.43,0,0,1,.43.43v3.45a4.66,4.66,0,0,0,1.86,3.62.37.37,0,0,0,.22.08h.07a.34.34,0,0,0,.24-.18A7.41,7.41,0,1,0,12,39.63a.46.46,0,0,1,.2-.05.43.43,0,0,1,.41.56.44.44,0,0,1-.21.25A8.28,8.28,0,0,1,8.63,41.31Zm0-11.53A3.25,3.25,0,1,0,11.88,33,3.26,3.26,0,0,0,8.63,29.78Z" transform="translate(0 -6.96)"/><path class="cls-4" d="M8.63,29.43A3.61,3.61,0,1,0,12.24,33,3.61,3.61,0,0,0,8.63,29.43Zm0,6.5a2.9,2.9,0,1,1,2.9-2.9A2.9,2.9,0,0,1,8.63,35.93Z" transform="translate(0 -6.96)"/><path class="cls-4" d="M8.63,24.4a8.63,8.63,0,1,0,3.95,16.31.79.79,0,0,0-.72-1.4,7,7,0,0,1-3.23.78A7.06,7.06,0,1,1,15.69,33a7,7,0,0,1-.86,3.38,4.28,4.28,0,0,1-1.72-3.34V29.62a.79.79,0,1,0-1.57,0v0a4.47,4.47,0,1,0,.66,6.05,6.66,6.66,0,0,0,2.51,2.51.78.78,0,0,0,1-.25A8.64,8.64,0,0,0,8.63,24.4Zm6.5,13.16-.09,0a5.78,5.78,0,0,1-2.21-2.22.73.73,0,0,0-.57-.37H12.2a.7.7,0,0,0-.56.29,3.76,3.76,0,1,1-.56-5.09.65.65,0,0,0,.44.16.77.77,0,0,0,.32-.07.74.74,0,0,0,.41-.66.08.08,0,0,1,.07-.08.09.09,0,0,1,.08.08v3.45a5,5,0,0,0,2,3.9.71.71,0,0,0,.44.15H15a.68.68,0,0,0,.48-.36,7.7,7.7,0,1,0-3.23,3.19.07.07,0,0,1,.07,0l0,.09A7.81,7.81,0,0,1,8.63,41a7.91,7.91,0,1,1,6.5-3.39Z" transform="translate(0 -6.96)"/></g></g></g></svg>