<svg xmlns="http://www.w3.org/2000/svg" viewBox="0 0 471.24 60.11"><defs><style>.cls-1,.cls-2{fill:#fff;}.cls-2{fill-rule:evenodd;}.cls-3{fill:#fdd000;}.cls-4{fill:#00afec;}.cls-5{fill:#e60012;}</style></defs><title>logo-顶部</title><g id="图层_2" data-name="图层 2"><g id="图层_1-2" data-name="图层 1"><path class="cls-1" d="M121.84,45.92c-1.94,0-2.67,1.83-2.67,3.23s.77,3.22,2.62,3.21c1.65,0,2.68-1.48,2.67-3.37S123.45,45.92,121.84,45.92Zm.21,6c-1.2,0-1.93-1.33-1.93-3,0-2,.82-2.53,1.53-2.53,1,0,1.86,1.11,1.86,2.93C123.52,51.63,122.5,51.92,122.05,51.92Zm28.47-6.08c-1.93,0-2.67,1.83-2.67,3.23s.77,3.22,2.62,3.21c1.65,0,2.68-1.48,2.67-3.37S152.13,45.84,150.52,45.84Zm.21,6c-1.2,0-1.93-1.33-1.93-3,0-2,.82-2.54,1.54-2.54,1,0,1.85,1.11,1.85,2.93C152.2,51.55,151.18,51.84,150.73,51.84ZM118.42,46s-.07,0-.1.05l-.26,0h-1.82l-.91,0c-.11,0-.16,0-.16.08a.1.1,0,0,0,.11.09.88.88,0,0,1,.26,0c.2.06.26.16.27.44s0,.49,0,1.74v1.45c0,.8,0,1.41,0,1.75s-.06.4-.19.44a.71.71,0,0,1-.23,0,.08.08,0,0,0-.09.09c0,.07,0,.08.13.08l.81,0c.17,0,.62,0,1,0,.09,0,.13,0,.13-.09s0-.08-.11-.08a1.71,1.71,0,0,1-.31,0c-.19,0-.23-.2-.25-.44s0-.93,0-1.72v-.68s0-.06,0-.06.86,0,1,0a.36.36,0,0,1,.31.3.91.91,0,0,1,0,.25c0,.06,0,.12.06.12s.07-.12.07-.19,0-.43,0-.6,0-.48,0-.53,0-.08,0-.08-.05,0-.08.09a.29.29,0,0,1-.27.15h-1.18s0,0,0-.08v-2c0-.1,0-.12.06-.12l1.05,0a.42.42,0,0,1,.41.25.75.75,0,0,1,0,.31c0,.1,0,.13.08.13s.06-.09.06-.16,0-.58,0-.67,0-.31,0-.36S118.44,46,118.42,46Zm172.23,5.64a1.84,1.84,0,0,1-.33,0c-.19,0-.23-.17-.25-.39s0-1,0-1.8V48c0-1.25,0-1.48,0-1.74s.06-.41.24-.44l.19,0c.06,0,.1,0,.1-.09s-.05-.07-.13-.07l-.82,0c-.18,0-.62,0-.86,0s-.15,0-.15.06,0,.1.1.1a.59.59,0,0,1,.23,0c.14.06.21.15.22.43s0,.5,0,1.74v1.46c0,.79,0,1.45,0,1.79s0,.35-.18.39a.71.71,0,0,1-.23,0c-.08,0-.1.05-.1.09s0,.09.12.09c.26,0,.69,0,.84,0s.61,0,1,0c.07,0,.12,0,.12-.09S290.72,51.62,290.65,51.62ZM286.77,48l-.27-.19c-.57-.43-.67-.72-.67-1.09a.84.84,0,0,1,.86-.88.79.79,0,0,1,.72.39,1.37,1.37,0,0,1,.17.54c0,.09,0,.14.06.14s.08-.08.08-.26c0-.65,0-.88,0-1s0-.08-.09-.1a2.81,2.81,0,0,0-.91-.14,1.58,1.58,0,0,0-1.6,1.66,2.19,2.19,0,0,0,1,1.87l.38.29a1.32,1.32,0,0,1,.63,1.16.93.93,0,0,1-.88,1,1,1,0,0,1-1-.81,1.76,1.76,0,0,1-.06-.42c0-.06,0-.14-.07-.14s-.08.09-.08.22,0,.64,0,1.09a.35.35,0,0,0,0,.21.39.39,0,0,1-.14,0c-.1,0-.33-.06-.68-.54s-.84-1.25-1.41-2.18a2.63,2.63,0,0,0,.88-1.82,1.59,1.59,0,0,0-.45-1.13,1.79,1.79,0,0,0-1.21-.35l-1,0-.87,0c-.09,0-.14,0-.14.08s0,.08.11.08a.85.85,0,0,1,.25,0c.2.08.26.17.28.45s0,.49,0,1.74v1.45c0,.75,0,1.4,0,1.75s-.06.4-.19.44a.69.69,0,0,1-.22,0c-.08,0-.11,0-.11.08s.05.09.13.09l.78,0c.1,0,.63,0,1,0,.08,0,.13,0,.13-.08a.09.09,0,0,0-.08-.09,1.91,1.91,0,0,1-.32,0c-.19,0-.22-.19-.24-.43s0-1-.05-1.75v-.12c0-.05,0-.07.05-.07l.58,0a.12.12,0,0,1,.11.06c.09.12.35.67.61,1.12a3.77,3.77,0,0,0,.87,1.21,1.17,1.17,0,0,0,.7.16H285c.08,0,.12,0,.12-.09v0a2.11,2.11,0,0,0,1,.21,1.51,1.51,0,0,0,1.07-.34,1.94,1.94,0,0,0,.63-1.54A2.29,2.29,0,0,0,286.77,48Zm-4.73.79a1.15,1.15,0,0,1-.49-.07s-.06-.06-.06-.15V46.17c0-.07,0-.1.05-.12a1.74,1.74,0,0,1,.38,0c.38,0,1,.3,1,1.46a1.62,1.62,0,0,1-.41,1.22A.55.55,0,0,1,282,48.83ZM147.22,52a1.76,1.76,0,0,1-.33,0c-.19,0-.23-.16-.25-.38s0-1,0-1.8V48.35c0-1.25,0-1.48,0-1.74s.06-.41.23-.45l.19,0c.07,0,.1,0,.1-.1s0-.06-.13-.06l-.82,0-.85,0c-.1,0-.15,0-.15.07s0,.1.1.1a.85.85,0,0,1,.23,0c.14.06.2.16.22.44s0,.49,0,1.74V49.8c0,.79,0,1.45,0,1.79s-.06.36-.19.4a.65.65,0,0,1-.22,0c-.08,0-.1,0-.1.09s0,.08.12.08l.83,0c.18,0,.61,0,1,0,.07,0,.12,0,.12-.09A.09.09,0,0,0,147.22,52Zm132.17-1.48s-.05,0-.07.12c0,.34-.11.52-.27.61a1.3,1.3,0,0,1-.6.11c-.66,0-.85-.12-.87-.68,0-.25,0-.94,0-1.22v-.66c0-.05,0-.09,0-.09s.89,0,1,0a.37.37,0,0,1,.36.32c0,.1,0,.21,0,.3a.06.06,0,0,0,.06.06c.06,0,.06-.11.06-.18s0-.39,0-.55c0-.42.05-.55.05-.6s0-.09-.05-.09-.05,0-.1.11-.15.1-.31.12-1,0-1.11,0-.05,0-.05-.09v-2s0-.08,0-.08.89,0,1,0c.32,0,.37.15.42.3a.88.88,0,0,1,.05.29c0,.07,0,.11.05.11s.06-.1.07-.13,0-.46,0-.55a4,4,0,0,1,.05-.53s0-.08-.05-.08-.06,0-.1,0a1.9,1.9,0,0,1-.27,0h-1.74l-.92,0a.14.14,0,0,0-.13,0,.12.12,0,0,0-.11,0l-.6,0-.69,0c-.12,0-.18,0-.18.08a.11.11,0,0,0,.11.09.75.75,0,0,1,.26,0A.13.13,0,0,1,275,46a1.32,1.32,0,0,1-.06.3c-.15.54-1,3.2-1.24,4.05h0l-1.08-3.68a3,3,0,0,1-.15-.62.22.22,0,0,1,.06-.17.37.37,0,0,1,.25-.06c.06,0,.1,0,.1-.08s-.07-.08-.15-.08l-.81,0-.93,0c-.1,0-.16,0-.16.08s0,.09.07.09a.87.87,0,0,1,.25,0c.23.07.32.15.47.61l1.62,5c.13.39.18.49.27.49s.14-.12.3-.6.44-1.31.84-2.51c.35-1,.51-1.46.77-2.23a1.68,1.68,0,0,1,.33-.73.49.49,0,0,1,.31-.1s.07,0,.08,0a.1.1,0,0,0,.09,0,.88.88,0,0,1,.26,0c.2.08.26.17.27.45s0,.49,0,1.74v1.45c0,.75,0,1.4,0,1.75s-.06.4-.19.44a.71.71,0,0,1-.23,0c-.08,0-.1,0-.1.08s.05.09.13.09l.44,0h.36l.74,0,1.18,0c.24,0,.29,0,.34-.21a9,9,0,0,0,.08-.91C279.45,50.63,279.44,50.53,279.39,50.53ZM141,52l-.24,0c-.11,0-.3-.13-.54-.88-.41-1.24-1.49-4.61-1.64-5.06-.07-.19-.1-.26-.19-.26s-.12.09-.19.33l-1.66,5.18c-.13.41-.23.66-.52.72H136l-.27-.07c-.2-.08-.25-.3-.31-.82l-.6-5.07c0-.18-.09-.26-.14-.26s-.12.06-.17.2l-1.7,4.65L131,46.09c-.08-.22-.13-.26-.19-.26s-.11.07-.12.21l-.62,5.37c0,.27-.09.6-.26.63h0c-.1,0-.33-.07-.68-.54s-.84-1.25-1.41-2.18a2.63,2.63,0,0,0,.88-1.82,1.59,1.59,0,0,0-.45-1.13,1.79,1.79,0,0,0-1.21-.35l-1,0h-.87c-.09,0-.14,0-.14.07s0,.09.11.09a.85.85,0,0,1,.25,0c.2.08.26.16.28.44s0,.5,0,1.75v1.45c0,.75,0,1.4,0,1.75s-.06.39-.19.43a.69.69,0,0,1-.22,0c-.08,0-.11,0-.11.09s0,.09.13.09l.78,0,1,0c.07,0,.13,0,.13-.08a.09.09,0,0,0-.08-.09,1.91,1.91,0,0,1-.32,0c-.19,0-.22-.19-.24-.43s0-1,0-1.76v-.11c0-.05,0-.07,0-.07l.58,0a.12.12,0,0,1,.11.06c.08.12.35.67.61,1.12a3.7,3.7,0,0,0,.87,1.2,1.07,1.07,0,0,0,.7.17H130l.3,0c.12,0,.41,0,.68,0,.09,0,.15,0,.15-.1s-.05-.07-.1-.07a.84.84,0,0,1-.23,0,.23.23,0,0,1-.2-.24c0-.14,0-.24,0-.39l.3-3.21h0l.65,1.76c.07.23.58,1.48.73,1.86s.18.42.26.42.11-.08.25-.47l1.36-3.68h0l.37,3.56c0,.23,0,.33,0,.35a.11.11,0,0,0-.07.09s0,.08.19.09.88.05,1.19.05H136l.61,0,.71,0c.07,0,.1,0,.1-.08s0-.09-.09-.09h-.1c-.19,0-.25-.09-.25-.23a2,2,0,0,1,.09-.5l.34-1.11c0-.05,0-.06.06-.06H139s0,0,.07.06l.5,1.65c0,.1,0,.17-.06.18s-.08,0-.08.09.07.06.19.07c.53,0,1,0,1.22,0s.28,0,.28-.08A.08.08,0,0,0,141,52Zm-14.05-2.77a1.57,1.57,0,0,1-.49-.07s-.06-.06-.06-.15V46.59c0-.06,0-.09,0-.11a1.74,1.74,0,0,1,.38,0c.38,0,1,.29,1,1.46a1.64,1.64,0,0,1-.41,1.22A.55.55,0,0,1,126.94,49.26Zm11.88.42h-1.23s0,0,0-.06l.61-2.08s0-.08,0-.08,0,.05,0,.08l.61,2.09S138.85,49.68,138.82,49.68Zm5.76-3.76-.17,0a2.19,2.19,0,0,1-.44,0h-2.59a4.4,4.4,0,0,1-.64,0c-.16,0-.22-.09-.27-.09s-.06.05-.08.15-.13.87-.13,1,0,.14.06.14.06,0,.07-.11a.79.79,0,0,1,.11-.28c.09-.19.24-.24.61-.26l.95,0v3.33c0,.76,0,1.4,0,1.75s-.06.4-.19.44a.65.65,0,0,1-.22,0c-.08,0-.1,0-.1.09s0,.08.12.08l.83,0c.18,0,.61,0,1,0,.08,0,.13,0,.13-.09a.09.09,0,0,0-.1-.09,1.76,1.76,0,0,1-.33,0c-.19,0-.23-.19-.25-.42s0-1,0-1.76V46.48l.81,0c.57,0,.74.26.75.47v.09c0,.12,0,.16.07.16s.05,0,.06-.13,0-.83,0-1S144.62,45.91,144.58,45.92ZM91.66,52.17a1.66,1.66,0,0,1-.32,0c-.19,0-.24-.17-.26-.39s0-1,0-1.8V48.5c0-1.25,0-1.48,0-1.74s.07-.41.24-.45a.63.63,0,0,1,.19,0c.06,0,.1,0,.1-.09s0-.07-.13-.07l-.82,0-.86,0c-.1,0-.15,0-.15.07s0,.1.1.1a.67.67,0,0,1,.24,0c.13.05.2.15.21.43s0,.5,0,1.74V50c0,.8,0,1.46,0,1.79s-.06.36-.19.4a.71.71,0,0,1-.23,0c-.08,0-.1,0-.1.09s0,.09.13.09l.83,0c.17,0,.61,0,1,0,.07,0,.12,0,.12-.09S91.73,52.17,91.66,52.17Zm-2.84-6-.81,0-1,0c-.1,0-.15,0-.15.08s0,.09.11.09a.85.85,0,0,1,.25,0c.21.07.26.16.28.44s0,.49,0,1.74v1.87c0,1.62,0,2.43-.47,2.94a.92.92,0,0,1-.31.24c-.11,0-.14.07-.14.11s0,.09.06.09a.19.19,0,0,0,.13,0l.32-.13a2.27,2.27,0,0,0,1.14-1.28,5.12,5.12,0,0,0,.15-1.42c0-.41,0-.69,0-1V48.51c0-1.25,0-1.48,0-1.74s.06-.41.24-.45a.57.57,0,0,1,.18,0c.08,0,.11,0,.11-.09S88.91,46.13,88.82,46.13Zm-5.43,4.94s-.06,0-.07.12c0,.34-.12.52-.28.61a1.28,1.28,0,0,1-.6.11c-.65,0-.85-.12-.87-.68V49.35c0-.05,0-.09,0-.09s.89,0,1,0a.35.35,0,0,1,.35.32,1.56,1.56,0,0,1,0,.3A.06.06,0,0,0,83,50c.06,0,.07-.11.07-.18s0-.39,0-.55c0-.42,0-.55,0-.6s0-.09-.05-.09,0,0-.1.11-.15.1-.3.12-1,0-1.12,0,0,0,0-.09v-2c0-.05,0-.08,0-.08s.9,0,1,0c.31,0,.37.15.42.3a1.18,1.18,0,0,1,0,.3c0,.06,0,.1.05.1s.07-.1.08-.13,0-.46,0-.55a4,4,0,0,1,0-.53s0-.08,0-.08-.07,0-.11,0a2,2,0,0,1-.26,0H81.12l-.92,0c-.09,0-.14,0-.14.08s0,.09.11.08a.85.85,0,0,1,.25,0c.2.08.26.17.28.45s0,.49,0,1.74V50c0,.75,0,1.4,0,1.75s-.06.4-.19.44a.69.69,0,0,1-.22,0c-.08,0-.1,0-.1.08s0,.09.12.09l.44,0h.36l.75,0c.31,0,.69,0,1.17,0,.24,0,.3,0,.34-.21a6.68,6.68,0,0,0,.09-.91C83.45,51.17,83.44,51.07,83.39,51.07Zm2.76,1.11a1.76,1.76,0,0,1-.33,0c-.19,0-.23-.16-.25-.38s0-1,0-1.8V48.52c0-1.25,0-1.48,0-1.75s.06-.4.24-.44l.18,0c.07,0,.11,0,.11-.1s-.06-.07-.14-.07l-.81,0-.86,0c-.1,0-.15,0-.15.07s0,.09.1.09a.59.59,0,0,1,.23,0c.14.06.2.16.22.44s0,.49,0,1.74V50c0,.79,0,1.45,0,1.79s-.06.36-.19.4a.65.65,0,0,1-.22,0c-.08,0-.1,0-.1.08s0,.09.12.09l.84,0c.17,0,.61,0,1,0,.07,0,.12,0,.12-.09A.09.09,0,0,0,86.15,52.18Zm-8.1-4.11a2.45,2.45,0,0,0,.73-1.75,1.4,1.4,0,0,0-1.55-1.49c-.25,0-.53,0-.88,0-.15,0-.61,0-1,0-.11,0-.16,0-.16.09s0,.09.12.09a1.12,1.12,0,0,1,.29,0c.24.07.3.23.31.57s0,.6,0,2.12v1.75c0,.92,0,1.71,0,2.13s-.07.51-.21.55a1,1,0,0,1-.26,0c-.09,0-.12,0-.12.08s0,.1.14.1l.51,0h.41l.54,0c.21,0,.42,0,.51,0a2,2,0,0,0,1.93-2.18A2.34,2.34,0,0,0,78.05,48.07ZM76.8,45.43c0-.11,0-.15.07-.17a.86.86,0,0,1,.24,0c.62,0,.91.87.91,1.54a1.64,1.64,0,0,1-.29,1.06.62.62,0,0,1-.53.19,1.35,1.35,0,0,1-.34,0s0,0,0-.11ZM77.61,52a.88.88,0,0,1-.53-.11c-.24-.13-.26-.3-.26-1V48.51s0-.07,0-.07h.31a.85.85,0,0,1,.6.24,2.76,2.76,0,0,1,.71,2C78.48,51.71,77.93,52,77.61,52Zm30.87.16a2.21,2.21,0,0,1-.37,0c-.22,0-.27-.22-.29-.49,0-.43,0-1.22,0-2.18V47.64c0-1.52,0-1.8,0-2.12s.07-.52.26-.57l.22,0c.07,0,.12,0,.12-.1s-.06-.08-.16-.08c-.27,0-.7,0-.88,0l-.94,0c-.12,0-.18,0-.18.08s0,.1.12.1a.75.75,0,0,1,.26,0c.16.05.23.21.25.56s0,.59,0,2.11V49.4c0,1,0,1.76,0,2.17s-.06.46-.21.5a.8.8,0,0,1-.26,0c-.08,0-.11,0-.11.07s0,.11.14.1l.92,0c.19,0,.65,0,1.13,0,.08,0,.14,0,.14-.1S108.56,52.11,108.48,52.11Zm191.61-6.57-.69,0-.62,0c-.07,0-.11,0-.11.08s.06.07.12.09a.18.18,0,0,1,.14.19,1.27,1.27,0,0,1-.1.43c-.09.25-.86,2-.94,2.21-.11-.23-.95-2.16-1.07-2.41a.76.76,0,0,1-.08-.28.12.12,0,0,1,.09-.12c.1,0,.14,0,.14-.11s0-.08-.09-.08l-.73,0c-.17,0-.51,0-.69,0,0,0,0-.06,0-.06l-.18,0a2,2,0,0,1-.43,0h-2.6a4.17,4.17,0,0,1-.63,0c-.16,0-.23-.1-.28-.1s-.06,0-.07.16-.14.86-.14,1,0,.14.06.14.06,0,.07-.11a1.92,1.92,0,0,1,.11-.28c.1-.18.25-.24.62-.25l.95,0V49.4c0,.75,0,1.4,0,1.75s-.05.39-.18.43a.67.67,0,0,1-.23,0c-.08,0-.1,0-.1.09s0,.09.12.09c.26,0,.69,0,.84,0s.61,0,1,0c.07,0,.12,0,.12-.09s0-.08-.1-.08a1.76,1.76,0,0,1-.33,0c-.19,0-.22-.19-.25-.43s0-1,0-1.76V46.06l.81,0c.57,0,.74.26.76.47v.09c0,.13,0,.17.08.17s.05-.05.05-.14,0-.68,0-.92l.13.08a1.72,1.72,0,0,1,.41.58c.23.43,1.1,2.24,1.15,2.36a2.25,2.25,0,0,1,.15.86v.68c0,.14,0,.48,0,.82s-.07.4-.2.44a.73.73,0,0,1-.22,0c-.08,0-.1,0-.1.09s.05.08.14.08l.82,0c.18,0,.6,0,1,0,.09,0,.14,0,.14-.09a.1.1,0,0,0-.11-.09,1.17,1.17,0,0,1-.32,0c-.19,0-.25-.2-.26-.44s0-.68,0-.82v-.66a2.62,2.62,0,0,1,.08-.82,28.55,28.55,0,0,1,1.23-2.64.92.92,0,0,1,.34-.38.6.6,0,0,1,.27-.1c.07,0,.12,0,.12-.1S300.16,45.54,300.09,45.54ZM103.3,49.22l-.75,0h-1c-.09,0-.14,0-.14.07a.1.1,0,0,0,.11.09.83.83,0,0,1,.24,0c.21.08.27.16.28.44s0,.56,0,1v.76a.31.31,0,0,1-.12.29.86.86,0,0,1-.45.08c-1.36,0-2.22-1.28-2.23-3.05a2.87,2.87,0,0,1,.58-2,1.48,1.48,0,0,1,1.23-.49,1.74,1.74,0,0,1,1.39.63,1.23,1.23,0,0,1,.22.67c0,.07,0,.11.07.11s.08-.06.08-.18c0-1,0-1.26,0-1.36s0-.09-.08-.1a2.59,2.59,0,0,1-.51-.08,5.52,5.52,0,0,0-1.13-.13,2.58,2.58,0,0,0-1.72.53,3.32,3.32,0,0,0-1.11,2.7c0,2.27,1.39,3.21,3,3.21a3,3,0,0,0,1.56-.37c.08-.06.08-.07.08-.29v-.91q0-.62,0-1c0-.29.07-.41.25-.44l.17,0a.09.09,0,0,0,.08-.09C103.43,49.23,103.39,49.22,103.3,49.22Zm11-3.16c-.32,0-.56,0-.63,0l-.81,0c-.1,0-.16,0-.16.08s0,.09.1.08a.83.83,0,0,1,.34.05c.15.08.21.23.21.73l.08,3.65h0c-.09-.11-1-1.27-1.38-1.84-.93-1.21-1.9-2.51-2-2.62s-.19-.27-.27-.27-.11.12-.11.28l0,4.88c0,.72,0,.94-.19,1a1,1,0,0,1-.29,0,.09.09,0,0,0-.1.08c0,.08.06.09.15.09.32,0,.63,0,.68,0s.42,0,.83,0c.09,0,.15,0,.15-.09s0-.09-.11-.09a1,1,0,0,1-.34,0c-.12-.06-.2-.26-.22-.89l-.08-3.36h0c.13.14.81,1.14,1.5,2s1.47,1.87,1.88,2.36a.34.34,0,0,0,.26.18s.1-.08.1-.27l.06-5.18c0-.47,0-.61.23-.68a.47.47,0,0,1,.19,0c.07,0,.11,0,.11-.09S114.41,46.06,114.33,46.06Zm-16.74,0-.62,0h-.81c-.1,0-.16,0-.16.07s0,.09.1.09a.76.76,0,0,1,.33,0c.16.08.21.22.22.72l.08,3.66h0l-1.38-1.84c-.94-1.21-1.9-2.51-2-2.62s-.19-.27-.27-.27-.11.12-.11.28l0,4.88c0,.71,0,.94-.19,1a1,1,0,0,1-.29,0,.09.09,0,0,0-.1.09c0,.08.06.09.14.09.33,0,.64,0,.69,0l.83,0c.09,0,.15,0,.15-.08s0-.09-.11-.09a.84.84,0,0,1-.34-.06c-.12-.06-.2-.25-.22-.89l-.08-3.35h0c.13.14.8,1.14,1.5,2s1.47,1.88,1.87,2.37a.4.4,0,0,0,.27.17s.1-.08.1-.26L97.21,47c0-.46.05-.6.23-.67a.47.47,0,0,1,.19,0c.07,0,.11,0,.11-.09S97.68,46.1,97.59,46.1Zm164.6-1.78c-.29,0-.74,0-.83,0s-.46,0-.83,0c-.1,0-.16,0-.16.09s.05.09.13.09a1,1,0,0,1,.26,0c.24.07.3.23.31.57s0,.6,0,2.12v1.24a4.47,4.47,0,0,1-.42,2.48,1.23,1.23,0,0,1-1,.54,1.12,1.12,0,0,1-.9-.4c-.36-.4-.57-1-.58-2.46v-1.4c0-1.51,0-1.79,0-2.11s.07-.52.26-.57a.82.82,0,0,1,.21,0c.08,0,.12,0,.12-.09s-.05-.09-.16-.09l-.89,0c-.22,0-.68,0-1.06,0-.11,0-.16,0-.16.09s0,.09.12.09a1.12,1.12,0,0,1,.29,0c.24.07.29.23.31.57s0,.6,0,2.12v1.45a4.1,4.1,0,0,0,.66,2.65,1.9,1.9,0,0,0,1.61.68,1.83,1.83,0,0,0,1.51-.72,4.84,4.84,0,0,0,.68-3V47.21c0-1.51,0-1.79,0-2.11s.07-.52.27-.57a.82.82,0,0,1,.21,0c.09,0,.13,0,.13-.09S262.29,44.32,262.19,44.32Zm-33.53,1.42-.62,0-.81,0c-.1,0-.16,0-.16.08s0,.09.1.09a.76.76,0,0,1,.33.05c.16.07.21.22.22.72l.08,3.66h0c-.1-.12-1-1.28-1.38-1.84-.94-1.21-1.9-2.51-2-2.62s-.19-.27-.27-.27-.11.11-.11.28L224,50.77c0,.71,0,.93-.19,1a1,1,0,0,1-.29,0,.09.09,0,0,0-.1.09c0,.08.06.09.14.09.33,0,.64,0,.69,0s.42,0,.83,0c.09,0,.15,0,.15-.09s0-.08-.11-.08a.82.82,0,0,1-.34-.06c-.12-.06-.2-.25-.22-.89l-.08-3.36h0c.13.15.8,1.14,1.5,2s1.47,1.87,1.87,2.37a.4.4,0,0,0,.27.17s.1-.08.1-.26l.05-5.19c0-.46.06-.61.23-.67a.51.51,0,0,1,.2,0c.07,0,.11,0,.11-.09S228.75,45.74,228.66,45.74Zm39.13-.11c-.32,0-.56,0-.63,0s-.48,0-.81,0c-.1,0-.16,0-.16.07s0,.09.1.09a.83.83,0,0,1,.34.05c.15.08.21.22.22.72l.07,3.66h0l-1.38-1.84c-.93-1.21-1.9-2.51-2-2.62s-.19-.27-.27-.27-.11.12-.11.28l0,4.88c0,.71,0,.94-.19,1a1,1,0,0,1-.29,0,.09.09,0,0,0-.1.09c0,.08.06.09.15.09.32,0,.63,0,.69,0s.41,0,.82,0c.09,0,.15,0,.15-.08s0-.09-.11-.09a.84.84,0,0,1-.34-.06c-.12-.06-.2-.25-.22-.89l-.08-3.35h0c.13.14.81,1.14,1.5,2s1.47,1.88,1.88,2.37a.33.33,0,0,0,.26.17c.05,0,.1-.08.1-.26l.06-5.18c0-.47.05-.61.23-.68a.47.47,0,0,1,.19,0c.08,0,.11,0,.11-.09S267.87,45.63,267.79,45.63ZM222.74,51.8a1.77,1.77,0,0,1-.33,0c-.19,0-.23-.2-.25-.43s0-1,0-1.76V48.14c0-1.25,0-1.48,0-1.74s.06-.41.23-.45l.19,0c.07,0,.11,0,.11-.09s0-.07-.13-.07l-.82,0-1,0c-.1,0-.14,0-.14.08s0,.09.11.09a.85.85,0,0,1,.25,0c.2.07.26.16.27.44s0,.56,0,1.81v.17s0,.06,0,.06h-2.41s0,0,0-.06v-.17c0-1.25,0-1.55,0-1.81s.07-.41.24-.45l.18,0q.12,0,.12-.09c0-.05,0-.07-.13-.07l-.85,0-.94,0c-.08,0-.13,0-.13.08s0,.09.1.09a.88.88,0,0,1,.26,0c.2.07.26.16.28.44s0,.49,0,1.74V49.6c0,.76,0,1.4,0,1.75s-.06.4-.19.44a.69.69,0,0,1-.22,0c-.08,0-.11,0-.11.09s.05.08.13.08l.82,0c.18,0,.62,0,1,0,.08,0,.13,0,.13-.09s0-.09-.11-.09l-.32,0c-.19,0-.23-.2-.25-.43s0-1,0-1.74V49s0-.05,0-.05h2.41a0,0,0,0,1,0,0v.63c0,.76,0,1.39,0,1.73s-.05.4-.18.44a.78.78,0,0,1-.24,0,.09.09,0,0,0-.1.09c0,.05.05.08.14.08l.84,0c.18,0,.6,0,1,0,.08,0,.13,0,.13-.09A.1.1,0,0,0,222.74,51.8Zm9.33-6.18c-1.94,0-2.68,1.82-2.67,3.22s.76,3.22,2.62,3.22c1.65,0,2.67-1.49,2.67-3.37S233.68,45.61,232.07,45.62Zm.21,6c-1.21,0-1.93-1.33-1.94-3,0-2,.83-2.54,1.54-2.54,1,0,1.85,1.12,1.86,2.94C233.74,51.33,232.73,51.61,232.28,51.61Zm-15.72-1.17c-.05,0-.06,0-.08.16a1.41,1.41,0,0,1-.22.55c-.25.38-.56.44-1.13.44-.85,0-2-.92-2-2.87a3.22,3.22,0,0,1,.58-2.14,1.45,1.45,0,0,1,1.2-.47,1.54,1.54,0,0,1,1.24.48,1.38,1.38,0,0,1,.25.76c0,.11,0,.18.06.18s.08-.09.09-.21,0-.62,0-.89,0-.38,0-.45,0-.09-.1-.1l-.64-.13a4.8,4.8,0,0,0-.93-.09,2.49,2.49,0,0,0-2,.88,3.62,3.62,0,0,0-.74,2.26,3.53,3.53,0,0,0,.81,2.42,2.75,2.75,0,0,0,2.19.89,3.14,3.14,0,0,0,1.15-.19.28.28,0,0,0,.17-.24,10.47,10.47,0,0,0,.13-1.1C216.63,50.52,216.6,50.44,216.56,50.44Zm-57.77-4.51c-.31,0-.55,0-.63,0l-.81,0c-.09,0-.16,0-.16.08s0,.08.1.08a.83.83,0,0,1,.34,0c.15.08.21.22.22.72l.07,3.66h0c-.09-.11-.94-1.27-1.38-1.84-.93-1.21-1.89-2.51-2-2.62s-.2-.27-.28-.27-.11.12-.11.28l0,4.88c0,.71,0,.94-.2,1a1.35,1.35,0,0,1-.29,0,.09.09,0,0,0-.1.08c0,.08.06.09.15.09.32,0,.63,0,.69,0s.41,0,.82,0c.09,0,.15,0,.15-.08s0-.09-.11-.09a.77.77,0,0,1-.33-.06c-.13,0-.21-.25-.23-.89l-.08-3.35h0c.12.14.8,1.14,1.5,2s1.47,1.88,1.87,2.37a.33.33,0,0,0,.26.17s.1-.07.1-.26l.06-5.18c0-.47,0-.61.23-.68a.47.47,0,0,1,.19,0c.08,0,.11,0,.11-.09S158.87,45.93,158.79,45.93Zm79.84,4.67s-.06,0-.07.13a1.29,1.29,0,0,1-.16.49c-.16.22-.4.23-.74.23-.5,0-.75,0-.85-.17s-.14-.68-.15-1.73V48.1c0-1.25,0-1.48,0-1.74s.06-.41.24-.45a1,1,0,0,1,.24,0q.12,0,.12-.09s0-.07-.14-.07l-.92,0-.88,0c-.09,0-.14,0-.14.08s0,.09.11.09a.62.62,0,0,1,.21,0c.21.07.27.16.28.44s0,.49,0,1.74v1.45c0,.76,0,1.41,0,1.75s-.05.4-.19.44a.65.65,0,0,1-.22,0c-.08,0-.1,0-.1.09s0,.08.12.08l.44,0h.37l.85,0c.32,0,.69,0,1.14,0s.37,0,.41-.23a8.2,8.2,0,0,0,.09-.95C238.69,50.69,238.68,50.6,238.63,50.6Zm11.16-1.78-.74,0-1,0c-.09,0-.14,0-.14.08a.09.09,0,0,0,.1.09.85.85,0,0,1,.25,0c.2.07.27.16.27.44s0,.56,0,1v.75c0,.15,0,.23-.13.29a.78.78,0,0,1-.45.09c-1.36,0-2.22-1.28-2.22-3.05a2.74,2.74,0,0,1,.58-2,1.47,1.47,0,0,1,1.23-.49,1.73,1.73,0,0,1,1.39.62,1.38,1.38,0,0,1,.22.68c0,.07,0,.11.06.11s.09-.06.09-.19c0-1,0-1.26,0-1.35s0-.09-.09-.1-.38-.06-.51-.08a5.35,5.35,0,0,0-1.13-.14,2.54,2.54,0,0,0-1.72.54,3.38,3.38,0,0,0-1.11,2.69c0,2.28,1.4,3.22,3,3.22a3,3,0,0,0,1.56-.38c.07,0,.07-.06.07-.29v-.91c0-.4,0-.73,0-1s.07-.41.24-.45l.18,0a.08.08,0,0,0,.07-.09C249.92,48.83,249.88,48.82,249.79,48.82Zm-8.23-3.23c-1.93,0-2.67,1.83-2.66,3.23s.76,3.22,2.62,3.21c1.64,0,2.67-1.48,2.66-3.37S243.18,45.59,241.56,45.59Zm.22,6c-1.21,0-1.94-1.33-1.94-3,0-2,.83-2.53,1.54-2.53,1,0,1.85,1.11,1.85,2.93C243.24,51.3,242.23,51.59,241.78,51.59Zm-30.33-.88s-.06,0-.08.13c0,.34-.11.51-.27.61a1.3,1.3,0,0,1-.6.11c-.66,0-.85-.13-.87-.69,0-.24,0-.94,0-1.22V49s0-.09,0-.09.89,0,1,0a.36.36,0,0,1,.36.31,1.67,1.67,0,0,1,0,.3s0,.07.06.07.07-.12.07-.18,0-.39,0-.55c0-.42.05-.56.05-.6s0-.09-.05-.09-.05,0-.1.1-.15.11-.3.13-1,0-1.12,0,0,0,0-.08v-2c0-.05,0-.08,0-.08l1,0c.31,0,.36.16.42.3a1.24,1.24,0,0,1,0,.3c0,.07,0,.11.05.11s.07-.1.07-.14,0-.45,0-.54a3.75,3.75,0,0,1,.05-.53s0-.08-.05-.08l-.1,0a1.9,1.9,0,0,1-.27.05h-1.74c-.18,0-.58,0-.92,0-.09,0-.14,0-.14.08s0,.08.11.08a.85.85,0,0,1,.25,0c.2.08.26.16.28.44s0,.5,0,1.75v1.45c0,.75,0,1.4,0,1.75s-.06.4-.19.43a.69.69,0,0,1-.22,0c-.08,0-.11,0-.11.09s.05.09.13.09l.44,0h1.1c.32,0,.7,0,1.18,0,.24,0,.3,0,.34-.21a6.84,6.84,0,0,0,.08-.91C211.5,50.82,211.5,50.71,211.45,50.71Zm43.15-5-.68,0-.62,0c-.08,0-.11,0-.11.08s.06.08.11.1a.17.17,0,0,1,.14.18,1.55,1.55,0,0,1-.09.44c-.09.25-.86,2-.94,2.2-.11-.23-.95-2.15-1.07-2.4a.81.81,0,0,1-.08-.28.12.12,0,0,1,.09-.13c.1,0,.14,0,.14-.1s0-.08-.09-.08l-.73,0-.8,0c-.08,0-.12,0-.12.08a.08.08,0,0,0,.09.09.6.6,0,0,1,.27.1,1.68,1.68,0,0,1,.42.58c.22.44,1.1,2.24,1.14,2.37a2,2,0,0,1,.15.86v.68c0,.13,0,.47,0,.82s-.06.4-.19.44a1.29,1.29,0,0,1-.23,0c-.07,0-.1,0-.1.08s.05.09.14.09l.83,0c.17,0,.6,0,1,0,.09,0,.14,0,.14-.08a.1.1,0,0,0-.11-.09,1.73,1.73,0,0,1-.32,0c-.19,0-.25-.19-.26-.43s0-.69,0-.82v-.66a2.69,2.69,0,0,1,.07-.83c.12-.34,1-2.3,1.24-2.63a1,1,0,0,1,.33-.39.6.6,0,0,1,.27-.1c.08,0,.13,0,.13-.09S254.67,45.67,254.6,45.67Zm-71.65.2c-.31,0-.55,0-.62,0l-.81,0c-.1,0-.16,0-.16.08s0,.09.1.09a.75.75,0,0,1,.33,0c.16.08.22.23.22.73l.08,3.65h0c-.09-.11-.95-1.27-1.38-1.84-.94-1.21-1.9-2.51-2-2.62s-.19-.27-.27-.27-.11.12-.11.29l0,4.87c0,.72,0,.94-.19,1a1,1,0,0,1-.29,0,.09.09,0,0,0-.1.09c0,.07.06.08.15.08.32,0,.63,0,.68,0s.42,0,.83,0c.09,0,.15,0,.15-.09s0-.09-.11-.09a1,1,0,0,1-.34-.05c-.12-.06-.2-.25-.22-.89l-.08-3.36h0c.13.14.8,1.14,1.5,2s1.47,1.87,1.87,2.36a.38.38,0,0,0,.27.18c.05,0,.1-.08.1-.27l.06-5.18c0-.46.05-.61.23-.68a.47.47,0,0,1,.19,0c.07,0,.11,0,.11-.09S183,45.87,183,45.87Zm-9.89,6.07a1.84,1.84,0,0,1-.33,0c-.18,0-.23-.16-.25-.38s0-1,0-1.8V48.28c0-1.25,0-1.48,0-1.75s.06-.4.24-.44a.63.63,0,0,1,.19,0c.06,0,.1,0,.1-.1s0-.07-.13-.07l-.82,0-.86,0c-.1,0-.15,0-.15.07s0,.09.1.09a.59.59,0,0,1,.23,0c.14.06.21.16.22.44s0,.49,0,1.74v1.45c0,.79,0,1.45,0,1.79s-.06.36-.19.4a.71.71,0,0,1-.23,0c-.08,0-.1,0-.1.08s0,.09.12.09l.84,0c.17,0,.61,0,1,0,.07,0,.12,0,.12-.09A.09.09,0,0,0,173.06,51.94Zm4.08-1.13s-.06,0-.07.12c0,.34-.11.52-.27.61a1.32,1.32,0,0,1-.61.11c-.65,0-.84-.12-.86-.68,0-.24,0-.94,0-1.22v-.66c0-.05,0-.09,0-.09s.89,0,1,0a.37.37,0,0,1,.36.32c0,.1,0,.21,0,.3s0,.07.06.07.06-.12.06-.19,0-.39,0-.55c0-.42.05-.55.05-.6s0-.09-.05-.09,0,.05-.1.11-.15.11-.31.13-1,0-1.11,0-.05,0-.05-.09v-2s0-.08,0-.08.89,0,1,0c.32,0,.37.15.42.3a.89.89,0,0,1,.05.3c0,.06,0,.1,0,.1s.06-.09.07-.13,0-.46,0-.54c0-.38,0-.48,0-.54s0-.07,0-.07-.06,0-.1,0a1.08,1.08,0,0,1-.27,0h-1.74l-.92,0c-.1,0-.15,0-.15.08s.05.09.11.09a.88.88,0,0,1,.26,0c.2.07.26.16.27.44s0,.49,0,1.74v1.45c0,.76,0,1.4,0,1.75s-.05.4-.18.44a.71.71,0,0,1-.23,0c-.08,0-.1.05-.1.09s0,.08.12.08l.45,0h.36l.74,0c.31,0,.7,0,1.18,0,.24,0,.29,0,.34-.21a8.8,8.8,0,0,0,.08-.91C177.2,50.91,177.19,50.81,177.14,50.81Zm-13.5-3.44c-.61-.62-.77-1-.78-1.43s.33-1,.86-1a.87.87,0,0,1,.8.49,1.53,1.53,0,0,1,.19.65c0,.12,0,.18.07.18s.08-.08.08-.3c0-.77,0-1.06,0-1.19s0-.1-.11-.12a2.56,2.56,0,0,0-1-.17,1.7,1.7,0,0,0-1.67,1.89,3.26,3.26,0,0,0,1.08,2.36l.33.36a2.13,2.13,0,0,1,.72,1.6,1,1,0,0,1-1,1.14c-.45,0-.88-.27-1-1a2.58,2.58,0,0,1-.07-.51c0-.08,0-.17-.07-.17s-.08.11-.09.26,0,.76,0,1.31c0,.22,0,.27.14.34a1.92,1.92,0,0,0,1.06.26,1.67,1.67,0,0,0,1.15-.41,2.34,2.34,0,0,0,.68-1.74,3.38,3.38,0,0,0-1.2-2.55Zm6.59,3.2s-.07,0-.08.16a1.48,1.48,0,0,1-.22.55c-.25.38-.56.44-1.13.44-.86,0-2-.92-2-2.88a3.25,3.25,0,0,1,.59-2.14,1.43,1.43,0,0,1,1.2-.46,1.47,1.47,0,0,1,1.23.48,1.3,1.3,0,0,1,.25.76c0,.11,0,.17.07.17s.08-.08.09-.2,0-.62,0-.89,0-.39,0-.45a.09.09,0,0,0-.09-.1l-.64-.13a4.8,4.8,0,0,0-.93-.09,2.43,2.43,0,0,0-2,.88,3.94,3.94,0,0,0,.06,4.68,2.73,2.73,0,0,0,2.2.88,3,3,0,0,0,1.15-.18.28.28,0,0,0,.17-.25,10.34,10.34,0,0,0,.13-1.09C170.3,50.64,170.27,50.57,170.23,50.57Zm100.53,1.1a1.66,1.66,0,0,1-.32,0c-.19,0-.24-.16-.26-.38s0-1,0-1.8V48c0-1.25,0-1.48,0-1.74s.07-.41.24-.45a.63.63,0,0,1,.19,0c.06,0,.1,0,.1-.1s-.05-.06-.13-.06l-.82,0-.86,0c-.1,0-.15,0-.15.07s0,.09.1.09a.67.67,0,0,1,.24,0c.13.06.2.16.22.44s0,.49,0,1.74v1.45c0,.79,0,1.45,0,1.79s-.06.36-.19.4a.71.71,0,0,1-.23,0c-.08,0-.1,0-.1.08s.05.09.13.09l.83,0c.17,0,.61,0,1,0,.07,0,.12,0,.12-.09A.09.09,0,0,0,270.76,51.67Zm-69.61.18a1.7,1.7,0,0,1-.78-.34,7.3,7.3,0,0,1-1-1,4.91,4.91,0,0,0,.7-2.37c0-.12-.11-.18-.24-.2a5.64,5.64,0,0,0-.88-.06.1.1,0,0,0-.11.1c0,.06,0,.08.09.08a.44.44,0,0,1,.35.15.67.67,0,0,1,.14.45,4,4,0,0,1-.34,1.54c-.14-.17-1-1.27-1.29-1.66a5.28,5.28,0,0,1-1.21-2.62c0-.85.47-1.14.78-1.14a.87.87,0,0,1,.8.44,1.76,1.76,0,0,1,.22.84c0,.15,0,.19,0,.19s.07,0,.08-.17.08-1,.08-1.28c0-.12,0-.2-.12-.26a1.94,1.94,0,0,0-.88-.2,1.74,1.74,0,0,0-1.76,1.84,2.8,2.8,0,0,0,.37,1.41A3.08,3.08,0,0,0,195,50a2,2,0,0,0,2,2.2,2.09,2.09,0,0,0,1.72-.91,1.83,1.83,0,0,0,1.71.77H201c.16,0,.22,0,.22-.09S201.21,51.85,201.15,51.85Zm-3.87-.29c-.75,0-1.39-.8-1.39-2.05a2.08,2.08,0,0,1,.49-1.52c.13.25.59,1,.78,1.25s.89,1.21,1.31,1.71A1.7,1.7,0,0,1,197.28,51.56Zm-9.21-1s-.07,0-.08.16a1.41,1.41,0,0,1-.22.55c-.25.38-.56.44-1.13.44-.85,0-2-.92-2-2.88a3.19,3.19,0,0,1,.58-2.14,1.46,1.46,0,0,1,1.2-.46,1.51,1.51,0,0,1,1.24.48,1.29,1.29,0,0,1,.24.76c0,.11,0,.17.07.17s.08-.08.09-.2,0-.62,0-.89,0-.39,0-.45A.09.09,0,0,0,188,46l-.64-.13a4.8,4.8,0,0,0-.93-.09,2.43,2.43,0,0,0-2,.88,3.94,3.94,0,0,0,.06,4.68,2.75,2.75,0,0,0,2.2.88,3,3,0,0,0,1.15-.18.28.28,0,0,0,.17-.25,10.34,10.34,0,0,0,.13-1.09C188.14,50.59,188.11,50.52,188.07,50.52Zm19.51-6.12-.19.05a2.57,2.57,0,0,1-.5,0H204a5.43,5.43,0,0,1-.72,0c-.18,0-.26-.12-.31-.12s-.07.06-.09.19-.15,1-.15,1.15,0,.16.07.16.06,0,.07-.12a2,2,0,0,1,.13-.35c.11-.22.28-.27.7-.29l1.08,0v4.1c0,.92,0,1.7,0,2.12s-.06.51-.21.55a1.2,1.2,0,0,1-.26.05c-.08,0-.11,0-.11.07s.05.1.14.1l.92,0c.2,0,.66,0,1.14,0,.07,0,.13,0,.13-.1s0-.08-.11-.08a2.21,2.21,0,0,1-.37,0c-.22,0-.27-.26-.29-.54s0-1.22,0-2.13V45l.91,0c.65,0,.84.3.86.56v.11c0,.15,0,.2.08.2s.06-.06.06-.16c0-.26,0-1,0-1.16S207.63,44.4,207.58,44.4ZM192.1,50.77s0,0-.07.12c0,.34-.11.52-.27.61a1.32,1.32,0,0,1-.61.11c-.65,0-.84-.12-.86-.68,0-.25,0-.94,0-1.22v-.66s0-.09,0-.09.89,0,1,0a.37.37,0,0,1,.36.32c0,.1,0,.21,0,.3a.06.06,0,0,0,.06.06c.06,0,.06-.11.06-.18s0-.39,0-.55c0-.42.05-.55.05-.6s0-.09-.05-.09,0,.05-.1.11-.15.11-.31.12-1,0-1.11,0-.05,0-.05-.09v-2s0-.08,0-.08.89,0,1,0c.32,0,.37.15.42.3a.89.89,0,0,1,0,.3c0,.06,0,.1.05.1s.06-.1.07-.13,0-.46,0-.55a4,4,0,0,1,.05-.53s0-.08-.05-.07l-.1,0a1.9,1.9,0,0,1-.27,0h-1.74l-.92,0c-.1,0-.15,0-.15.08s0,.09.11.09a.67.67,0,0,1,.26,0c.2.08.26.17.27.45s0,.49,0,1.74v1.45c0,.76,0,1.4,0,1.75s-.06.4-.19.44a.71.71,0,0,1-.23,0c-.08,0-.1.05-.1.08s.05.09.13.09l.44,0h.36l.74,0c.31,0,.7,0,1.18,0,.24,0,.29,0,.34-.21a8.8,8.8,0,0,0,.08-.91C192.16,50.87,192.15,50.77,192.1,50.77Z"/><path class="cls-2" d="M259.42,10.67v-.15a2,2,0,0,1,.46-.26,3.27,3.27,0,0,1,2.37.7v.15l.16.1v.52l.11.08c.07.1,0,.19.08.33a3.51,3.51,0,0,1,.34.7,6.82,6.82,0,0,1-.52,1.37c-.1.26-.05.56-.15.85s-.37.56-.45.81,0,.3,0,.45a5.12,5.12,0,0,0-.41,2.51h.08c.15.1.45,0,.6-.11.56-.27,1-.77,1.62-1s1-.22,1.58-.38c.22-.06.44-.26.65-.33s.71-.08.71-.08c.21.07.21.41.38.52s.28.07.42.15a2.16,2.16,0,0,1,.45.29,1.18,1.18,0,0,1,.11.19h.19l.31.29c0,.35,0,.67,0,1-.51.28-1.17.27-1.74.52-.39.17-.89.43-1.31.59l-.42,0a6,6,0,0,0-.83.3c-.13.06-.26.23-.38.29a4.72,4.72,0,0,1-.45.16c-.17.07-.4.22-.57.29a7.52,7.52,0,0,1-.79.34,2.28,2.28,0,0,0-.71.22l-.23.3c.12.43.37.39.72.59a3.57,3.57,0,0,0,.38.25c.1.05.18,0,.26.08a3.41,3.41,0,0,0,.57.4l.34,0c.11.05.23.23.34.29l.19,0a5.26,5.26,0,0,0,.76.55l.49.07.11.11.27,0,.07.11.76,0c.15.05.37.2.56.25.35.09.87-.06,1.13,0s.35.27.57.33a2.68,2.68,0,0,0,.91-.11.94.94,0,0,1,.56.11c.24.06.53-.1.83,0,.07,0,.12.1.23.1s.2-.16.38-.11.22.18.3.23c.39.22.93.21,1.36.4l.19.18.53.11c.13.07.28.23.41.29s.8.5.5,1a3.15,3.15,0,0,1-.94,1.08l-.27.37a4.08,4.08,0,0,1-.56.19l-.12.11c-.18.06-.28-.08-.37-.11a5.75,5.75,0,0,0-.91-.07.66.66,0,0,1-.38.07c-.16,0-.37-.2-.56-.14s-.17.13-.23.14c-.22.07-.29-.11-.41-.14h-.38c-.19,0-.41-.13-.64-.18h-.53c-.16-.06-.41-.2-.57-.26s-.53-.08-.83-.18c-.14-.05-.28-.24-.42-.3l-.37,0c-.25-.09-.55-.31-.8-.41l-.45,0a8.55,8.55,0,0,1-.79-.45H264l-.3-.3-.27,0-.19-.22c-.18-.12-.38-.14-.57-.25l-.22-.26-.26-.08c-.17-.09-.3-.28-.46-.36l-.26,0c-.11-.05-.18-.21-.31-.26l-.49,0a1.36,1.36,0,0,0-.75-.11c-.33.58,0,1.4-.15,2.1,0,.15-.11.38-.15.56s.08.42,0,.7a4.33,4.33,0,0,1-.16.52c0,.07-.15.15-.18.22,0,.22-.05.45-.08.67a6.09,6.09,0,0,1-1.2,1.85c-.13.09-.21,0-.37.11s-.27.21-.38.26a8.35,8.35,0,0,1-1.78.52c-.1,0-.21,0-.26,0s-.36.1-.49.11-.17-.07-.3,0a2.58,2.58,0,0,1-.57.12.37.37,0,0,0-.34-.22c-.07.06-.12.06-.26.07-.34-.48-1.08-.61-1.55-1-.21-.15-.22-.46-.38-.66s-.33,0-.42-.22,0-.23,0-.34-.39-.35-.49-.51,0-.27-.07-.41-.16-.17-.19-.26v-.14l-.27-.19c0-.13,0-.27,0-.41a3.45,3.45,0,0,1-.27-.88s.1-.15.11-.19v-.25a1.34,1.34,0,0,1,.38-.67c.13-.08.4,0,.53-.11a9.51,9.51,0,0,0,.67-.74c.12-.17.11-.36.27-.49.32-.25.95.37.94.81a1,1,0,0,0,0,.82c.08.13.32.1.45.18s.13.15.19.22a2.8,2.8,0,0,0,1.1.15,1.53,1.53,0,0,0,.71-.59c.11-.14.39-.1.49-.23s.2-.62.34-.81c0,0,.13,0,.15-.08s-.06-.28,0-.44.15-.14.19-.22.07-.36.11-.48v-.34c0-.06.13-.16.15-.22s0-.34,0-.52.26-.38.18-.55c-.08-.36-.59-.45-.87-.63a13.87,13.87,0,0,1-1.81-1.43c-.17-.16-.44-.25-.53-.48l.11,0a.66.66,0,0,1,.46,0c.44.17.91.47,1.39.62s1.4-.35,1.74-.56c.83-.5.64-1.4.93-2.4.2-.66.43-1.42.6-2.11V16c.08-.31.21-.78.3-1.07s0-.32,0-.48.21-.34.26-.48,0-.25,0-.37.23-.55.3-.78v-.22a4.37,4.37,0,0,0,.48-1.74.59.59,0,0,0-.41-.14S259.5,10.68,259.42,10.67Z"/><path class="cls-2" d="M192.47,24.67h.11c.25-.48.8-.33,1-.93-.18-.27.15-.67.18-.89,0-.05-.07-.22,0-.33s.26-.27.31-.41,0-.24,0-.37a2.89,2.89,0,0,0,.07-.59.45.45,0,0,0-.23-.07,6.2,6.2,0,0,1-.94.41,15.67,15.67,0,0,1-4.15,1.34A1.58,1.58,0,0,1,187,22c-.06-.09-.23-.21-.27-.3v-.37c-.08-.31-.33-.55-.26-.92.23,0,.27-.09.26-.37h.07s0,0,.12,0a1.84,1.84,0,0,0,1.51.51c.08,0,.16-.12.22-.15H189s.15-.13.23-.15.41.19.64.15.17-.18.26-.22.12.09.23-.08c-.14,0-.13,0-.19-.07a.35.35,0,0,1,0-.22h.08c.1-.06.2,0,.34,0,0,.15-.07.13-.12.26h.16c.1-.09.18,0,.33-.08l.19-.18h.19c.22-.08.55-.23.76-.3l.33,0c.27-.11.6-.34.87-.45l.23,0a3.52,3.52,0,0,1,.45-.3,4.71,4.71,0,0,0,1-.48,7.6,7.6,0,0,0,.49-1c0-.16,0-.32.07-.48a6.09,6.09,0,0,0,.49-1.22.87.87,0,0,0-.3,0,7.21,7.21,0,0,1-2.57.45h-.94a2.93,2.93,0,0,1-.8-.58c0-.09,0-.18-.07-.26s-.27-.13-.34-.22,0-.2,0-.3-.43-.16-.53-.4a1.53,1.53,0,0,0,.26-.08l.12-.18.34,0,.15-.15c.2-.08.38-.1.56-.18V13.4a2.9,2.9,0,0,0-.45,0v-.14a.59.59,0,0,1,.3-.12c.19.12.67-.3.83-.37h.42l.11-.15c.21-.11.43-.1.64-.22.51-.29,1.07-.62,1.58-.89.35-.19.84-.16.83-.71,0,0,0-.06,0-.14s.2-.1.23-.26-.08-.49-.12-.67a.45.45,0,0,1,.27-.11,6,6,0,0,0,.6.37l.27.33c.13.1.37.18.45.33s0,.22,0,.33l.26.23a2.41,2.41,0,0,1,.08.25c.07.09.22.07.26.19v.26c0,.1.15.2.19.29s0,.78,0,.78l-.19.15c-.05.11,0,.17,0,.33a2.74,2.74,0,0,1-.41.7c-.08.1-.2.08-.31.15s-.17.25-.26.37l-.34,0a2.82,2.82,0,0,0-.83.48c0,.07,0,0,0,.08.15.32.81.13.87.88a.9.9,0,0,0-.19.52.66.66,0,0,0,.35.07,5.75,5.75,0,0,0,1.05.18,2.46,2.46,0,0,0,.38.63c.09.1.2.05.26.18a.92.92,0,0,1,.08.38,2.7,2.7,0,0,0-.34.55l-.6.48c-.3.18-.69.06-1.06.19a10.26,10.26,0,0,0-1.2.78,7.91,7.91,0,0,0-.6,2.62.71.71,0,0,0,.15.08,4,4,0,0,1,.91-.56l.3-.33c.1-.07.21-.05.34-.11a5.86,5.86,0,0,0,.71-.52c.28-.21.4-.58.83-.63v-.11a.44.44,0,0,1,.23-.08c.06.09.18.11.23.19s0,.27.22.33c0,0,0,0,.12,0a.65.65,0,0,1,0,.22s0,0,0,.08a.9.9,0,0,0-.68.55h.11c.08-.08.17-.05.26-.11a2.46,2.46,0,0,0,.38-.41c.16.08.19.19.3.3a5.14,5.14,0,0,0,0,.55,3.44,3.44,0,0,0-.64.74,1.43,1.43,0,0,0,0,.22l.07,0c.26.2,1.13-.1,1.4-.19a24.72,24.72,0,0,0,2.86-1.26l.27,0c.2-.11.42-.34.64-.44h.19s0-.09,0-.15c-.35-.13-.48-.39-.75-.59a3,3,0,0,1-.46-.3c-.16-.19-.24-.48-.45-.62s-.32-.14-.42-.26c-.22-.28-.36-.79-.57-1.11s-.77-.74-.79-1.11h.07a3.48,3.48,0,0,1,1.4.11,6.36,6.36,0,0,1,1.51,1c.15.11.23.32.38.44s.56.5.53.81.22.64.15.78-.08.11-.11.26.06.12,0,.29a.85.85,0,0,0,.53-.07,1.37,1.37,0,0,1,.22-.3,6.14,6.14,0,0,1,.15-1.89,2.73,2.73,0,0,0,0-1.07l0-.77-.45-.3c-.13-.16-.17-.36-.34-.48a3.12,3.12,0,0,1-.91-.73,5.49,5.49,0,0,0-1.06-1.33H203l-.16-.15c-.11-.05-.26,0-.34,0s0,0,0-.07h0c.07-.19.28-.16.53-.15.24-.17.52-.06.76,0h.49a3.83,3.83,0,0,1,.49.15c.39.15.7.59,1.21.62a5,5,0,0,0,.34-.85V11.13c0-.16.14-.49.19-.66s0-.25,0-.37.22-.72.3-1a3.47,3.47,0,0,0-.05-1.3c0-.1,0-.17,0-.22a1,1,0,0,0-.07-.55l0,0c.1,0,.16.09.23.11h.3l.38.37a5,5,0,0,1,1.25,1.21c.05.09,0,.2.08.3s.27.2.34.37,0,.46.11.77a11.33,11.33,0,0,1,.12,2.45,4.85,4.85,0,0,1-.11.55c0,.06-.13.13-.15.19-.14.39-.05.78-.19,1.14a3.89,3.89,0,0,0-.18.41c0,.21,0,.42,0,.63a2.1,2.1,0,0,0-.15.3c-.13.46.2.83.07,1.33a10.47,10.47,0,0,0-.29,2.25.35.35,0,0,0,.15.07c.35.17,1-.21,1.47-.11,1.09.24,2,.42,2.35,1.44.09.31-.1.52-.11.77-.2.12-.26.31-.53.34s-.78,0-1.1.07c-.56.14-1.94.52-2.15.93a8.27,8.27,0,0,0-.29,1.63v.78c-.38,1.27-.07,3-.33,4.1a1.26,1.26,0,0,0,0,.45c0,.66,0,2.38,0,3-.1.42-.08,1.14-.18,1.59,0,.24,0,.47,0,.7s-.76.79-.61,1.26c.05.13.16.18.2.37-.14.14-.13.22-.42.23-.19-.38-.29-.82-.46-1.22a1.17,1.17,0,0,0-.3-.19l-.38,0c0-.08-.05-.15-.07-.23l-.23-.07a2.44,2.44,0,0,1-.53-.7v-.41c0-.06-.16-.09-.19-.14s0-.15,0-.23-.13-.29-.15-.4a12.47,12.47,0,0,1,.25-3.23c0-.57,0-1.14,0-1.71.07-.34.06-.69.14-1s0-.79,0-1.19a9.62,9.62,0,0,0,.29-2.14.69.69,0,0,0-.41-.07s-.12.16-.15.18h-.19c-.18.12-.38.33-.57.45s-.33.08-.52.18-.32.37-.53.45h-.3c-.42.12-.8.3-1.25.44-.24.09-.88.51-1.2.45a2.4,2.4,0,0,1-.23-.11c-.42-.11-1,0-1.32-.21l-.27-.37c-.2-.21-.31-.24-.38-.59-.15-.08-.45-.36-.72-.19s-.39.38-.6.56c-.43.35-1,.62-1.43.93-.2.13-.53.23-.64.44-.3.37-.09.85,0,1.26s-.12.7,0,1.11c0,.11.24,1.43.23,1.48a3.91,3.91,0,0,1-.42.51l-.18,0c-.1.07-.07.2-.19.26s0,0-.12,0c-.22-.24-.7-.31-.87-.59l0-.22c-.05-.09-.22-.21-.27-.3V30.1c0-.1-.15-.2-.19-.29v-.19c0-.11-.22-.12-.26-.22s0-.38,0-.44,0-.4,0-.6.17-.2.08-.44l-.12,0c-.1.14-.14.07-.3.15s-.3.31-.45.41a6.74,6.74,0,0,1-.72.26c-.37.19-.74.54-1.13.71h-.26c-.09,0-.23.13-.3.15a3.44,3.44,0,0,1-.95-.33c-.11-.13-.12-.31-.22-.45a2.39,2.39,0,0,1-.23-.22c0-.19,0-.39,0-.59s-.19-.21-.23-.41c.14-.15.15-.45.26-.62s.55-.33.72-.56a11.54,11.54,0,0,1,1.5-1.89l.27-.41.3-.07c.17-.11.09-.21.19-.37a2.14,2.14,0,0,1,1.17-.49c.3.31.32.22.79.3a1.47,1.47,0,0,1,0,.44A5.08,5.08,0,0,0,192.47,24.67Z"/><path class="cls-2" d="M191.91,13.25v.11c.06,0,0,0,.07,0s0,0,.08,0,0,0,0-.08H192A.21.21,0,0,0,191.91,13.25Z"/><path class="cls-2" d="M190.74,13.29l.26,0c0,.11.05.1.08.23H191c-.09.06-.23,0-.34,0a.36.36,0,0,0,0-.11A.35.35,0,0,0,190.74,13.29Z"/><path class="cls-2" d="M113.17,11.18a2.9,2.9,0,0,0,.19.29,4.92,4.92,0,0,0,.23.71c.06.1.21.18.26.29s.05.27.08.41l.45.37.3,0c.21.1.34.35.53.45s.32.07.46.18c.5-.06.62-.61.9-.89a2.81,2.81,0,0,0-.46-1.18l-.22-.19a2.87,2.87,0,0,1-.31-.4v-.19l-.45-.33c-.11-.14-.08-.35-.19-.48a2.78,2.78,0,0,0-1.78-1.14,2.71,2.71,0,0,1-.49.22c-.1.56.3.92.46,1.33C113.14,10.83,113.16,11,113.17,11.18Zm11.71,5.18c-.17-.11-.28-.28-.49-.33,0-.17.07-.13.11-.26a12.69,12.69,0,0,0-2.22-.62h-.57a15.86,15.86,0,0,0-3.47-.36,7.07,7.07,0,0,1-1.48,0,8.44,8.44,0,0,0-1.43.3l-.57,0c-.91.4-2,.68-2.9,1-.37.15-.74.16-1.09.34s-.78.43-1.17.59-.57.07-.83.19-.38.24-.53.3h-.3c-.06,0-.16.12-.23.14a5.92,5.92,0,0,1-2.33.49c-.18-.18-.39-.31-.57-.48h-.27l-.3.26c0,.19-.07.37-.11.56a3.63,3.63,0,0,0,.84,1.62c.18.14.5.14.68.3.24,0,.23-.1.37-.15h.27c.18-.09.31-.37.52-.45H107c.34-.12.72-.37,1.09-.48a4.52,4.52,0,0,0,.68-.15l.15-.15.31,0c.13-.05.31-.21.45-.26l.45,0s.12-.1.15-.11l.53,0c.08,0,.16-.12.22-.15h.27c.38-.13.82-.44,1.17-.59h.3c.14,0,.35-.12.49-.15l.64,0a18.77,18.77,0,0,1,2.23-.75,7.21,7.21,0,0,1,2.15.15h.53a8.47,8.47,0,0,0,1.32.15,2.88,2.88,0,0,1,.83,0c.07,0,.18.12.26.14h.64c.32.08.76.07,1.1.19a1.77,1.77,0,0,0,.83.14c.15,0,.27-.17.45-.22a1.2,1.2,0,0,1,.6-1.08Zm-2.57,12.32c-.12-.09-.21-.34-.3-.41l-.3-.07a8.38,8.38,0,0,0-.83-.52c-.19-.07-.38,0-.61-.07-.08,0-.19-.13-.26-.15h-.46a6.75,6.75,0,0,0-1.92-.32l0,0a1.75,1.75,0,0,1,.83-1.48c.11-.06.18,0,.26,0s.28-.2.3-.23c.23-.16.2-.62.49-.81-.07-.41-.77-1-1.06-1.25,0-.44.36-.63.56-.89s.11-.42.23-.63l.64-.48c.24-.17.88-.38,1-.6l0-.22c.65-1.51-1.21-2.16-2.8-2.14-.26.22-.77.05-1.16.16-.23.06-.61.23-.83.29h-.53c-.11,0-.18.16-.27.19H115c-.06,0-.13.13-.19.15h-.3c-.14.05-.45.2-.6.26-.41.17-1,.11-1.29.37-.37,0-.28,0-.37-.29,0-.11-.13-.17-.16-.3a2.9,2.9,0,0,1-.71-.33c-.11-.05-.29,0-.38-.07s-.22,0-.27.07a5.25,5.25,0,0,0-.29,2c.06.18.21.5.26.7s0,.54,0,.81c0,.07.13.15.16.22l0,.56a3.27,3.27,0,0,0,.54.81l.3.11c.19.13.56.73,1,.48.14,0,.13,0,.23.11a2.34,2.34,0,0,0,0,1c0,.06.13.12.15.18s0,.25,0,.37.2.18.26.33.43.16.64.08l.15-.15a2.06,2.06,0,0,1,.68.07,1.7,1.7,0,0,1-.22,1.29s-.44.21-.49.23H114c-.07.05-.17.34-.26.41l-.38.11c-.1.06-.19.2-.3.26a3,3,0,0,0-.42.15l-.26.25c-.09.05-.19,0-.3,0a2.13,2.13,0,0,0-.45.34.41.41,0,0,1-.19,0l-.12,0a3,3,0,0,1,.12-.74.75.75,0,0,1,.52-.59c.19-.07.41,0,.53-.08s.05-.25.11-.33c0-.48-.14-.39-.34-.62a2,2,0,0,0-.64-.63c-.72-.36-1.62.32-2,.67l-.38.63c-.06.16.09.54,0,.77l-.15.15c-.08.15,0,.34,0,.52s-.1.12-.11.15v.81a1.86,1.86,0,0,0,1,1.77l.34.08a3.67,3.67,0,0,0,.57.36,3.17,3.17,0,0,0,1,0c.34-.35.8-.71,1.17-1s.76-.41,1-.78h.22a9.56,9.56,0,0,1,0,1.78c0,.24.09.75.07.85a1.19,1.19,0,0,0,0,.63l.11.11v.25c.09.17.42.22.57.34s0,.07,0,.11l.57.55c.35,0,.62-.46.9-.63a7,7,0,0,0,.18-1.48,7.31,7.31,0,0,1-.11-2.18c.09-.4.23-.71.33-1a5.4,5.4,0,0,1,.34-1.15,3.68,3.68,0,0,0,.41-.15,1.24,1.24,0,0,1,.49.07l.72.07a3.33,3.33,0,0,1,.8.48c0,.16,0,.32,0,.48a7.68,7.68,0,0,1-.9,1.22c0,.22,0,.23.19.3,0,.12,0,.09-.08.15a.14.14,0,1,0,.27.07c.23,0,.15.14.3.22a2.51,2.51,0,0,0,1.85.37c.43-.13.34-.33.56-.56s.31-.13.45-.22c.32-.21.49-.64.91-.74,0-.48.21-.65,0-1.11A3.39,3.39,0,0,0,122.31,28.68Zm-6.51-6.6c-.2.12-.53.57-.71.67h-.19l-.3.33c-.14.08-.3.05-.45.11a2.45,2.45,0,0,0-.72.48c-.39,0-.31-.27-.45-.51a2.94,2.94,0,0,1-.5-1.48,12.19,12.19,0,0,1,1.66-.82h.3c.21-.05.47-.14.64-.19l.61,0c.29-.09.64-.3.94-.41.46-.19,1-.08,1.28-.34.08,0,.07,0,.11,0h.16C117.91,20.7,116.51,21.66,115.8,22.08Z"/><path class="cls-2" d="M299.71,16.21c0-.06-.18-.08-.23-.15a4.24,4.24,0,0,0-1.21-1.25c-.18-.1-.46,0-.68,0a4.49,4.49,0,0,0-2.49-.17c-.14,0-.22-.06-.3-.08a1.48,1.48,0,0,0-.68.12h-1c-.24.06-.49.07-.79.15s-1,.2-1.36.3l-.6,0a7.66,7.66,0,0,1-1,.26c-.09,0-.11,0-.15,0h0c.09-.24.22-.13.42-.26s0-.14.07-.22a5.22,5.22,0,0,1,.45-.33,1.41,1.41,0,0,0,0-.33,1.1,1.1,0,0,0,.68-.6v-.26c0-.08.24-.13.3-.22.17-.24.22-.5.38-.74s.32-.32.41-.48a4.68,4.68,0,0,1,.19-.45c.18-.24.58-.22.87-.37l1-1a1.27,1.27,0,0,0,.11-.63,4.84,4.84,0,0,1-.3-.44,3.27,3.27,0,0,0-1-.52,4.08,4.08,0,0,0-3.32.86,2.8,2.8,0,0,0-.9.63c-.41,0-1-.24-1.44-.1-.8.24-1,1.09-1.47,1.7-.13.2-.43.26-.56.45-.39,0-.2-.18-.27-.41h0a5.16,5.16,0,0,0-.16-.52c-.09,0-.16.08-.22,0s-.18-.2-.23-.33c-.54,0-.46.48-.56.93a1.83,1.83,0,0,0-.15,1.1c0,.14.21.22.26.34s0,.31.15.4c.33.28.62.23.91.63.17,0,.53.1.68,0,.79,0,.43-.41.83-.71s.77-.32,1-.59c.09-.1,0-.22.07-.37s.17-.24.19-.37-.07-.21-.08-.26c-.13-.57-.12-1-.68-1.14,0-.22.05-.2.15-.3.34.06.41.39.64.55a15.32,15.32,0,0,1,1.52,1,4.55,4.55,0,0,1-.19.7c-.15.23-.47.39-.6.63s-.16.5-.3.74a9.74,9.74,0,0,1-.83.89c0,.07,0,.07,0,.11s.06.1.19.07v.3h.19a.59.59,0,0,1,.22-.19.3.3,0,0,0,0-.15,1.87,1.87,0,0,1-.22-.07s0,0,0-.07,0,0,0-.08c.2,0,.37.15.6.07s.57-.6.68-.77a.42.42,0,0,1,.19.07c-.14.49-.71.89-1,1.26,0,.05,0,.1,0,.15a5.44,5.44,0,0,1-1,.41v0s0,0,0-.07.14-.22.27-.3a.38.38,0,0,0-.08-.22c-.06,0,0,0-.07,0-.69,0-.62.47-.95.63-.17.09-.27,0-.37.15a1.29,1.29,0,0,1-.38.45c-.22.11-.45.09-.68.18s-.75.42-1.09.6-.62.14-.83.33a.37.37,0,0,1-.26-.07,1.84,1.84,0,0,1,.18-.56c.06-.16-.09-.27-.11-.37v-.22l-.34-.33c-.14-.18-.23-.45-.35-.63s-.4-.12-.56,0,0,.32-.15.59-.37.65-.49.92-.06.39-.15.59l-.11.12c-.12.26-.1.48-.22.74s-.22.28-.27.4,0,.5-.11.71c0,0-.16.08-.19.14s0,.23,0,.34a7.54,7.54,0,0,1-.29.88c-.11.22-.32.52-.42.75s-.05.37-.07.55-.21.26-.26.37,0,.32,0,.48-.2.43-.27.59c-.12.33-.11.68-.25,1s-.42.4-.38.67c0,0,.1.15.11.18s0,.36.08.48a.39.39,0,0,0,.3-.07c.13-.07.1-.23.19-.33l0,0c.14.27.4.38.56.62.16-.05.24-.17.38-.25,0-.69.28-.82.41-1.26v-.3c.06-.2.17-.42.23-.63v-.26l.15-.15,0-.33c.08-.2.24-.55.3-.77s0-.25,0-.38.18-.24.23-.33l0-.4a2.84,2.84,0,0,1,.49-.82,4.32,4.32,0,0,1,.64-.19L282,20c.23-.15.47-.19.72-.34l.07-.11.34,0a9.23,9.23,0,0,0,.91-.56,6.78,6.78,0,0,1,.79-.3c.11-.05.2-.18.3-.22l.3,0a8.72,8.72,0,0,1,1.32-.56h.3c.24-.06.56-.22.79-.29l.27,0a5.42,5.42,0,0,1,.6-.26l.26,0a5.64,5.64,0,0,1,.76-.45h.49s.12-.1.15-.11l1.13,0a8,8,0,0,1,3.82.06,3.47,3.47,0,0,1-1,2c-.08.1-.25.1-.34.19a3.14,3.14,0,0,0-.3.7c.41,0,.82-.05,1.25,0a1.12,1.12,0,0,0,.08.26,1.26,1.26,0,0,0,.67,0l1,0a4.94,4.94,0,0,0,.49-.3c.45-.21,1.13-.1,1.59-.3a2.47,2.47,0,0,0,.79-.63c0-.11,0-.22,0-.33s.29-.38.37-.55A2.71,2.71,0,0,0,299.71,16.21Zm-13-.15a.49.49,0,0,1,0-.11l.07,0v.07Zm3.87-4.89-.11,0s0,.18,0,.22l-.07,0,0,0c0-.16.08-.14.11-.22l-.07-.15v0l.26-.18a3.11,3.11,0,0,0,.15-.33h.19a.08.08,0,0,0,0,0A1,1,0,0,1,290.56,11.17ZM289,10.1a.51.51,0,0,1,0-.26c.15-.41,1.35-.55,1.73-.85h.12l.07.07c0,.47-.5.87-.75,1.15a3.69,3.69,0,0,0-.3.7C289.68,10.89,289.22,10.26,289,10.1Zm-4.75.39s0,0,0,0c0-.21-.1-.21-.19-.33a.55.55,0,0,0-.19.37Zm9.85,13.68c-.07,0-.05-.16-.11-.22s-.83-.17-1.14-.25a2.8,2.8,0,0,0-.3-.15c-.38-.09-1.14.21-1.51,0s-.17-.77-.34-1.11c-.06-.11-.25-.27-.19-.51a4.67,4.67,0,0,1,1.13-1.34c.12-.09.3-.12.37-.26a1.58,1.58,0,0,0-.08-1.44,3.21,3.21,0,0,0-1.17-.58l-.45,0a1.42,1.42,0,0,0-.6-.07c-.22.05-.48.17-.68.22h-.34a8,8,0,0,0-1.62.75c-.25.13-.52.15-.76.3l-.19.18c-.22.11-.42.1-.64.23-.76.44-1.63.89-2.37,1.37-.18.12-.48.06-.68.19s-.18.28-.3.37v.26c.12.1.17.27.34.33a3.37,3.37,0,0,0,1.59-.19c.66-.37,1.47-.63,2.11-1,.23-.15.32-.48.6-.6h.3a7.25,7.25,0,0,0,1.28-.63,1.05,1.05,0,0,1,.34,0c-.14.6-.75.91-1.13,1.3a3.28,3.28,0,0,0-.26.92c0,.13.12.34.15.48a.57.57,0,0,1,0,.22c0,.23.07.47.11.7a2.43,2.43,0,0,0,.34.48,2.26,2.26,0,0,1,.57.15c0,.43-.87.61-1.24.74s-.61.13-.91.23-.93.36-1.39.48h-.83c-.1,0-.2-.18-.31-.22s-.54-.06-.72-.22a.45.45,0,0,0-.26.08,6.69,6.69,0,0,0,.65,1.62c.07.14.1.43.23.52a2.78,2.78,0,0,0,2.11.33l1,0c.35-.09,1.62-.72,1.89-.53s.15.93.07,1.22c-.2.75-.32,1.77-.55,2.48-.14.4-.16.9-.53,1s-.58-.08-.79-.19a2.68,2.68,0,0,1-1.4-1.29c-.12.05-.12,0-.15.15a.46.46,0,0,1-.27-.07,5.39,5.39,0,0,0-.46-1.81c-.33,0-.37.33-.6.44s-.17,0-.22,0c-.31.32-.07.46-.61.71-.12.53-.13,1.21-.26,1.73h-.15a3.71,3.71,0,0,1-.07.41c.12.22,0,.36.15.63,0,.08.27.48.34.59l.27.18a4.25,4.25,0,0,0,1.17.93c.09.05.2,0,.3.07s.31.34.49.4.32-.09.49,0,.31.43.65.48.57-.19.75-.26c.33-.14.71,0,1-.22.08-.06.3-.45.42-.56a4.6,4.6,0,0,0,1.16-1.85c0-.12,0-.25,0-.37S290,32,290,32c0-.23-.25-.31-.16-.63.2-.67.39-1.43.6-2.07.12-.37,0-.85.08-1.22,0-.06.12-.16.15-.23s0-.35.07-.55.16-.14.19-.22,0-.26.07-.37a2,2,0,0,1,.94-.48h.42c.05,0,.12-.12.19-.15.53-.15,1.26.12,1.66-.18.15-.11.08-.25.19-.41l.45-.45C294.82,24.39,294.49,24.43,294.11,24.17Z"/><path class="cls-2" d="M100.88,16.94c0-.43-.25-.28-.49-.45l-.15-.22c-.09-.06-.21,0-.31-.07l-.11-.15c-.15-.09-.29-.06-.45-.15s-.05-.13-.08-.14h-.38c-.13,0-.25-.19-.38-.26a2.23,2.23,0,0,1,.3-1c0-.44-.3-.56-.45-.84,0-.09,0-.18,0-.26s-.47-.49-.57-.67,0-.21-.11-.29a2.87,2.87,0,0,0-.49-.26c-.25-.15-.49-.39-.76-.52a2.79,2.79,0,0,0-.83,0s0,0-.08,0,.12.21,0,.29c.07.34.49.33.57.7,0,.11-.08.16,0,.34a2.67,2.67,0,0,1-.68,1.92c-.1.16-.13.42-.26.56s-.18.07-.22.14-.07.32-.12.41l-.34,0s-.06.19-.11.22-.23,0-.3,0-.08.18-.15.22-.41.17-.45.19a4.78,4.78,0,0,1-1.47-.18c-.3-.06-.59.13-.8.18a2,2,0,0,0,.53,1c.05.07.16.07.19.15.11.28.08.65.23.89s.17.07.3.14.28.38.42.52A2.86,2.86,0,0,1,92,21c-.3.5-.47,1-.79,1.52a12.21,12.21,0,0,1-.79,1c-.13.18-.2.38-.34.56s-.34.19-.49.29a3.32,3.32,0,0,0-1,1.41c-.13.42.22.69.27.93s-.15.28-.11.44.21.22.26.33l.12.63.49.41c.17.23.23.54.41.77s.41.28.5.52a3.16,3.16,0,0,0,1.24.18c.11,0,.28-.12.42-.15a1.57,1.57,0,0,1,.45,0,3.55,3.55,0,0,0,1-.11c.27-.06.42.07.64,0a3.67,3.67,0,0,0,.75-.3c.11-.06.23-.22.34-.26h.53A2.88,2.88,0,0,0,97,28.44c.14-.3.06-.53.15-.89a1.12,1.12,0,0,0,.07-.73,6,6,0,0,0-.72-1.3,8,8,0,0,0-1-.07H94.9c-.07,0-.18-.16-.26-.18-.3-.09-.59.17-.87,0-.24,0-.35,0-.38-.18s0,0,0-.07.11-.29.15-.45-.06-.55,0-.74.19-.19.23-.3a6.84,6.84,0,0,1,.56-1.25c0-.07.13-.07.19-.11s.14-.22.23-.34l.34-.3a2.52,2.52,0,0,0,.15-.44,4.2,4.2,0,0,1,1-1.18h.35c.09,0,.19-.16.29-.19H98c.27-.07.51-.23.72-.3s.38,0,.56-.11l.38-.45c.39-.29.94-.56,1.13-1C100.84,17.66,101,17.12,100.88,16.94ZM85.79,20.45a3.32,3.32,0,0,1-.23-.4c-.24,0-.17.14-.22.33s-.36,0-.42,0-.12.29-.3.11c-.34,0-.39.62-.56.85s-.22.17-.3.3a.44.44,0,0,1-.23-.08l0-1.25c0-.14-.18-.34-.22-.48s0-.32,0-.48-.13-.17-.15-.23,0-.22,0-.33-.12-.19-.15-.26v-.25c0-.12-.15-.22-.19-.3v-.37a2,2,0,0,0-.19-.33c0-.08-.15-.06-.23-.11s-.19-.32-.3-.44-.14,0-.23-.08c-.26-.14-.52-.47-.79-.59s-.48-.05-.76-.14-.5-.4-.64-.44-.57,0-.79,0a10,10,0,0,0-1.63-.59S77.08,15,77,15a.3.3,0,0,0-.15.07c0,.08,0,.07,0,.11.1.24.44.3.64.44s.28.45.42.67c0,.07.17.08.22.14a2.26,2.26,0,0,1,.42.74c0,.16,0,.32,0,.48s.22.42.16.63-.18.17-.11.37.13.13.15.18v2c0,.29-.07,1.7-.07,1.7,0,.28-.24.31-.38.48a6.22,6.22,0,0,1-1.54-.4c-.27-.09-.5,0-.68-.18a3,3,0,0,0-1.1.07V23a5,5,0,0,1,.8.85c0,.08,0,.17.07.26s.13.06.19.11a1.55,1.55,0,0,1,.35.44c.15.21.48.34.64.55s.09.25.19.33.24,0,.3.11.11.5.23.7l.23.15v.3c0,.06.13.12.15.18.08.26-.15.3,0,.48,0,.17,0,.17-.11.22s.26.34.34.59a.82.82,0,0,1,0,.37l0,1.26c0,.06-.13.14-.15.19s0,.2-.15.29v1.11l.19.15a4.18,4.18,0,0,0,.49.85c.06.06.17,0,.23.11s.26.5.45.62h.12l.18.23c.11.05.22,0,.31.07.5-.06.61-.55.94-.78s.55-.06.75-.19.15-.52.27-.77l.11-.11c.1-.29.07-.49.18-.74s.17-.15.23-.23a2.78,2.78,0,0,0,.19-.44c0-.21.07-.42.11-.63s.21-.2.26-.33.06-.3.15-.48.24-.31.3-.45,0-.21.08-.29l.19-.12c.08-.12.06-.28.14-.4l.23-.23c0-.14,0-.29,0-.44s.16-.07.22-.15l.12-.4c0-.1.18-.21.22-.3s.07-.42.19-.63l.15-.15v-.4c0-.08.12-.22.15-.3s0-.22,0-.33c.1-.3.28-.68.37-1l0-.74c0-.18.24-.53.19-.74s-.13-.13-.15-.19C85.56,21.14,86,20.89,85.79,20.45Zm-1-.62s0,.07,0,.11h.08C84.83,19.86,84.84,19.86,84.81,19.83Zm-.19.63a.42.42,0,0,0,.15-.08c0-.17,0-.21-.11-.26s-.12.18,0,.3Z"/><path class="cls-2" d="M191.43,19.42c.06,0,.15.07.08.15l-.11,0Z"/><path class="cls-2" d="M190.64,19.72v-.11h.08a.41.41,0,0,1,.19,0l0,0v.07h-.07A.37.37,0,0,1,190.64,19.72Z"/><path class="cls-2" d="M198.91,20.44v-.15a.24.24,0,0,0,.15-.08c.07,0,0,0,.08,0s0,.06,0,.15A.83.83,0,0,1,198.91,20.44Z"/><path class="cls-2" d="M204.76,20.83c0,.07-.08.07-.11.18h.07c.07-.08.09,0,.12-.18Z"/><path class="cls-2" d="M245.44,29.45c0-.13,0-.27,0-.4a5.74,5.74,0,0,0-1.32-.89l-.45-.07c-.14,0-.3-.18-.46-.22l-1.13,0c-.65-.2-1.48-.26-2.15-.44l-.83,0c-.43-.15-.88-.39-1.36-.55a6.45,6.45,0,0,1-1.21-.32,1.29,1.29,0,0,1,.11-.63v-.59c.07-.29.22-.6.3-.86v-.29a8.24,8.24,0,0,0,.78-2.59c-.19-.19-.3-.52-.53-.67s-.26,0-.41-.11a2.65,2.65,0,0,0-.61-.29,3.26,3.26,0,0,0-1.85.49,1.31,1.31,0,0,1-.37,0,4.78,4.78,0,0,1,.6-1.7l0-.41.42-.48.33-.08c.13,0,.21-.21.34-.26h.23c.24-.08.44-.32.68-.4l.45-.08c.12-.06.17-.25.27-.33s.68-.25,1-.41l.34-.34h.26c.17-.05.39-.24.56-.29s.41,0,.53,0H240a.71.71,0,0,0-.11-.37l.3-.3c0-.43-.25-.6-.42-.88-.13,0-.29,0-.45-.08l-.19-.18a5.29,5.29,0,0,0-.57-.15,2.69,2.69,0,0,0-.38-.18,3.06,3.06,0,0,0-1.24.3c-.14,0-.18-.06-.23-.07s-.53.19-.6.29a.53.53,0,0,1-.31-.07,3.44,3.44,0,0,1,.42-1l0-.33a4.14,4.14,0,0,1,.87-1.74c0-.17-.06-.34-.08-.52s-.31-.24-.45-.36c-.45-.38-.7-.86-1.55-.85,0,0-.16.11-.12.22l.23.11a2.08,2.08,0,0,1,.27.85,26.49,26.49,0,0,1-.86,2.81c-.11.28-.08.51-.19.78s-.36.62-.49.89a2.48,2.48,0,0,1-.15.41c-.26.37-.91.49-1.32.74a3.3,3.3,0,0,1-.3.22c-.29.12-1.1.07-1.24.19-.56,0-.54-.43-.76-.74l-.3-.26c-.1-.15-.08-.37-.19-.51s-.21-.08-.27-.15a2.58,2.58,0,0,1-.42-1.51c0-.14,0-.28,0-.41a4,4,0,0,1,.26-.78c.07-.12.22-.21.27-.37.1-.31-.21-.53,0-.81-.06-.42-.44-.49-.64-.78l-.49,0c-.11,0-.18-.17-.38-.11s-.34.24-.56.3a7.41,7.41,0,0,1-.87,1.81c-.44.85-.86,1.75-1.24,2.63a5.62,5.62,0,0,0-.14.67c-.07.24-.23.52-.3.74s-.07.54-.23.77-.94.42-1.32.56c-.19.07-.5.28-.71.34l-.27,0c-.08,0-.17.16-.26.18h-.49c-.39.09-1,.2-1.36.3a5,5,0,0,1-1,0c-.05,0-.08-.18-.11-.22s0,0-.08,0a2.55,2.55,0,0,1-.41.3c-.27,0-.21-.12-.38-.19s0,0-.08,0l-.22.18c0,.07,0,0,0,.08a.69.69,0,0,0,.27.51h.33c.22.1.35.45.61.52s.47-.19.72-.15a3.9,3.9,0,0,0,1.51-.19l.68,0a11.14,11.14,0,0,0,1.24-.45,3.39,3.39,0,0,0,.68-.22c.14,0,.13,0,.19.07s-.28.42-.42.52-.34.53-.52.78l-.57.56a6.33,6.33,0,0,0-.56.77c-.12.15-.38.19-.49.34s-.09.34-.19.48-.45.44-.6.7-.25.6-.45.89a8.73,8.73,0,0,1-.75.74,6.82,6.82,0,0,0-1.17,1.93,5.19,5.19,0,0,0-.19.63v.92a4.42,4.42,0,0,0-.08,1.11c.06.34,0,.65.27.81,0,.15,0,.2-.15.26a3.36,3.36,0,0,0,.34.92,2.38,2.38,0,0,0,.31-.07,7,7,0,0,0,.37.63l.23,0c.25.16.51.4.76.56s.44.13.64.25.18.18.26.22l.27,0c.11,0,.14.2.23.26s.32,0,.53.07a7.47,7.47,0,0,0,1.35.55c.16,0,.36-.07.57-.07a.88.88,0,0,1,.15-.12c0-.09,0-.62.07-.7l.23-.22a1.68,1.68,0,0,0-.08-.81c0-.16,0-.32,0-.48s-.42-.61-.3-1c0-.12.18-.25.14-.4s-.17-.18-.15-.3l.15-.15c0-.18,0-.37,0-.55s.07-.69.11-1-.05-.29-.07-.44.17-.17.11-.37-.13-.12-.11-.22.13-.13.15-.19c0-.23,0-.46,0-.7s.15-.35.18-.51V24.6c0-.09.13-.18.15-.26V23.6c.09-.29.1-.74.18-1.08v-.44l.12-.11,0-.55c.06-.17.25-.39.31-.56V20.6a1,1,0,0,1,.45-.52.69.69,0,0,0-.07-.22,2.24,2.24,0,0,1,.26-.74,1.16,1.16,0,0,0-.3-.63c.05-.49.47-.37.94-.48a12,12,0,0,0,1.28-.19c.4-.14.81-.34,1.21-.45s.71.08.94-.15c.24.05.45.46.65.59a7.52,7.52,0,0,0,1.7.55,2.83,2.83,0,0,1-.38,1.59c0,.16-.05.32-.07.48a11.28,11.28,0,0,1-.57,1l0,.26c-.11.23-.37.48-.45.7a2.72,2.72,0,0,0-.11,1.07c.06.22.39.58.26.82v.07a3.48,3.48,0,0,1-1.06-.36l-.37,0c-.56-.24-1.09-.65-1.66-.88-.21-.08-.34-.07-.53-.15-.4-.17-.63-.49-1.25-.48a4,4,0,0,1-.53.34c-.08.05-.11.16-.19.22.06.35.34.39.57.55.06.08.13.15.19.22s.2,0,.27.11.12.35.22.41.39.06.53.15.25.26.42.33a6.16,6.16,0,0,1,.94.33l.34.33c.12.07.24.05.38.11s.3.23.45.29.48.08.68.19.68.46,1,.66l.6.26c.07.05.08.17.15.22s.41.25.61.37a.24.24,0,0,0,0,.07,1.75,1.75,0,0,1-.22.59c-.07.11-.22.08-.34.15l-.26.33a3.49,3.49,0,0,1-.61.26,1.51,1.51,0,0,1-.6-.14l-1.09,0c-.14,0-.2-.19-.31-.25s-.41-.12-.56-.26,0-.32-.08-.44a1.65,1.65,0,0,0-.53-.71,1.76,1.76,0,0,0-1,.41c-.11.14,0,.26-.22.34v0c-.07,0-.05,0-.08,0-.71,0-.65,2.1-.37,2.51l.19.11a2.88,2.88,0,0,0,.41.44l.61.26a7,7,0,0,0,2.46,1,6.13,6.13,0,0,0,3.24-1.08l.45-.52a3.34,3.34,0,0,0,.75-.52c.16-.19.23-.44.38-.63s.1,0,.15-.08.14-.26.19-.37a5.59,5.59,0,0,1,2.11.55c.39.16.69.33,1,.48.11.05.21,0,.31.07s.3.34.53.41c.46.15.91.1,1.39.25.11,0,.18.16.27.19h.38c.07,0,.16.12.22.14a7.91,7.91,0,0,0,2,.15c.07,0,.2-.13.27-.15.28-.09.5-.05.75-.15.06,0,.13-.13.19-.15.22-.07.42,0,.56-.08s.08,0,.12-.14A1.81,1.81,0,0,0,245.44,29.45Zm-22.62-3.33c0,.18-.14.54-.19.7s0,.39,0,.59-.16.2-.19.3.1.3.08.44-.16.48-.19.66.15.35.15.67a1.3,1.3,0,0,1-.18.15c0,.21.12.27.11.37s-.17.24-.22.4,0,0-.08,0c-.52-.07-1.64-1.1-1.51-1.69.06-.3-.16-.66,0-.89s.15-.21.34-.22c-.18-.68,0-.59.22-1.11.07-.2,0-.3.12-.45s.25-.24.34-.37.08-.34.18-.52.38-.16.45-.29v-.37c0-.09.21-.24.27-.34h.15v0c.14.23,0,.28.23.44a1.67,1.67,0,0,1-.12.48C222.72,25.51,222.89,25.82,222.82,26.12Zm5.21-11-.34.11c0,.21.11.61,0,.78s0,.18-.12.29a1.52,1.52,0,0,0-1,.27,1.23,1.23,0,0,1-.31,0c.07-1.26.87-2.14,1.24-3.15a1,1,0,0,0,.23-.07c.09,0,.16-.28.22-.41h.15c0,.59,0,1.18,0,1.78A3.52,3.52,0,0,0,228,15.16Zm.57-1V14h.07a.57.57,0,0,1,0,.22Zm6.47,9v.48c0,.08-.13.13-.16.19l0,.44a4.83,4.83,0,0,1-.26.45c-.22.43-.14.69-.49,1-.16.12-.5.05-.72,0a5.68,5.68,0,0,1-1.55-.92s0,0,0-.08c.14-.09.31-.07.49-.15a4.15,4.15,0,0,0,.53-.37l.42-.11c.52-.32,1-1.16,1.62-1.37,0,0,.11,0,.15-.08l.15,0C235.21,22.93,235.13,23,235.07,23.16Z"/><path class="cls-2" d="M144.5,11.26a2.61,2.61,0,0,0,.37.63v0a5,5,0,0,0,1,.48,8.85,8.85,0,0,1,.8.47l.26,0c.12.12.23.25.34.37l.27.07.3.29.34,0s.09.12.15.11l.11-.08a.47.47,0,0,0-.07-.33v-.7c-.14-.3-.5-.41-.76-.59a2.34,2.34,0,0,0-.49-.33h-.23l-.15-.15h-.23c-.06,0-.13-.12-.18-.14H146c-.08,0-.14-.16-.22-.19a7.32,7.32,0,0,0-.91,0c-.11,0-.14-.11-.34-.11,0,.06-.1.08-.07.18Zm9.48,5c.09-.1-.18-.27-.22-.37v-.22s-.37-.23-.42-.26c-.38-.23-.85-.46-1.25-.66l-.26,0c-.05,0-.13-.12-.19-.14h-.3c-.09,0-.19-.13-.27-.15h-.3a2,2,0,0,0-.94-.14c-.39.09-.71.11-1.1.18l-.26,0c-.1,0-.23.15-.34.18l-.46,0-.11.15-.34,0c-.13,0-.33.22-.45.26l-.38,0c-.12,0-.19.18-.3.22h-.41c-.05,0-.14.13-.19.15-.3.1-.54,0-.83.08-.63.17-1.41.31-2,.52l-.72,0c-.2.07-.53.24-.75.3l-.49,0-.08.12-.26,0-1.09.41-.57,0a1.77,1.77,0,0,1-.9.11,1.07,1.07,0,0,1-.34-.29c-.1,0-.14,0-.19,0s-.13.12-.23.18.09.4,0,.52v.07h-.07a2.08,2.08,0,0,0-.31-.59c0-.42.39-.59.6-.85a5.9,5.9,0,0,1,.83-1,10.33,10.33,0,0,0,1.06-.78c.45-.44,1-.81.63-1.74-.21-.52-.74-.82-1-1.29l-.19,0a5.18,5.18,0,0,1-.41,1.26,1.87,1.87,0,0,1-.45.33s0,.08,0,.12l-.53.44c0,.08-.07.17-.15.22s-.37.1-.45.19a1.7,1.7,0,0,1,0,.22c-.11.16-.48.3-.6.48-.3.47-.82.71-1.13,1.15a4.38,4.38,0,0,1-.56.71c-.15.14-.37.2-.49.37a2.88,2.88,0,0,1-.49.55c-.14.11-.42.26-.49.41s.05.11,0,.15-.12.14-.15.22c-.52.11-.34.31-.64.52-.13.09-.33.14-.42.26s-.07.22-.11.33-.23,0-.3,0,0,.13-.08.22-.43.28-.64.34a8.68,8.68,0,0,0-.3,1c.07.1.31.13.42.18v.7c0,.1.1.08.12.26.2.05.49.09.56-.11.16,0,.28.14.38.11l.45-.41c.07-.1.06-.28.15-.37l.3-.11c.14-.09.22-.28.34-.37s.13,0,.19-.07.24-.35.37-.49a6.57,6.57,0,0,0,.57-.48.83.83,0,0,1,0-.15c.1-.1.28-.11.37-.22s.06-.18.12-.26c.21-.28.5-.52.71-.81a.71.71,0,0,1,.23,0,4.11,4.11,0,0,1-.19,1v.48c0,.2-.1.47-.15.67v.4c0,.06-.13.13-.15.19v.81c-.2.71-.43,1.53-.64,2.26v.48a3.76,3.76,0,0,1-.15.44v.41c-.07.25-.22.71-.3,1l0,.41c0,.06-.13.14-.15.22s.07.3,0,.48-.12.25-.15.37v.67c0,.07-.12.2-.15.29v.41c-.06.18-.24.39-.3.59a3.21,3.21,0,0,0,0,1,1,1,0,0,0,.07.52c.11,0,.11.05.19,0h.15c.12.08.17.55.27.67s.24.11.3.29c.14,0,.21,0,.3,0s.11-.17.15-.29c.23,0,.26.13.49,0,.06-.29-.05-.67,0-1,0,0,.07-.27.07-.3a1.7,1.7,0,0,0,0-.22c0-.08.13-.17.16-.23v-.85a3.1,3.1,0,0,1,.15-.88,10.21,10.21,0,0,0,0-1.22c0-.06-.07-.16,0-.26.1-.36.24-.7.33-1.11s0-.77,0-1.15a.59.59,0,0,1,0-.26c.17-.78.19-1.72.41-2.47l0-.82c.16-.57.2-1.24.38-1.85.06-.23.2-.49.26-.7v-.4l.11-.12c.05-.11,0-.27.07-.37v-.07h0c.1.16.2.51.34.63s.21,0,.31.07.12.15.19.22.12,0,.18.07a5.14,5.14,0,0,0,1.4-.48h.42c.06,0,.14-.13.22-.15h.42c.18-.07.46-.24.64-.3h.26c.11,0,.24-.12.34-.15h.45c.39-.09.91-.24,1.29-.34H144c.26-.08.67-.26.94-.33s.73,0,1.13-.12c.24-.06.52-.22.75-.29.53-.17,1-.22,1.59-.34h1.77c.07,0,.17.13.23.15a7.87,7.87,0,0,1,1.51.51c.19.12.84.68,1.13.59s.44-.36.72-.48c0-.17.12-.34,0-.48S153.82,16.4,154,16.3Zm-2.21,5.4a1.34,1.34,0,0,1-.11-.14c-.06,0-.55-.14-.61-.15h-.9a10.43,10.43,0,0,0-5,.42c-.32.11-.73.23-1,.34l-.41,0c-.13,0-.25.2-.42.11h-.08v-.08c.1,0,.18-.17.27-.22l.19,0c.11-.1.17-.32.3-.4l.37-.11c.06,0,.1-.15.16-.19.24-.16.53-.22.79-.37l.07-.11.3,0c.22-.08.44-.2.68-.3.41-.17.78-.53,1.17-.74l.53-.08c.05,0,0-.14.07-.18l.27-.08a2.1,2.1,0,0,0,.19-.74c-.18-.15-.32-.4-.54-.51s-.39,0-.56,0l-.45,0c-.07,0-.13.13-.19.15s-.34,0-.53,0-.32.13-.45.15a4.28,4.28,0,0,1-.91-.11,3.35,3.35,0,0,0-1.51.11.32.32,0,0,0,0,.19c0,.38,1.08.6,1.43.7s.42,0,.57.07,0,0,0,.07c-.06.32-.33.3-.57.45l-.18.22c-.12.07-.45.11-.53.19s0,.12,0,.18a1.91,1.91,0,0,1-.3.22c-.19.11-.35.09-.53.19a15.53,15.53,0,0,0-1.69,1.19,2.48,2.48,0,0,0-.19.26c-.15.1-.32.12-.45.22s-.13.2-.19.3a3.12,3.12,0,0,1-.64.29c-.31.17-.57.57-.91.71l-.45,0c-.09,0-.09.21-.15.29l-.41.37,0,.26c0,.06-.13.13-.15.19s.06.32.08.4,0,.32,0,.49a.3.3,0,0,1,.11.07,4.6,4.6,0,0,0,2.15-.93c.17-.09.33-.09.49-.19a2.72,2.72,0,0,1,.38-.29,4,4,0,0,0,1-.45h.26c0,.31-.18.49-.3.74l0,.33c-.12.36-.34.82-.45,1.19a2.84,2.84,0,0,0,.11,1.36c0,.26,0,.52,0,.78a3.61,3.61,0,0,0,.5,1c.1.14.23.06.41.14a1.76,1.76,0,0,1,.42.44c.73,0,.42-.13.68-.51,0-.07.26-.12.34-.15s0-.54,0-.63.13-.16.15-.22,0-.42,0-.56a4.58,4.58,0,0,1,2-1.15c.08,0,.18-.16.26-.18l.23,0c.11,0,.21-.15.3-.18.27-.09.46,0,.64-.12a1,1,0,0,1,.57.11c0,.36-.29.42-.45.63a5,5,0,0,1-1.17,1.08c-.42.22-.78.18-1.13.44a1.65,1.65,0,0,0-.26,1.22v.74l.27.19a2.39,2.39,0,0,0,.56.66l.19,0,.08.11h.3c.09,0,.19.17.27.22a5.41,5.41,0,0,1,.9.55h.19c.13-.14.58-.49.64-.59.17-.28.22-.53.49-.71,0-.58-.59-.53-.76-.81a3.94,3.94,0,0,1,0-.44c.11-.1.16-.29.27-.37s.4-.26.6-.41l.3-.3a3.18,3.18,0,0,0,.68-.37c.17-.17.2-.46.34-.66a2.62,2.62,0,0,0,.34-.48,1.24,1.24,0,0,0-.27-1c-.07,0-.14,0-.19-.08s-.09-.28-.19-.37l-.3-.11a5.74,5.74,0,0,0-.68-.51,4.28,4.28,0,0,0-1.81-.25,3.51,3.51,0,0,1-.68.18.52.52,0,0,0,.15.07v0c-.34.08-.59.2-.91.26-.12,0-.18,0-.3-.07a.27.27,0,0,1,0,.15c-.07.05-.21,0-.3.07s-.06.16-.15.19l-.34-.08c-.11.05-.06.12-.34.12,0,.09,0,0,.08.07a.76.76,0,0,0,0,.11c-.12,0-.06,0-.11-.07a.47.47,0,0,0-.23,0c0,.1.06.1.15.14l-.07.11a.21.21,0,0,1-.16-.11.88.88,0,0,0-.45.26.32.32,0,0,1-.22-.07,3.84,3.84,0,0,1,.71-2.22c.09-.15,0-.4.15-.55a2.32,2.32,0,0,1,1.09-.6h.38a6.69,6.69,0,0,1,2.86-.16h.8a8.79,8.79,0,0,0,1.62.33,2.79,2.79,0,0,0,.68-.37c.06-.34.05-.73.26-.93C152.05,21.66,152,21.81,151.77,21.7ZM146,25.3v.08h.19c0-.09,0-.07-.12-.11S146,25.28,146,25.3Z"/><path class="cls-2" d="M180.69,24.61c0-.17-.12-.24,0-.37,0-.34-.37-.41-.53-.63,0-.05,0-.14-.08-.18s-.51-.1-.71-.18-.14-.13-.19-.15h-.53a1.66,1.66,0,0,0-.91-.15c-.1,0-.24.13-.34.15h-.79c-.34.11-.75.37-1.09.48h-.31a6.94,6.94,0,0,0-1.09.45,7.57,7.57,0,0,0-.75.63,5.15,5.15,0,0,0-.83.48h-.19a6.33,6.33,0,0,1,.6-2.37l0-1.18a13.11,13.11,0,0,0,.3-1.89c0-.17-.06-.4,0-.51.3-1.81.33-4.18-.81-5.14-.07-.06-.11-.25-.19-.29h-.18l-.12-.19a2.67,2.67,0,0,0-.75-.11c-.15,0-.27.19-.38.23l-.6,0c-.13,0-.32.12-.42.15a9.69,9.69,0,0,0-2,.49l-.27,0c0-.1,0-.05,0-.11a2.42,2.42,0,0,1,.53-.81c.45-.67,1-1.21,1.5-1.86.14-.18.42-.4.49-.62.24-.71-.48-1.43-.87-1.66-.14-.09-.32-.37-.57-.23a.42.42,0,0,0-.3.12,3.47,3.47,0,0,1,.35,1.1,6,6,0,0,0-.53.71c-.22.29-.63.46-.87.74-.4.48-1,.84-1.35,1.33-.23.3-.42.6-.64.89l-.75.74c-.25.33-.46.65-.72,1-.07.08-.23.09-.3.18s0,.13-.07.19c-.22.19-.43.39-.64.59s-.16.39-.3.52-.26.1-.34.22-.16.48-.38.63c0,.54.19.57.27.92s-.16.47,0,.74c0,.11.09.11.15.19s.14,0,.19-.11c.12,0,.13.08.19.18.26,0,.27-.12.49,0l.3-.48c.08,0,.14,0,.22,0s0-.22,0-.33.37-.37.45-.52v-.26c.06-.11.26-.16.34-.26s.12-.3.23-.4.14,0,.18-.08.09-.26.19-.33.21,0,.27-.11.05-.22.07-.34l.19-.14c.06-.12,0-.28.07-.37s.38-.17.57-.3a1.1,1.1,0,0,0,.15-.26c.2,0,.29.06.34.22s-.25.25-.3.37,0,.37-.08.59-.22.6-.29.82v.63c-.07.23-.26.54-.34.77-.16.48-.16,1-.34,1.48-.1.29-.3.66-.41.93l0,.51c-.09.22-.54,1-.46,1.3a11.18,11.18,0,0,0,.57,1.15,5.28,5.28,0,0,1,.49.25h.53a5,5,0,0,0,2-.19c.42-.11.73,0,1.17-.11a7.27,7.27,0,0,1,1.63-.3H171c0,.89-.66.86-1.17,1.26-.12.09-.19.29-.3.4s-.47.4-.41.71,0,.69.12.92a.93.93,0,0,0,.6.88h.34c.59.18,1-.08,1.51-.22a4.27,4.27,0,0,0,.79-.15c.29-.16.58-.47.87-.63s.72-.53,1-.45l.15.15c.2.13.53.2.64.4v.19l.15,0c0,.13,0,.25,0,.38a.67.67,0,0,1,.15.14c.12.27.05.52.16.78l.15.15v.37c.06.18.26.9.08,1.18s-.16,0-.26.15,0,.14-.08.18-.24-.13-.45-.07c-.06,0-.15.13-.19.15a3.13,3.13,0,0,1-1.17,0c-.31,0-.45,0-.57.18-.21,0-.19-.16-.34-.22-.32-.11-.51.08-.83,0-.09,0-.17-.18-.26-.22-.24-.13-.54-.06-.8-.19a1.34,1.34,0,0,0-.11-.14h-.26c-.08,0-.57-.21-.64-.26-.32-.2-.6-.51-.91-.7a12,12,0,0,1-1.06-.59c-.13-.1-.2-.31-.34-.4s-.15,0-.19-.08-.12-.33-.23-.51-.44-.51-.57-.78-.07-.52-.19-.7a.46.46,0,0,0-.11-.18,1.22,1.22,0,0,0-.27,0,1.21,1.21,0,0,0,0,.59v.92a8.37,8.37,0,0,0,1.06,2,5.6,5.6,0,0,0,.49.36,4.5,4.5,0,0,0,.65.59l.22.08c.08.07.07.24.16.29a12.82,12.82,0,0,0,1.89,1.18l.37,0a1.82,1.82,0,0,1,.23.15l.49,0c.43.12.95.32,1.44.44h.45a4.59,4.59,0,0,0,1.59.14h.75c.06,0,.16-.13.23-.15a7.94,7.94,0,0,0,.9-.19c.06,0,.15-.12.23-.14h.37l.16-.14c.25-.11.45,0,.71-.15a1.45,1.45,0,0,0,.6-1.56,2.93,2.93,0,0,0-.49-.7c-.17-.21-.17-.54-.34-.74s-.47-.33-.57-.48,0-.15-.08-.22-.36-.33-.49-.51a5.43,5.43,0,0,0-.75-1,2.83,2.83,0,0,0-.57-.25h-.38c-.13,0-.27-.16-.42-.22.07-.34.41-.46.65-.63l.22-.26c.21-.13.37-.06.64-.15.06,0,.14-.13.19-.15l.72,0s.15-.1.18-.11a3.39,3.39,0,0,1,1.7.1c.29.08.42-.15.61,0a1,1,0,0,0,.64-.15c0-.14,0-.29,0-.44a.41.41,0,0,1,.19,0Zm-8.81-4.15c0,.25-.09.6-.14.81s0,.37,0,.48c-.18.44-.63,0-1.06.15a29.93,29.93,0,0,0-3.13.9c-.24.1-.46.05-.64.18h-.6a.87.87,0,0,1,.11-.52V22.1c.15-.54.29-1.27.45-1.81V20s.13-.13.15-.18,0-.37,0-.49a.36.36,0,0,0,0-.11c.44.06,1,.74,1.21,1,.08.11.25.14.34.23a5.3,5.3,0,0,0,.57.59c.12.08.28.09.38.18s.11.18.18.22.15,0,.19,0a.63.63,0,0,0,.34-.15.36.36,0,0,0-.15-.33c0-.28.09-.29.15-.48a4.78,4.78,0,0,1-.45-.63,6.94,6.94,0,0,0-.53-.55l-.15,0v-.11a3,3,0,0,0-.69-.55c-.27-.14-1-.09-1.24-.22a1,1,0,0,1-.08-.56,4.74,4.74,0,0,1,.07-1.37v-.44c.07-.13.35-.15.49-.22s.33-.26.42-.3h.26l.11-.11.34-.07.34-.34a2.27,2.27,0,0,1,.53-.11c.47-.11,1.07,0,1.4-.23a1,1,0,0,1,.75.3,9.21,9.21,0,0,0,.27,1.77l0,.81a7.73,7.73,0,0,1-.19,2.3Zm-1.48-3.62c-.05-.05-.05-.15-.11-.19a9.55,9.55,0,0,0-.95-.33,2.27,2.27,0,0,0-.94-.33.49.49,0,0,1-.34.15c0,.07,0,0,0,.08,0,.5.41.6.76.81l.38.44c.37.25.94.28,1.25.59a.56.56,0,0,0,.33-.11,2.25,2.25,0,0,0,0-.78C170.69,16.92,170.55,17,170.4,16.84ZM162.47,27a1.32,1.32,0,0,0-.38-.51H162a1.37,1.37,0,0,0-.29.48v.22c0,.06-.14.13-.16.18s0,.25,0,.37-.11.1-.15.15c0,.36,0,.72,0,1.07-.26.77-.2,2.13-.45,2.81,0,.15,0,.3,0,.45a1.14,1.14,0,0,0-.11.11c0,.11,0,.22,0,.33s-.27.42-.33.63a1.11,1.11,0,0,0,.19,1c.11.08.2,0,.26.15s0,.27,0,.41.15.15.19.22a.84.84,0,0,0,.6-.52c.07-.11,0-.3,0-.45a5.21,5.21,0,0,0,.07-.85v-.48c.08-.23,0-.58.11-.81v-.41s.13,0,.15-.07c0-.36,0-.72,0-1.07,0-.17.1-.42.15-.6s0-.56,0-.85a2.53,2.53,0,0,0,.11-1.22C162.33,27.36,162.53,27.21,162.47,27Z"/><path class="cls-1" d="M12,54c-5.13-4.55-.7-17.91,9.88-29.84a63.41,63.41,0,0,1,7.8-7.44A76.69,76.69,0,0,0,18.72,27C7,40.16,1.57,54.41,6.53,58.8c3.71,3.3,12.21.14,21.15-7.18C21.11,55.63,15.15,56.78,12,54Z"/><path class="cls-3" d="M16.38,25.52C30,10.19,45.78,2,51.65,7.2c2.65,2.35,2.06,11.1-5.1,23.2C58.88,12.25,57.36,4.64,53.9,1.57,48-3.64,32.24,4.56,18.63,19.89c-7.46,8.41-12.71,17.22-15,24.32A82.14,82.14,0,0,1,16.38,25.52Z"/><path class="cls-4" d="M35.54,25.29c19.83,11,21.55,20.92,20.19,23.45-3.81,7.08-20,5.76-36.26-3l-.27-.15c1.42.88,2.91,1.74,4.44,2.57,16.22,8.72,32.14,10.61,35.58,4.22C61,49.18,62.68,38.49,35.54,25.29Z"/><path class="cls-5" d="M24.5,43.33C11.77,36.48,3.83,26.49,6.78,21,8.31,18.17,12.5,17.11,18,17.71,9.49,15.46,2.66,16.07.61,19.88-2.45,25.58,6.32,36.24,20.2,43.7c12.34,6.65,24.56,8.51,29.27,4.84C44.15,50.48,34.34,48.62,24.5,43.33Z"/><path class="cls-4" d="M34.62,29.18a.36.36,0,0,0,0-.51.37.37,0,0,0-.52,0,.36.36,0,0,0,0,.51A.36.36,0,0,0,34.62,29.18ZM29.43,34.4a.37.37,0,1,0-.52-.52.37.37,0,0,0,.52.52ZM34,29.76a.36.36,0,0,0,0-.51.37.37,0,0,0-.52,0,.36.36,0,0,0,0,.51A.36.36,0,0,0,34,29.76Zm-.57.58a.35.35,0,0,0,0-.51.35.35,0,0,0-.51,0,.36.36,0,1,0,.52.51Zm-.58.58a.36.36,0,0,0,0-.51.36.36,0,0,0-.52,0,.36.36,0,0,0,0,.51A.36.36,0,0,0,32.89,30.92Zm-1.15,1.16a.37.37,0,0,0,0-.52.35.35,0,0,0-.51,0,.36.36,0,0,0,0,.51A.37.37,0,0,0,31.74,32.08Zm.57-.58a.37.37,0,0,0,0-.52.37.37,0,0,0-.52,0,.35.35,0,0,0,0,.51A.36.36,0,0,0,32.31,31.5ZM34.54,28a.27.27,0,0,0-.38-.38.28.28,0,0,0,0,.38A.27.27,0,0,0,34.54,28Zm-4,5.28a.36.36,0,0,0,0-.52.36.36,0,0,0-.51,0,.36.36,0,0,0,0,.52A.36.36,0,0,0,30.58,33.24Zm-.57.58a.37.37,0,1,0-.52,0A.37.37,0,0,0,30,33.82Zm1.15-1.16a.37.37,0,0,0,0-.52.37.37,0,0,0-.52.52A.37.37,0,0,0,31.16,32.66Zm1.6-4.17a.21.21,0,0,0,0-.29.21.21,0,1,0-.29.29A.21.21,0,0,0,32.76,28.49Zm-1.25-.09a.07.07,0,1,0-.1,0A.07.07,0,0,0,31.51,28.4Zm.69.69a.23.23,0,0,0-.32-.32.23.23,0,0,0,0,.32A.22.22,0,0,0,32.2,29.09Zm-.56.59a.24.24,0,0,0,0-.35.26.26,0,0,0-.35,0,.25.25,0,0,0,.35.35Zm.64.63a.32.32,0,0,0,0-.45.31.31,0,0,0-.45,0,.33.33,0,0,0,0,.45A.32.32,0,0,0,32.28,30.31Zm-1.2,0a.27.27,0,0,0,0-.37.27.27,0,0,0-.38.38A.27.27,0,0,0,31.08,30.27ZM31,29a.1.1,0,0,0,0-.16.11.11,0,0,0-.15,0,.1.1,0,0,0,0,.16A.11.11,0,0,0,31,29Zm2.88-1.75a.1.1,0,1,0-.14,0A.1.1,0,0,0,33.84,27.26Zm-1,2.47a.31.31,0,0,0,0-.45.32.32,0,0,0-.45,0,.32.32,0,1,0,.45.45Zm.47-1.84a.18.18,0,0,0,0-.24.18.18,0,0,0-.25,0,.17.17,0,0,0,0,.24A.16.16,0,0,0,33.32,27.89Zm.68.68a.31.31,0,1,0-.44,0A.31.31,0,0,0,34,28.57Zm-.57.58a.32.32,0,1,0-.46,0A.32.32,0,0,0,33.43,29.15ZM28.86,35a.37.37,0,0,0-.52-.52.37.37,0,0,0,.52.52Zm8-5.91a.21.21,0,0,0,0-.3.22.22,0,0,0-.3,0,.23.23,0,0,0,0,.31A.22.22,0,0,0,36.83,29.07Zm-2.15-.46a.35.35,0,0,0,.51,0,.35.35,0,0,0,0-.51.36.36,0,0,0-.51,0A.36.36,0,0,0,34.68,28.61ZM35.75,28a.33.33,0,0,0,0-.47.32.32,0,0,0-.46,0,.33.33,0,0,0,.47.47ZM25.42,39.63a.39.39,0,1,0-.55,0A.39.39,0,0,0,25.42,39.63Zm9.67-12.28a.23.23,0,1,0-.32,0A.22.22,0,0,0,35.09,27.35ZM25.4,37.94a.37.37,0,0,0-.52.52.37.37,0,0,0,.52-.52Zm-.58.58a.37.37,0,0,0-.52,0,.37.37,0,0,0,0,.52.35.35,0,0,0,.51,0A.36.36,0,0,0,24.82,38.52Zm11-9.93a.34.34,0,0,0,.48-.48.34.34,0,0,0-.48.48Zm-5.44,1a.14.14,0,1,0-.2,0A.15.15,0,0,0,30.41,29.61Zm6.32-1.79a.08.08,0,0,0,0-.11.09.09,0,0,0-.12,0,.08.08,0,0,0,0,.11A.07.07,0,0,0,36.73,27.82ZM26,37.88a.36.36,0,0,0,0-.52.36.36,0,0,0-.51,0,.36.36,0,0,0,0,.52A.36.36,0,0,0,26,37.88Zm9.27-9.23a.39.39,0,1,0,.55,0A.39.39,0,0,0,35.24,28.65Zm-7,6.91a.37.37,0,1,0-.52,0A.37.37,0,0,0,28.28,35.56Zm7.87-8.31a.08.08,0,1,0-.12,0A.09.09,0,0,0,36.15,27.25Zm-8.36,6.67a.31.31,0,0,0,0,.45.33.33,0,0,0,.45,0,.32.32,0,1,0-.45-.45Zm-.58.58a.33.33,0,0,0,0,.45.34.34,0,0,0,.46,0,.33.33,0,0,0,0-.46A.32.32,0,0,0,27.21,34.5Zm1.73-1.74a.32.32,0,1,0,.45.45.32.32,0,0,0-.45-.45Zm-.58.58a.33.33,0,0,0,0,.45.33.33,0,1,0,.46-.46A.33.33,0,0,0,28.36,33.34Zm-1.73,1.73a.33.33,0,0,0,.46.46.33.33,0,1,0-.46-.46Zm1.07,1.07a.37.37,0,0,0,0-.52.37.37,0,0,0-.52,0,.37.37,0,0,0,.52.52Zm1.82-4a.32.32,0,1,0,.45.45.32.32,0,0,0,0-.45A.31.31,0,0,0,29.52,32.18Zm-2.39,4.54a.37.37,0,0,0-.52-.52.37.37,0,1,0,.52.52ZM30.67,31a.32.32,0,1,0,.45,0A.31.31,0,0,0,30.67,31ZM26.55,37.3a.37.37,0,1,0-.52,0A.37.37,0,0,0,26.55,37.3Zm5.15-6.41a.33.33,0,0,0,0-.45.32.32,0,1,0-.45.45A.31.31,0,0,0,31.7,30.89Zm-1.61.71a.33.33,0,0,0,0,.45.32.32,0,0,0,.46,0,.33.33,0,0,0,0-.45A.32.32,0,0,0,30.09,31.6Zm-4.73,5.67a.32.32,0,0,0,0-.46.33.33,0,0,0-.45,0,.32.32,0,0,0,0,.46A.33.33,0,0,0,25.36,37.27Zm.1,2.4a.38.38,0,0,0,0,.53.37.37,0,0,0,.52,0,.37.37,0,0,0,0-.52A.39.39,0,0,0,25.46,39.67Zm-.46.69a.22.22,0,0,0,0,.3.2.2,0,0,0,.3,0,.21.21,0,0,0-.3-.3Zm1.16,0a.21.21,0,0,0,0,.29.23.23,0,0,0,.29,0,.21.21,0,0,0-.29-.29Zm-1.83-.67a.34.34,0,0,0,.48.47.34.34,0,0,0,0-.48A.34.34,0,0,0,24.33,39.7Zm2.33,0a.33.33,0,0,0,0,.45.32.32,0,0,0,.45,0,.31.31,0,0,0,0-.44A.33.33,0,0,0,26.66,39.71Zm.54-.62a.37.37,0,0,0,0,.53.39.39,0,0,0,.53,0,.38.38,0,0,0,0-.53A.36.36,0,0,0,27.2,39.09Zm-4-.48a.23.23,0,1,0,.33,0A.24.24,0,0,0,23.24,38.61Zm.11,1.27a.08.08,0,0,0,0,.11.08.08,0,0,0,.12,0,.08.08,0,0,0,0-.11A.07.07,0,0,0,23.35,39.88Zm7.15-9a.25.25,0,0,0,0-.37.27.27,0,0,0-.37,0,.26.26,0,0,0,.37.37Zm-2.53,9A.12.12,0,0,0,28,40a.1.1,0,0,0,.14-.14A.12.12,0,0,0,28,39.86Zm-3.75-.74a.33.33,0,1,0,0,.47A.33.33,0,0,0,24.22,39.12Zm-.29,1.34a.07.07,0,0,0,0,.11.08.08,0,0,0,.11-.11A.07.07,0,0,0,23.93,40.46Zm4.53-1.27a.23.23,0,1,0,.32,0A.22.22,0,0,0,28.46,39.19Zm7.42-8.75a.31.31,0,0,0,0,.44.31.31,0,0,0,.45,0,.31.31,0,0,0,0-.44A.33.33,0,0,0,35.88,30.44Zm-11.71,8a.27.27,0,1,0-.38,0A.28.28,0,0,0,24.17,38.39ZM35.26,31a.39.39,0,0,0,0,.53.38.38,0,0,0,.53,0,.36.36,0,0,0,0-.52A.37.37,0,0,0,35.26,31Zm1.28-1a.21.21,0,0,0,0,.29.19.19,0,0,0,.28,0,.21.21,0,0,0,0-.29A.19.19,0,0,0,36.54,29.94Zm-1.17,2.3a.22.22,0,0,0,0,.32.24.24,0,0,0,.33,0,.23.23,0,0,0,0-.32A.22.22,0,0,0,35.37,32.24Zm.47-3a.37.37,0,0,0,0,.53.37.37,0,0,0,.52,0,.39.39,0,0,0,0-.53A.37.37,0,0,0,35.84,29.24Zm.2,2.51a.1.1,0,0,0,0,.14.1.1,0,0,0,.14-.14A.1.1,0,0,0,36,31.75Zm-.78-.24a.47.47,0,0,0-.48-.09.45.45,0,0,0,0-.36.44.44,0,0,0,.47-.1.43.43,0,0,0,0-.56.39.39,0,0,0,.53,0,.41.41,0,0,0,0-.58.41.41,0,0,0-.56,0,.41.41,0,0,0,0-.57.42.42,0,0,0-.6,0,.41.41,0,0,0,0,.54.41.41,0,0,0-.58.58.41.41,0,0,0-.54,0,.4.4,0,0,0,0,.54.43.43,0,0,0-.55,0,.41.41,0,0,0,0,.54.41.41,0,0,0-.58.58.41.41,0,0,0-.57.58.42.42,0,0,0-.55,0,.44.44,0,0,0,0,.55.41.41,0,0,0-.57.58.41.41,0,0,0-.58.58.41.41,0,0,0-.54,0,.43.43,0,0,0,0,.55.41.41,0,0,0-.57.58.41.41,0,0,0-.55,0,.42.42,0,0,0,0,.55.4.4,0,0,0-.54,0,.43.43,0,0,0,0,.55.4.4,0,0,0-.54,0,.41.41,0,0,0,0,.54.41.41,0,0,0-.58.58.41.41,0,0,0-.54,0,.4.4,0,0,0,0,.54.42.42,0,0,0-.55.63.43.43,0,0,0,.58,0,.4.4,0,0,0,0,.55.41.41,0,0,0,.58,0,.4.4,0,0,0,0-.53.43.43,0,0,0,.56,0,.42.42,0,0,0,.09-.47.48.48,0,0,0,.37,0,.42.42,0,0,0,.09.47.43.43,0,0,0,.61,0,.41.41,0,0,0,.08-.49.46.46,0,0,0,.51-.08.45.45,0,0,0,.1-.45.47.47,0,0,0,.5-.11.46.46,0,0,0,.11-.46.46.46,0,0,0,.42-.09.36.36,0,1,0,.54,0,.35.35,0,0,0-.47,0,.46.46,0,0,0,.09-.42.48.48,0,0,0,.44-.1.35.35,0,0,0,0,.48.36.36,0,0,0,.5,0,.35.35,0,0,0,0-.5.35.35,0,0,0-.48,0,.43.43,0,0,0,.1-.44.5.5,0,0,0,.36,0,.4.4,0,0,0,.07.44.4.4,0,0,0,.56,0,.39.39,0,0,0-.45-.62.5.5,0,0,0,0-.36.5.5,0,0,0,.36,0,.38.38,0,0,0,.07.44.39.39,0,1,0,.55-.55.38.38,0,0,0-.45-.06.54.54,0,0,0,.05-.37.46.46,0,0,0,.36-.05.38.38,0,0,0,.07.45.39.39,0,0,0,.55-.55.38.38,0,0,0-.44-.07.5.5,0,0,0,0-.36.47.47,0,0,0,.44-.1A.37.37,0,0,0,33,35a.37.37,0,0,0,.5,0,.35.35,0,0,0,0-.5.35.35,0,0,0-.48,0,.47.47,0,0,0,.1-.44.49.49,0,0,0,.42-.08.34.34,0,0,0,0,.46.36.36,0,1,0,0-.54.45.45,0,0,0,.08-.42.46.46,0,0,0,.57-.61.44.44,0,0,0,.45-.11.43.43,0,0,0,.08-.5.45.45,0,0,0,.49-.08A.44.44,0,0,0,35.26,31.51ZM26,39.05a.42.42,0,0,0,0-.52.42.42,0,0,0,.48,0,.41.41,0,0,0,0,.49A.41.41,0,0,0,26,39.05Zm1-.67a.44.44,0,0,0-.4,0,.41.41,0,0,0,0-.47.42.42,0,0,0,.42,0A.46.46,0,0,0,27,38.38Zm.58-.61a.45.45,0,0,0-.36,0,.4.4,0,0,0-.06-.42.44.44,0,0,0,.44,0A.41.41,0,0,0,27.62,37.77Zm.16-1a.44.44,0,0,0,.4.06.47.47,0,0,0,0,.35.41.41,0,0,0-.34,0A.41.41,0,0,0,27.78,36.79Zm.09,1.59a.47.47,0,0,0,0-.35.47.47,0,0,0,.33,0,.44.44,0,0,0,0,.37A.39.39,0,0,0,27.87,38.38Zm.56-.59a.47.47,0,0,0,0-.31.45.45,0,0,0,.28,0,.57.57,0,0,0,0,.29A.42.42,0,0,0,28.43,37.79Zm.3-1.21a.45.45,0,0,0-.32,0,.44.44,0,0,0-.05-.4.42.42,0,0,0,.39.06A.47.47,0,0,0,28.73,36.58Zm.33.58a.53.53,0,0,0,0-.25.53.53,0,0,0,.25,0,.53.53,0,0,0,0,.25A.53.53,0,0,0,29.06,37.16ZM29.31,36A.5.5,0,0,0,29,36a.42.42,0,0,0-.06-.4.42.42,0,0,0,.4.06A.47.47,0,0,0,29.31,36Zm.33.58a.53.53,0,0,0,0-.25.53.53,0,0,0,.25,0,.53.53,0,0,0,0,.25A.53.53,0,0,0,29.64,36.58Zm.25-1.16a.5.5,0,0,0-.32,0,.44.44,0,0,0-.06-.4.42.42,0,0,0,.4.06A.42.42,0,0,0,29.89,35.42Zm.33.58a.53.53,0,0,0,0-.25.53.53,0,0,0,.25,0,.42.42,0,0,0,0,.25A.53.53,0,0,0,30.22,36Zm.24-1.15a.5.5,0,0,0-.32,0,.44.44,0,0,0-.05-.4.39.39,0,0,0,.39.06A.5.5,0,0,0,30.46,34.85Zm.33.57a.53.53,0,0,0,0-.25.53.53,0,0,0,.25,0,.53.53,0,0,0,0,.25A.53.53,0,0,0,30.79,35.42ZM31,34.27a.5.5,0,0,0-.32,0,.4.4,0,0,0-.06-.39.4.4,0,0,0,.39.06A.5.5,0,0,0,31,34.27Zm.58.57a.46.46,0,0,0-.26,0,.39.39,0,0,0,0-.26.57.57,0,0,0,.26,0A.36.36,0,0,0,31.62,34.84Zm0-1.15a.47.47,0,0,0-.31,0,.48.48,0,0,0-.06-.4.39.39,0,0,0,.39.06A.5.5,0,0,0,31.61,33.69Zm.33.57a.43.43,0,0,0,0-.25.53.53,0,0,0,.25,0,.53.53,0,0,0,0,.25A.42.42,0,0,0,31.94,34.26Zm.25-1.15a.5.5,0,0,0-.32,0,.42.42,0,0,0-.06-.4.42.42,0,0,0,.4.06A.5.5,0,0,0,32.19,33.11Zm.33.57a.53.53,0,0,0,0-.25.42.42,0,0,0,.25,0,.53.53,0,0,0,0,.25A.43.43,0,0,0,32.52,33.68Zm.25-1.15a.5.5,0,0,0-.32,0,.39.39,0,0,0-.06-.39.44.44,0,0,0,.4.05A.44.44,0,0,0,32.77,32.53Zm.33.57a.43.43,0,0,0,0-.25.43.43,0,0,0,.25,0,.43.43,0,0,0,0,.25A.43.43,0,0,0,33.1,33.1ZM33.38,32A.45.45,0,0,0,33,32a.42.42,0,0,0-.05-.39.42.42,0,0,0,.43,0A.47.47,0,0,0,33.38,32Zm.2-.53a.4.4,0,0,0,0-.43.45.45,0,0,0,.42.05.45.45,0,0,0,0,.36A.44.44,0,0,0,33.58,31.43Zm.38,1.1a.57.57,0,0,0-.29,0,.45.45,0,0,0,0-.28.47.47,0,0,0,.31,0A.42.42,0,0,0,34,32.53Zm.23-.53a.45.45,0,0,0,0-.34.43.43,0,0,0,.35,0,.41.41,0,0,0,0,.36A.46.46,0,0,0,34.19,32Zm.36-1.17a.46.46,0,0,0-.38,0,.42.42,0,0,0-.05-.42.42.42,0,0,0,.47,0A.44.44,0,0,0,34.55,30.83Zm.16-.51a.44.44,0,0,0,0-.48.41.41,0,0,0,.51,0,.42.42,0,0,0,0,.51A.4.4,0,0,0,34.71,30.32ZM29,38.56A.31.31,0,0,0,29,39a.3.3,0,1,0,.42-.42A.31.31,0,0,0,29,38.56Zm.56-.6a.33.33,0,0,0,0,.47.32.32,0,0,0,.46,0A.33.33,0,0,0,30,38,.32.32,0,0,0,29.54,38Zm4.61-4.63a.33.33,0,1,0,.46.46.33.33,0,1,0-.46-.46Zm.6-.56a.3.3,0,1,0,.42.42.31.31,0,0,0,0-.42A.29.29,0,0,0,34.75,32.77ZM23.47,37.69a.1.1,0,1,0-.14,0A.1.1,0,0,0,23.47,37.69Zm4.09-5.15a.18.18,0,0,0,0-.27.19.19,0,1,0-.27.27A.19.19,0,0,0,27.56,32.54Zm.64.63a.27.27,0,0,0,0-.37.26.26,0,0,0-.38,0,.27.27,0,0,0,0,.37A.27.27,0,0,0,28.2,33.17ZM28.14,32a.19.19,0,0,0-.27-.27.19.19,0,0,0,.27.27Zm-1.09,2.37A.27.27,0,0,0,27,34a.26.26,0,0,0-.37,0,.27.27,0,0,0,0,.37A.28.28,0,0,0,27.05,34.33Zm1.72-1.74a.26.26,0,1,0-.37-.37.26.26,0,0,0,.37.37ZM27,33.12a.19.19,0,0,0-.27-.27.18.18,0,0,0,0,.27A.2.2,0,0,0,27,33.12Zm.63.63a.27.27,0,0,0,0-.37.26.26,0,1,0-.37.37A.27.27,0,0,0,27.62,33.75Zm2.31-2.32a.27.27,0,0,0,0-.37.27.27,0,0,0-.38,0,.27.27,0,0,0,0,.37A.26.26,0,0,0,29.93,31.43Zm-.08-1.23a.16.16,0,0,0-.23-.23.16.16,0,1,0,.23.23ZM29.35,32a.27.27,0,0,0,0-.37.26.26,0,0,0-.38,0A.27.27,0,0,0,29,32,.26.26,0,0,0,29.35,32Zm-.63-.63a.19.19,0,0,0,0-.27.2.2,0,0,0-.27,0,.19.19,0,0,0,0,.27A.18.18,0,0,0,28.72,31.38Zm.57-.58a.18.18,0,0,0,0-.27.19.19,0,0,0-.27.27A.18.18,0,0,0,29.29,30.8Zm-4.09,4a.11.11,0,0,0-.16-.16.11.11,0,0,0,0,.16A.11.11,0,0,0,25.2,34.8ZM25.29,36A.23.23,0,1,0,25,36,.22.22,0,0,0,25.29,36Zm-.69-.69a.09.09,0,0,0,0-.1.08.08,0,0,0-.1,0,.07.07,0,0,0,.1.1Zm.18,2.49a.31.31,0,1,0-.44,0A.31.31,0,0,0,24.78,37.84ZM24.7,36.6a.19.19,0,0,0,0-.28.21.21,0,0,0-.29,0,.19.19,0,0,0,0,.28A.21.21,0,0,0,24.7,36.6Zm-.6.56a.18.18,0,0,0,0-.24.17.17,0,1,0,0,.24Zm2.37-2.25a.28.28,0,0,0,0-.38.27.27,0,0,0-.38,0,.27.27,0,0,0,0,.37A.28.28,0,0,0,26.47,34.91Zm0,1.2a.32.32,0,0,0,0-.46.33.33,0,0,0-.45,0,.32.32,0,0,0,0,.46A.33.33,0,0,0,26.51,36.11Zm-.12-2.43a.16.16,0,0,0,0-.23.15.15,0,0,0-.23,0,.16.16,0,0,0,.23.23Zm-.45,3a.33.33,0,1,0-.46,0A.34.34,0,0,0,25.94,36.69Zm-.06-1.21a.25.25,0,1,0-.35,0A.26.26,0,0,0,25.88,35.48Zm-.08-1.24a.14.14,0,0,0,0-.19.13.13,0,0,0-.2,0,.14.14,0,0,0,0,.19A.15.15,0,0,0,25.8,34.24Z"/><rect class="cls-1" x="310.52" y="12.45" width="1" height="35" transform="translate(-0.08 0.86) rotate(-0.16)"/><path class="cls-1" d="M322,18.86l10.69,0V14.16h4.1l0,4.67,10.68,0v1.54H342a79.81,79.81,0,0,0,5.5,19.29h-4.4a80.72,80.72,0,0,1-5.26-19.29h-1.08l0,13.6h3.61v1.54h-3.62v4.16h-4.1V35.51h-3.65V34h3.64l0-13.6h-1.08a86.28,86.28,0,0,1-5.16,19.31l-4.4,0a79.43,79.43,0,0,0,5.4-19.32l-5.45,0Z"/><path class="cls-1" d="M353,15.18h4.59A2.34,2.34,0,0,0,359.86,14h4.59a3.38,3.38,0,0,1-3.59,2.76h-.62l0,4h3.4V22.2h-3.4l.05,17.44h-3.86l-.05-17.44H353V20.72h3.41l0-4H353Zm.07,24.49a46,46,0,0,0,.33-6.62l0-9.85h2.3l0,9.91a40.09,40.09,0,0,1-.36,6.56Zm8,0,0-16.46h2.3l0,16.47Zm11-.08,0-6.8-7.45.88V32.08l7.45-.86,0-17.3h4l0,16.84,2.59-.31V32l-2.59.31,0,7.26Zm-3.37-16.21,2,5.15h-3.8L365,23.36ZM369,15.9,371,21.1h-3.84l-1.95-5.2Z"/><path class="cls-1" d="M384.21,30.78l1.86-.38,0-8.29h-1.87V20.58H386l0-6.69h4.13l0,6.69H392v1.53h-1.78l0,7.45,1.78-.38V30.7l-1.78.39,0,6.64a1.88,1.88,0,0,1-1.91,1.78l-3.86,0V38H385a1.07,1.07,0,0,0,1.11-1l0-5-1.86.38ZM393,29.51a1.66,1.66,0,0,1,1.75-1.78l13,0a1.69,1.69,0,0,1,1.76,1.78l0,8.07a1.69,1.69,0,0,1-1.75,1.79l-13,0A1.66,1.66,0,0,1,393,37.58Zm.1-3.24A28.65,28.65,0,0,0,396,16.17h-3V14.64l14.42,0a1.93,1.93,0,0,1,2,1.78l0,8a2,2,0,0,1-2,1.82h-5V24.71h1.78a1.11,1.11,0,0,0,1.13-1V17.14a1.1,1.1,0,0,0-1.14-1H400a25.1,25.1,0,0,1-2.86,10.1Zm12.34,4c0-.56-.24-1-.89-1l-6.56,0c-.62,0-.89.46-.89,1l0,6.53c0,.56.27,1,.89,1h6.56c.65,0,.89-.44.89-1Z"/><path class="cls-1" d="M417.19,28.1l9.37,0,0-7.77h-5.27a35.65,35.65,0,0,1-1.82,5l-4.24,0a34.54,34.54,0,0,0,3.21-10.7h4.11a39.62,39.62,0,0,1-.83,4.18h4.83V14h4.1l0,4.81,8.53,0v1.54l-8.53,0,0,7.77,7.72,0v1.54l-7.72,0,0,8,9.91,0v1.54l-25.32.07V37.66l11.31,0,0-8-9.36,0Z"/><path class="cls-1" d="M465.28,37.84h.86a1,1,0,0,0,1-1l-.05-20a1,1,0,0,0-1-1l-14.31,0a1,1,0,0,0-1,1v1.45h3L455,22.57c.32-1.43.59-2.84.86-4.27l5.88,0L463,22.55c.32-1.41.59-2.84.86-4.27h3c-.55,3.35-1.27,6.67-2.13,10l2.48,8.33h-3l-1-3.26c-.34,1.1-.72,2.18-1.09,3.26l-5.94,0-.95-3.24c-.35,1.09-.73,2.17-1.1,3.25H451c1-2.84,1.85-5.68,2.62-8.54l-2.89-9.77.06,21.11h-4.07l-.07-23.34a1.77,1.77,0,0,1,1.75-1.79l21-.06A1.78,1.78,0,0,1,471.18,16l.06,21.54a1.78,1.78,0,0,1-1.78,1.81h-4.18Zm-8.59-9.61,2.4,8.09q1.41-4.09,2.54-8.24l-2.86-9.6C458.21,21.78,457.55,25,456.69,28.23Z"/></g></g></svg>